<svg width="17" height="15" viewBox="0 0 17 15" fill="none" xmlns="http://www.w3.org/2000/svg">
<path d="M6 10.9609H13.9434C14.1211 10.9609 14.2783 10.8994 14.415 10.7764C14.5518 10.6533 14.6201 10.4893 14.6201 10.2842C14.6201 10.0882 14.5518 9.92871 14.415 9.80566C14.2783 9.68262 14.1211 9.62109 13.9434 9.62109H6.17773C6.03646 9.62109 5.92025 9.57552 5.8291 9.48438C5.73796 9.38867 5.68327 9.26107 5.66504 9.10156L4.58496 1.66406C4.54395 1.34505 4.43913 1.10579 4.27051 0.946289C4.10645 0.786784 3.82389 0.707031 3.42285 0.707031H1.11914C0.923177 0.707031 0.752279 0.779948 0.606445 0.925781C0.465169 1.07161 0.394531 1.24479 0.394531 1.44531C0.394531 1.64583 0.465169 1.81901 0.606445 1.96484C0.752279 2.11068 0.923177 2.18359 1.11914 2.18359H3.15625L4.18848 9.24512C4.27051 9.77832 4.45736 10.1976 4.74902 10.5029C5.04069 10.8083 5.45768 10.9609 6 10.9609ZM4.84473 8.4043H14.0186C14.5609 8.4043 14.9779 8.25163 15.2695 7.94629C15.5658 7.64095 15.7526 7.21712 15.8301 6.6748L16.3223 3.37305C16.3314 3.32292 16.3382 3.27279 16.3428 3.22266C16.3519 3.16797 16.3564 3.11784 16.3564 3.07227C16.3564 2.85352 16.2835 2.67578 16.1377 2.53906C15.9919 2.39779 15.7868 2.32715 15.5225 2.32715H4.22266L4.22949 3.67383H14.7705L14.3672 6.55176C14.3444 6.71126 14.2897 6.83659 14.2031 6.92773C14.1211 7.01432 14.0072 7.05762 13.8613 7.05762L4.83789 7.06445L4.84473 8.4043ZM6.56738 14.4473C6.90918 14.4473 7.20085 14.3265 7.44238 14.085C7.68848 13.848 7.81152 13.554 7.81152 13.2031C7.81152 12.8613 7.68848 12.5697 7.44238 12.3281C7.20085 12.0866 6.90918 11.9658 6.56738 11.9658C6.33496 11.9658 6.12533 12.0205 5.93848 12.1299C5.75163 12.2393 5.60124 12.3874 5.4873 12.5742C5.37337 12.7656 5.31641 12.9753 5.31641 13.2031C5.31641 13.4355 5.37337 13.6452 5.4873 13.832C5.60124 14.0234 5.75163 14.1738 5.93848 14.2832C6.12533 14.3926 6.33496 14.4473 6.56738 14.4473ZM12.8359 14.4473C13.1823 14.4473 13.4762 14.3265 13.7178 14.085C13.9593 13.848 14.0801 13.554 14.0801 13.2031C14.0801 12.8613 13.9593 12.5697 13.7178 12.3281C13.4762 12.0866 13.1823 11.9658 12.8359 11.9658C12.6081 11.9658 12.3984 12.0205 12.207 12.1299C12.0202 12.2393 11.8698 12.3874 11.7559 12.5742C11.6465 12.7656 11.5918 12.9753 11.5918 13.2031C11.5918 13.554 11.7126 13.848 11.9541 14.085C12.2002 14.3265 12.4941 14.4473 12.8359 14.4473Z" fill="#3A3A3A"/>
</svg>
