<svg width="19" height="16" viewBox="0 0 19 16" fill="none" xmlns="http://www.w3.org/2000/svg">
<path d="M7 11.8125H16.0781C16.2812 11.8125 16.4609 11.7422 16.6172 11.6016C16.7734 11.4609 16.8516 11.2734 16.8516 11.0391C16.8516 10.8151 16.7734 10.6328 16.6172 10.4922C16.4609 10.3516 16.2812 10.2812 16.0781 10.2812H7.20312C7.04167 10.2812 6.90885 10.2292 6.80469 10.125C6.70052 10.0156 6.63802 9.86979 6.61719 9.6875L5.38281 1.1875C5.33594 0.822917 5.21615 0.549479 5.02344 0.367188C4.83594 0.184896 4.51302 0.09375 4.05469 0.09375H1.42188C1.19792 0.09375 1.0026 0.177083 0.835938 0.34375C0.674479 0.510417 0.59375 0.708333 0.59375 0.9375C0.59375 1.16667 0.674479 1.36458 0.835938 1.53125C1.0026 1.69792 1.19792 1.78125 1.42188 1.78125H3.75L4.92969 9.85156C5.02344 10.4609 5.23698 10.9401 5.57031 11.2891C5.90365 11.638 6.38021 11.8125 7 11.8125ZM5.67969 8.89062H16.1641C16.7839 8.89062 17.2604 8.71615 17.5938 8.36719C17.9323 8.01823 18.1458 7.53385 18.2344 6.91406L18.7969 3.14062C18.8073 3.08333 18.8151 3.02604 18.8203 2.96875C18.8307 2.90625 18.8359 2.84896 18.8359 2.79688C18.8359 2.54688 18.7526 2.34375 18.5859 2.1875C18.4193 2.02604 18.1849 1.94531 17.8828 1.94531H4.96875L4.97656 3.48438H17.0234L16.5625 6.77344C16.5365 6.95573 16.474 7.09896 16.375 7.20312C16.2812 7.30208 16.151 7.35156 15.9844 7.35156L5.67188 7.35938L5.67969 8.89062ZM7.64844 15.7969C8.03906 15.7969 8.3724 15.6589 8.64844 15.3828C8.92969 15.112 9.07031 14.776 9.07031 14.375C9.07031 13.9844 8.92969 13.651 8.64844 13.375C8.3724 13.099 8.03906 12.9609 7.64844 12.9609C7.38281 12.9609 7.14323 13.0234 6.92969 13.1484C6.71615 13.2734 6.54427 13.4427 6.41406 13.6562C6.28385 13.875 6.21875 14.1146 6.21875 14.375C6.21875 14.6406 6.28385 14.8802 6.41406 15.0938C6.54427 15.3125 6.71615 15.4844 6.92969 15.6094C7.14323 15.7344 7.38281 15.7969 7.64844 15.7969ZM14.8125 15.7969C15.2083 15.7969 15.5443 15.6589 15.8203 15.3828C16.0964 15.112 16.2344 14.776 16.2344 14.375C16.2344 13.9844 16.0964 13.651 15.8203 13.375C15.5443 13.099 15.2083 12.9609 14.8125 12.9609C14.5521 12.9609 14.3125 13.0234 14.0938 13.1484C13.8802 13.2734 13.7083 13.4427 13.5781 13.6562C13.4531 13.875 13.3906 14.1146 13.3906 14.375C13.3906 14.776 13.5286 15.112 13.8047 15.3828C14.0859 15.6589 14.4219 15.7969 14.8125 15.7969Z" fill="white"/>
</svg>
