<svg width="72" height="16" viewBox="0 0 72 16" fill="none" xmlns="http://www.w3.org/2000/svg">
<path d="M7.47754 14.0371C8.43001 14.0371 9.32552 13.8548 10.1641 13.4902C11.0072 13.1257 11.75 12.6221 12.3926 11.9795C13.0352 11.3369 13.5387 10.5964 13.9033 9.75781C14.2679 8.91471 14.4502 8.01693 14.4502 7.06445C14.4502 6.11198 14.2679 5.21647 13.9033 4.37793C13.5387 3.53483 13.0352 2.79199 12.3926 2.14941C11.75 1.50684 11.0072 1.00326 10.1641 0.638672C9.32096 0.274089 8.42318 0.0917969 7.4707 0.0917969C6.51823 0.0917969 5.62044 0.274089 4.77734 0.638672C3.9388 1.00326 3.19824 1.50684 2.55566 2.14941C1.91764 2.79199 1.41634 3.53483 1.05176 4.37793C0.687174 5.21647 0.504883 6.11198 0.504883 7.06445C0.504883 8.01693 0.687174 8.91471 1.05176 9.75781C1.41634 10.5964 1.91992 11.3369 2.5625 11.9795C3.20508 12.6221 3.94564 13.1257 4.78418 13.4902C5.62728 13.8548 6.52507 14.0371 7.47754 14.0371ZM7.47754 12.875C6.6709 12.875 5.91667 12.7246 5.21484 12.4238C4.51302 12.123 3.89551 11.7083 3.3623 11.1797C2.83366 10.6465 2.41895 10.029 2.11816 9.32715C1.82194 8.62533 1.67383 7.87109 1.67383 7.06445C1.67383 6.25781 1.82194 5.50358 2.11816 4.80176C2.41895 4.09993 2.83366 3.48242 3.3623 2.94922C3.89095 2.41602 4.50618 2.0013 5.20801 1.70508C5.90983 1.4043 6.66406 1.25391 7.4707 1.25391C8.27734 1.25391 9.03158 1.4043 9.7334 1.70508C10.4352 2.0013 11.0527 2.41602 11.5859 2.94922C12.1191 3.48242 12.5361 4.09993 12.8369 4.80176C13.1377 5.50358 13.2881 6.25781 13.2881 7.06445C13.2881 7.87109 13.1377 8.62533 12.8369 9.32715C12.5407 10.029 12.126 10.6465 11.5928 11.1797C11.0641 11.7083 10.4466 12.123 9.74023 12.4238C9.03841 12.7246 8.28418 12.875 7.47754 12.875ZM6.72559 10.3047C6.95801 10.3047 7.14258 10.1999 7.2793 9.99023L10.4033 5.06836C10.4443 5.00456 10.4808 4.9362 10.5127 4.86328C10.5492 4.78581 10.5674 4.70833 10.5674 4.63086C10.5674 4.48047 10.5104 4.3597 10.3965 4.26855C10.2826 4.17741 10.1549 4.13184 10.0137 4.13184C9.82227 4.13184 9.66276 4.23438 9.53516 4.43945L6.69824 8.99219L5.35156 7.24902C5.26953 7.13965 5.1875 7.06673 5.10547 7.03027C5.02799 6.98926 4.94141 6.96875 4.8457 6.96875C4.69987 6.96875 4.57454 7.02344 4.46973 7.13281C4.36947 7.23763 4.31934 7.36523 4.31934 7.51562C4.31934 7.6569 4.37174 7.79818 4.47656 7.93945L6.14453 9.99023C6.23112 10.0996 6.31999 10.1794 6.41113 10.2295C6.50684 10.2796 6.61165 10.3047 6.72559 10.3047ZM26.4573 9.83H22.2013L21.4173 12H20.0733L23.6013 2.298H25.0713L28.5853 12H27.2413L26.4573 9.83ZM26.0933 8.794L24.3293 3.866L22.5653 8.794H26.0933ZM31.3969 5.742C31.6489 5.30333 32.0223 4.93933 32.5169 4.65C33.0209 4.35133 33.6043 4.202 34.2669 4.202C34.9483 4.202 35.5643 4.36533 36.1149 4.692C36.6749 5.01867 37.1136 5.48067 37.4309 6.078C37.7483 6.666 37.9069 7.352 37.9069 8.136C37.9069 8.91067 37.7483 9.60133 37.4309 10.208C37.1136 10.8147 36.6749 11.286 36.1149 11.622C35.5643 11.958 34.9483 12.126 34.2669 12.126C33.6136 12.126 33.0349 11.9813 32.5309 11.692C32.0363 11.3933 31.6583 11.0247 31.3969 10.586V15.64H30.1229V4.328H31.3969V5.742ZM36.6049 8.136C36.6049 7.55733 36.4883 7.05333 36.2549 6.624C36.0216 6.19467 35.7043 5.868 35.3029 5.644C34.9109 5.42 34.4769 5.308 34.0009 5.308C33.5343 5.308 33.1003 5.42467 32.6989 5.658C32.3069 5.882 31.9896 6.21333 31.7469 6.652C31.5136 7.08133 31.3969 7.58067 31.3969 8.15C31.3969 8.72867 31.5136 9.23733 31.7469 9.676C31.9896 10.1053 32.3069 10.4367 32.6989 10.67C33.1003 10.894 33.5343 11.006 34.0009 11.006C34.4769 11.006 34.9109 10.894 35.3029 10.67C35.7043 10.4367 36.0216 10.1053 36.2549 9.676C36.4883 9.23733 36.6049 8.724 36.6049 8.136ZM40.8579 5.742C41.1099 5.30333 41.4832 4.93933 41.9779 4.65C42.4819 4.35133 43.0652 4.202 43.7279 4.202C44.4092 4.202 45.0252 4.36533 45.5759 4.692C46.1359 5.01867 46.5745 5.48067 46.8919 6.078C47.2092 6.666 47.3679 7.352 47.3679 8.136C47.3679 8.91067 47.2092 9.60133 46.8919 10.208C46.5745 10.8147 46.1359 11.286 45.5759 11.622C45.0252 11.958 44.4092 12.126 43.7279 12.126C43.0745 12.126 42.4959 11.9813 41.9919 11.692C41.4972 11.3933 41.1192 11.0247 40.8579 10.586V15.64H39.5839V4.328H40.8579V5.742ZM46.0659 8.136C46.0659 7.55733 45.9492 7.05333 45.7159 6.624C45.4825 6.19467 45.1652 5.868 44.7639 5.644C44.3719 5.42 43.9379 5.308 43.4619 5.308C42.9952 5.308 42.5612 5.42467 42.1599 5.658C41.7679 5.882 41.4505 6.21333 41.2079 6.652C40.9745 7.08133 40.8579 7.58067 40.8579 8.15C40.8579 8.72867 40.9745 9.23733 41.2079 9.676C41.4505 10.1053 41.7679 10.4367 42.1599 10.67C42.5612 10.894 42.9952 11.006 43.4619 11.006C43.9379 11.006 44.3719 10.894 44.7639 10.67C45.1652 10.4367 45.4825 10.1053 45.7159 9.676C45.9492 9.23733 46.0659 8.724 46.0659 8.136ZM50.3188 1.64V12H49.0448V1.64H50.3188ZM53.1481 3.082C52.9054 3.082 52.7001 2.998 52.5321 2.83C52.3641 2.662 52.2801 2.45667 52.2801 2.214C52.2801 1.97133 52.3641 1.766 52.5321 1.598C52.7001 1.43 52.9054 1.346 53.1481 1.346C53.3814 1.346 53.5774 1.43 53.7361 1.598C53.9041 1.766 53.9881 1.97133 53.9881 2.214C53.9881 2.45667 53.9041 2.662 53.7361 2.83C53.5774 2.998 53.3814 3.082 53.1481 3.082ZM53.7641 4.328V12H52.4901V4.328H53.7641ZM62.9354 7.87C62.9354 8.11267 62.9214 8.36933 62.8934 8.64H56.7614C56.8081 9.396 57.0648 9.98867 57.5314 10.418C58.0074 10.838 58.5814 11.048 59.2534 11.048C59.8041 11.048 60.2614 10.922 60.6254 10.67C60.9988 10.4087 61.2601 10.0633 61.4094 9.634H62.7814C62.5761 10.3713 62.1654 10.9733 61.5494 11.44C60.9334 11.8973 60.1681 12.126 59.2534 12.126C58.5254 12.126 57.8721 11.9627 57.2934 11.636C56.7241 11.3093 56.2761 10.8473 55.9494 10.25C55.6228 9.64333 55.4594 8.94333 55.4594 8.15C55.4594 7.35667 55.6181 6.66133 55.9354 6.064C56.2528 5.46667 56.6961 5.00933 57.2654 4.692C57.8441 4.36533 58.5068 4.202 59.2534 4.202C59.9814 4.202 60.6254 4.36067 61.1854 4.678C61.7454 4.99533 62.1748 5.434 62.4734 5.994C62.7814 6.54467 62.9354 7.17 62.9354 7.87ZM61.6194 7.604C61.6194 7.11867 61.5121 6.70333 61.2974 6.358C61.0828 6.00333 60.7888 5.73733 60.4154 5.56C60.0514 5.37333 59.6454 5.28 59.1974 5.28C58.5534 5.28 58.0028 5.48533 57.5454 5.896C57.0974 6.30667 56.8408 6.876 56.7754 7.604H61.6194ZM64.1411 8.136C64.1411 7.352 64.2997 6.666 64.6171 6.078C64.9344 5.48067 65.3684 5.01867 65.9191 4.692C66.4791 4.36533 67.1044 4.202 67.7951 4.202C68.3924 4.202 68.9477 4.342 69.4611 4.622C69.9744 4.89267 70.3664 5.252 70.6371 5.7V1.64H71.9251V12H70.6371V10.558C70.3851 11.0153 70.0117 11.3933 69.5171 11.692C69.0224 11.9813 68.4437 12.126 67.7811 12.126C67.0997 12.126 66.4791 11.958 65.9191 11.622C65.3684 11.286 64.9344 10.8147 64.6171 10.208C64.2997 9.60133 64.1411 8.91067 64.1411 8.136ZM70.6371 8.15C70.6371 7.57133 70.5204 7.06733 70.2871 6.638C70.0537 6.20867 69.7364 5.882 69.3351 5.658C68.9431 5.42467 68.5091 5.308 68.0331 5.308C67.5571 5.308 67.1231 5.42 66.7311 5.644C66.3391 5.868 66.0264 6.19467 65.7931 6.624C65.5597 7.05333 65.4431 7.55733 65.4431 8.136C65.4431 8.724 65.5597 9.23733 65.7931 9.676C66.0264 10.1053 66.3391 10.4367 66.7311 10.67C67.1231 10.894 67.5571 11.006 68.0331 11.006C68.5091 11.006 68.9431 10.894 69.3351 10.67C69.7364 10.4367 70.0537 10.1053 70.2871 9.676C70.5204 9.23733 70.6371 8.72867 70.6371 8.15Z" fill="#00BA34"/>
</svg>
