<svg width="59" height="16" viewBox="0 0 59 16" fill="none" xmlns="http://www.w3.org/2000/svg">
<path d="M7.17676 14.0371C8.12923 14.0371 9.02474 13.8548 9.86328 13.4902C10.7064 13.1257 11.4492 12.6221 12.0918 11.9795C12.7344 11.3369 13.238 10.5964 13.6025 9.75781C13.9671 8.91471 14.1494 8.01693 14.1494 7.06445C14.1494 6.11198 13.9671 5.21647 13.6025 4.37793C13.238 3.53483 12.7344 2.79199 12.0918 2.14941C11.4492 1.50684 10.7064 1.00326 9.86328 0.638672C9.02018 0.274089 8.1224 0.0917969 7.16992 0.0917969C6.21745 0.0917969 5.31966 0.274089 4.47656 0.638672C3.63802 1.00326 2.89746 1.50684 2.25488 2.14941C1.61686 2.79199 1.11556 3.53483 0.750977 4.37793C0.386393 5.21647 0.204102 6.11198 0.204102 7.06445C0.204102 8.01693 0.386393 8.91471 0.750977 9.75781C1.11556 10.5964 1.61914 11.3369 2.26172 11.9795C2.9043 12.6221 3.64486 13.1257 4.4834 13.4902C5.3265 13.8548 6.22428 14.0371 7.17676 14.0371ZM7.17676 12.875C6.37012 12.875 5.61589 12.7246 4.91406 12.4238C4.21224 12.123 3.59473 11.7083 3.06152 11.1797C2.53288 10.6465 2.11816 10.029 1.81738 9.32715C1.52116 8.62533 1.37305 7.87109 1.37305 7.06445C1.37305 6.25781 1.52116 5.50358 1.81738 4.80176C2.11816 4.09993 2.53288 3.48242 3.06152 2.94922C3.59017 2.41602 4.2054 2.0013 4.90723 1.70508C5.60905 1.4043 6.36328 1.25391 7.16992 1.25391C7.97656 1.25391 8.73079 1.4043 9.43262 1.70508C10.1344 2.0013 10.752 2.41602 11.2852 2.94922C11.8184 3.48242 12.2354 4.09993 12.5361 4.80176C12.8369 5.50358 12.9873 6.25781 12.9873 7.06445C12.9873 7.87109 12.8369 8.62533 12.5361 9.32715C12.2399 10.029 11.8252 10.6465 11.292 11.1797C10.7633 11.7083 10.1458 12.123 9.43945 12.4238C8.73763 12.7246 7.9834 12.875 7.17676 12.875ZM6.4248 10.3047C6.65723 10.3047 6.8418 10.1999 6.97852 9.99023L10.1025 5.06836C10.1436 5.00456 10.18 4.9362 10.2119 4.86328C10.2484 4.78581 10.2666 4.70833 10.2666 4.63086C10.2666 4.48047 10.2096 4.3597 10.0957 4.26855C9.98177 4.17741 9.85417 4.13184 9.71289 4.13184C9.52148 4.13184 9.36198 4.23438 9.23438 4.43945L6.39746 8.99219L5.05078 7.24902C4.96875 7.13965 4.88672 7.06673 4.80469 7.03027C4.72721 6.98926 4.64062 6.96875 4.54492 6.96875C4.39909 6.96875 4.27376 7.02344 4.16895 7.13281C4.06868 7.23763 4.01855 7.36523 4.01855 7.51562C4.01855 7.6569 4.07096 7.79818 4.17578 7.93945L5.84375 9.99023C5.93034 10.0996 6.01921 10.1794 6.11035 10.2295C6.20605 10.2796 6.31087 10.3047 6.4248 10.3047ZM26.1565 9.83H21.9005L21.1165 12H19.7725L23.3005 2.298H24.7705L28.2845 12H26.9405L26.1565 9.83ZM25.7925 8.794L24.0285 3.866L22.2645 8.794H25.7925ZM31.0961 5.742C31.3481 5.30333 31.7215 4.93933 32.2161 4.65C32.7201 4.35133 33.3035 4.202 33.9661 4.202C34.6475 4.202 35.2635 4.36533 35.8141 4.692C36.3741 5.01867 36.8128 5.48067 37.1301 6.078C37.4475 6.666 37.6061 7.352 37.6061 8.136C37.6061 8.91067 37.4475 9.60133 37.1301 10.208C36.8128 10.8147 36.3741 11.286 35.8141 11.622C35.2635 11.958 34.6475 12.126 33.9661 12.126C33.3128 12.126 32.7341 11.9813 32.2301 11.692C31.7355 11.3933 31.3575 11.0247 31.0961 10.586V15.64H29.8221V4.328H31.0961V5.742ZM36.3041 8.136C36.3041 7.55733 36.1875 7.05333 35.9541 6.624C35.7208 6.19467 35.4035 5.868 35.0021 5.644C34.6101 5.42 34.1761 5.308 33.7001 5.308C33.2335 5.308 32.7995 5.42467 32.3981 5.658C32.0061 5.882 31.6888 6.21333 31.4461 6.652C31.2128 7.08133 31.0961 7.58067 31.0961 8.15C31.0961 8.72867 31.2128 9.23733 31.4461 9.676C31.6888 10.1053 32.0061 10.4367 32.3981 10.67C32.7995 10.894 33.2335 11.006 33.7001 11.006C34.1761 11.006 34.6101 10.894 35.0021 10.67C35.4035 10.4367 35.7208 10.1053 35.9541 9.676C36.1875 9.23733 36.3041 8.724 36.3041 8.136ZM40.5571 5.742C40.8091 5.30333 41.1824 4.93933 41.6771 4.65C42.1811 4.35133 42.7644 4.202 43.4271 4.202C44.1084 4.202 44.7244 4.36533 45.2751 4.692C45.8351 5.01867 46.2737 5.48067 46.5911 6.078C46.9084 6.666 47.0671 7.352 47.0671 8.136C47.0671 8.91067 46.9084 9.60133 46.5911 10.208C46.2737 10.8147 45.8351 11.286 45.2751 11.622C44.7244 11.958 44.1084 12.126 43.4271 12.126C42.7737 12.126 42.1951 11.9813 41.6911 11.692C41.1964 11.3933 40.8184 11.0247 40.5571 10.586V15.64H39.2831V4.328H40.5571V5.742ZM45.7651 8.136C45.7651 7.55733 45.6484 7.05333 45.4151 6.624C45.1817 6.19467 44.8644 5.868 44.4631 5.644C44.0711 5.42 43.6371 5.308 43.1611 5.308C42.6944 5.308 42.2604 5.42467 41.8591 5.658C41.4671 5.882 41.1497 6.21333 40.9071 6.652C40.6737 7.08133 40.5571 7.58067 40.5571 8.15C40.5571 8.72867 40.6737 9.23733 40.9071 9.676C41.1497 10.1053 41.4671 10.4367 41.8591 10.67C42.2604 10.894 42.6944 11.006 43.1611 11.006C43.6371 11.006 44.0711 10.894 44.4631 10.67C44.8644 10.4367 45.1817 10.1053 45.4151 9.676C45.6484 9.23733 45.7651 8.724 45.7651 8.136ZM50.018 1.64V12H48.744V1.64H50.018ZM58.7973 4.328L54.1773 15.612H52.8613L54.3733 11.916L51.2793 4.328H52.6933L55.1013 10.544L57.4813 4.328H58.7973Z" fill="#6D7C8D"/>
<path d="M19.3105 13.4H58.9933V14.1H19.3105V13.4Z" fill="#6D7C8D"/>
</svg>
