<svg width="17" height="16" viewBox="0 0 17 16" fill="none" xmlns="http://www.w3.org/2000/svg">
<path d="M1.25536 15.5664C1.41812 15.7292 1.61344 15.8366 1.8413 15.8887C2.07568 15.9473 2.30354 15.9473 2.52489 15.8887C2.75276 15.8366 2.94482 15.7324 3.10107 15.5762L8.47216 10.2051L13.8335 15.5762C14.0809 15.8236 14.3869 15.944 14.7515 15.9375C15.1226 15.9375 15.4351 15.8105 15.689 15.5566C15.9429 15.3027 16.0698 14.9935 16.0698 14.6289C16.0698 14.2643 15.9461 13.9583 15.6987 13.7109L10.3374 8.33984L15.6987 2.97852C15.9461 2.73763 16.0698 2.43164 16.0698 2.06055C16.0698 1.68945 15.9429 1.38021 15.689 1.13281C15.4351 0.878906 15.1226 0.751953 14.7515 0.751953C14.3869 0.745443 14.0809 0.865885 13.8335 1.11328L8.47216 6.48438L3.10107 1.11328C2.94482 0.957031 2.75276 0.852865 2.52489 0.800781C2.30354 0.742188 2.07568 0.738932 1.8413 0.791016C1.61344 0.843099 1.41812 0.953776 1.25536 1.12305C1.08609 1.29883 0.97216 1.50065 0.913567 1.72852C0.861483 1.94987 0.861483 2.17448 0.913567 2.40234C0.97216 2.63021 1.07958 2.82227 1.23583 2.97852L6.60693 8.33984L1.23583 13.7109C1.07958 13.8737 0.97216 14.069 0.913567 14.2969C0.861483 14.5182 0.861483 14.7428 0.913567 14.9707C0.97216 15.1986 1.08609 15.3971 1.25536 15.5664Z" fill="#3A3A3A"/>
</svg>
