<svg width="14" height="17" viewBox="0 0 14 17" fill="none" xmlns="http://www.w3.org/2000/svg">
<path d="M3.73145 16.208H10.0273C10.5742 16.208 11.0117 16.0553 11.3398 15.75C11.6725 15.4447 11.8503 15.014 11.873 14.458L12.3311 4.68262H13.0352C13.2266 4.68262 13.3861 4.61882 13.5137 4.49121C13.6413 4.36361 13.7051 4.2041 13.7051 4.0127C13.7051 3.82129 13.639 3.66406 13.5068 3.54102C13.3792 3.41341 13.222 3.34961 13.0352 3.34961H0.723633C0.536784 3.34961 0.377279 3.41341 0.245117 3.54102C0.112956 3.66862 0.046875 3.82585 0.046875 4.0127C0.046875 4.2041 0.112956 4.36361 0.245117 4.49121C0.377279 4.61882 0.536784 4.68262 0.723633 4.68262H1.42773L1.88574 14.4648C1.90853 15.0163 2.08398 15.4447 2.41211 15.75C2.74023 16.0553 3.18001 16.208 3.73145 16.208ZM3.89551 14.8613C3.70866 14.8613 3.55599 14.7998 3.4375 14.6768C3.32357 14.5537 3.26204 14.3919 3.25293 14.1914L2.80176 4.68262H10.9297L10.499 14.1914C10.4899 14.3965 10.4261 14.5583 10.3076 14.6768C10.1937 14.7998 10.041 14.8613 9.84961 14.8613H3.89551ZM4.87305 13.8086C5.02344 13.8086 5.14421 13.763 5.23535 13.6719C5.3265 13.5807 5.37207 13.4622 5.37207 13.3164L5.16699 6.26172C5.16244 6.12044 5.1123 6.00651 5.0166 5.91992C4.92546 5.82878 4.80469 5.7832 4.6543 5.7832C4.50391 5.7832 4.38314 5.82878 4.29199 5.91992C4.20085 6.00651 4.15755 6.12272 4.16211 6.26855L4.36719 13.3232C4.37174 13.4691 4.4196 13.5876 4.51074 13.6787C4.60189 13.7653 4.72266 13.8086 4.87305 13.8086ZM6.87598 13.8086C7.03092 13.8086 7.15397 13.7653 7.24512 13.6787C7.34082 13.5876 7.38867 13.4691 7.38867 13.3232V6.26855C7.38867 6.12272 7.34082 6.00651 7.24512 5.91992C7.15397 5.82878 7.03092 5.7832 6.87598 5.7832C6.72559 5.7832 6.60254 5.82878 6.50684 5.91992C6.41569 6.00651 6.37012 6.12272 6.37012 6.26855V13.3232C6.37012 13.4691 6.41569 13.5876 6.50684 13.6787C6.60254 13.7653 6.72559 13.8086 6.87598 13.8086ZM8.88574 13.8086C9.03158 13.8086 9.15007 13.7653 9.24121 13.6787C9.33691 13.5876 9.38704 13.4691 9.3916 13.3232L9.58984 6.26855C9.5944 6.12272 9.55111 6.00651 9.45996 5.91992C9.37337 5.82878 9.2526 5.7832 9.09766 5.7832C8.94727 5.7832 8.8265 5.82878 8.73535 5.91992C8.64421 6.00651 8.59635 6.12272 8.5918 6.26855L8.38672 13.3164C8.38216 13.4622 8.42546 13.5807 8.5166 13.6719C8.60775 13.763 8.73079 13.8086 8.88574 13.8086ZM3.69043 3.78711H5.08496V2.39941C5.08496 2.23991 5.13737 2.1123 5.24219 2.0166C5.35156 1.91634 5.49512 1.86621 5.67285 1.86621H8.07227C8.25 1.86621 8.39128 1.91634 8.49609 2.0166C8.60547 2.1123 8.66016 2.23991 8.66016 2.39941V3.78711H10.0547V2.33789C10.0547 1.80013 9.88835 1.38086 9.55566 1.08008C9.22754 0.779297 8.76725 0.628906 8.1748 0.628906H5.57031C4.97786 0.628906 4.5153 0.779297 4.18262 1.08008C3.85449 1.38086 3.69043 1.80013 3.69043 2.33789V3.78711Z" fill="#3A3A3A"/>
</svg>
