<svg width="285" height="187" viewBox="0 0 285 187" fill="none" xmlns="http://www.w3.org/2000/svg">
<path d="M18.8024 170.574C24.4159 180.985 36.3297 185.454 36.3297 185.454C36.3297 185.454 39.1422 173.044 33.5287 162.634C27.9153 152.223 16.0015 147.754 16.0015 147.754C16.0015 147.754 13.1889 160.164 18.8024 170.574Z" fill="#31569A"/>
<path d="M22.6629 167.149C32.7976 173.247 36.7007 185.358 36.7007 185.358C36.7007 185.358 24.1724 187.583 14.0378 181.486C3.90317 175.388 0 163.277 0 163.277C0 163.277 12.5283 161.052 22.6629 167.149Z" fill="#F26D0C"/>
<path d="M163.53 165.808H56.582V165.038H162.76V127.722H65.5729L60.8516 117.886L61.5454 117.553L66.057 126.952H163.53V165.808Z" fill="#2F2E41"/>
<path d="M70.8171 184.658C75.2789 184.658 78.8959 181.041 78.8959 176.579C78.8959 172.117 75.2789 168.5 70.8171 168.5C66.3553 168.5 62.7383 172.117 62.7383 176.579C62.7383 181.041 66.3553 184.658 70.8171 184.658Z" fill="#31569A"/>
<path d="M150.45 184.658C154.912 184.658 158.529 181.041 158.529 176.579C158.529 172.117 154.912 168.5 150.45 168.5C145.988 168.5 142.371 172.117 142.371 176.579C142.371 181.041 145.988 184.658 150.45 184.658Z" fill="#31569A"/>
<path d="M244.318 10.0023C247.08 10.0023 249.319 7.76323 249.319 5.00116C249.319 2.2391 247.08 0 244.318 0C241.556 0 239.316 2.2391 239.316 5.00116C239.316 7.76323 241.556 10.0023 244.318 10.0023Z" fill="#31569A"/>
<path d="M174.966 115.026H54.7567L28.7461 30.0068H201.753L201.596 30.5071L174.966 115.026ZM55.3258 114.257H174.402L200.704 30.7762H29.786L55.3258 114.257Z" fill="#2F2E41"/>
<path d="M165.587 110.602H60.0023L37.1562 35.2003H189.115L188.976 35.6443L165.587 110.602Z" fill="#F2F2F2"/>
<path d="M203.908 22.4114L203.164 22.2141L208.241 3.07751H237.775V3.84714H208.833L203.908 22.4114Z" fill="#2F2E41"/>
<path d="M193.109 55.7821H37.1523V56.5515H193.109V55.7821Z" fill="#2F2E41"/>
<path d="M184.177 84.1285H45.8242V84.8979H184.177V84.1285Z" fill="#2F2E41"/>
<path d="M115.633 30.3916H114.863V114.642H115.633V30.3916Z" fill="#2F2E41"/>
<path d="M150.082 30.3675L144.559 114.616L145.326 114.666L150.85 30.4178L150.082 30.3675Z" fill="#2F2E41"/>
<path d="M80.432 30.3666L79.6641 30.4166L85.1551 114.667L85.923 114.617L80.432 30.3666Z" fill="#2F2E41"/>
<path d="M285 185.146H0V186.049H285V185.146Z" fill="#2F2E41"/>
</svg>
