<svg width="24" height="24" viewBox="0 0 24 24" fill="none" xmlns="http://www.w3.org/2000/svg">
<path d="M12 0C5.38317 0 0 5.38317 0 12C0 18.6168 5.38317 24 12 24C18.6168 24 24 18.6168 24 12C24 5.38317 18.6168 0 12 0ZM12 22.6271C6.14019 22.6271 1.37295 17.8597 1.37295 12C1.37295 6.14027 6.14019 1.37295 12 1.37295C17.8598 1.37295 22.6271 6.14027 22.6271 12C22.6271 17.8597 17.8598 22.6271 12 22.6271Z" fill="#31569A"/>
<path d="M14.7793 5.48813H13.1521C11.8202 5.48813 10.7367 6.57169 10.7367 7.90352V9.73411H9.2207C8.84154 9.73411 8.53423 10.0414 8.53423 10.4206C8.53423 10.7997 8.84154 11.1071 9.2207 11.1071H10.7367V17.4633C10.7367 17.8424 11.044 18.1497 11.4231 18.1497C11.8023 18.1497 12.1096 17.8424 12.1096 17.4633V11.1071H14.4551C14.8342 11.1071 15.1415 10.7997 15.1415 10.4206C15.1415 10.0414 14.8342 9.73411 14.4551 9.73411H12.1096V7.90352C12.1096 7.32871 12.5772 6.86107 13.1521 6.86107H14.7792C15.1584 6.86107 15.4657 6.55376 15.4657 6.1746C15.4657 5.79544 15.1584 5.48813 14.7793 5.48813Z" fill="#31569A"/>
</svg>
