<svg width="24" height="24" viewBox="0 0 24 24" fill="none" xmlns="http://www.w3.org/2000/svg">
<path d="M12 0C5.38317 0 0 5.38317 0 12C0 18.6168 5.38317 24 12 24C18.6168 24 24 18.6168 24 12C24 5.38317 18.6168 0 12 0ZM12 22.6271C6.14019 22.6271 1.37295 17.8597 1.37295 12C1.37295 6.14027 6.14019 1.37295 12 1.37295C17.8598 1.37295 22.6271 6.14027 22.6271 12C22.6271 17.8597 17.8598 22.6271 12 22.6271Z" fill="#3A3A3A"/>
<path d="M14.7802 5.48804H13.153C11.8211 5.48804 10.7376 6.5716 10.7376 7.90343V9.73402H9.22163C8.84247 9.73402 8.53516 10.0413 8.53516 10.4205C8.53516 10.7997 8.84247 11.107 9.22163 11.107H10.7376V17.4632C10.7376 17.8423 11.0449 18.1496 11.4241 18.1496C11.8032 18.1496 12.1105 17.8423 12.1105 17.4632V11.107H14.456C14.8351 11.107 15.1425 10.7997 15.1425 10.4205C15.1425 10.0413 14.8351 9.73402 14.456 9.73402H12.1105V7.90343C12.1105 7.32862 12.5782 6.86098 13.153 6.86098H14.7802C15.1593 6.86098 15.4666 6.55367 15.4666 6.17451C15.4666 5.79535 15.1593 5.48804 14.7802 5.48804Z" fill="#3A3A3A"/>
</svg>
