<svg width="35" height="35" viewBox="0 0 35 35" fill="none" xmlns="http://www.w3.org/2000/svg">
<path d="M29.0315 30.7651C33.1662 26.906 35.0039 20.4742 33.9013 14.318H17.4542V21.1174H26.8263C26.4588 23.3226 25.1724 25.1603 23.3347 26.3547L29.0315 30.7651Z" fill="#4285F4"/>
<path d="M1.83411 25.344C3.04283 27.7251 4.7763 29.8007 6.90385 31.4143C9.03139 33.028 11.4975 34.1377 14.1163 34.6597C16.735 35.1816 19.4381 35.1023 22.0218 34.4277C24.6054 33.7531 27.0022 32.5008 29.0315 30.7651L23.3348 26.3547C18.465 29.5707 10.3792 28.3762 7.62275 20.8418L1.83411 25.344Z" fill="#34A853"/>
<path d="M7.62271 20.8418C6.88765 18.5447 6.88765 16.4314 7.62271 14.1343L1.83407 9.632C-0.279239 13.8586 -0.922421 19.831 1.83407 25.344L7.62271 20.8418Z" fill="#FBBC02"/>
<path d="M7.62275 14.1343C9.64418 7.79433 18.2812 4.119 24.0698 9.54011L29.1234 4.57842C21.9565 -2.31282 7.99028 -2.03717 1.83411 9.632L7.62275 14.1343Z" fill="#EA4335"/>
</svg>
