<svg width="24" height="24" viewBox="0 0 24 24" fill="none" xmlns="http://www.w3.org/2000/svg">
<path d="M12 0C5.38317 0 0 5.38317 0 12C0 18.6168 5.38317 24 12 24C18.6168 24 24 18.6168 24 12C24 5.38317 18.6168 0 12 0ZM12 22.6271C6.14019 22.6271 1.37295 17.8597 1.37295 12C1.37295 6.14027 6.14019 1.37295 12 1.37295C17.8598 1.37295 22.6271 6.14027 22.6271 12C22.6271 17.8597 17.8598 22.6271 12 22.6271Z" fill="#31569A"/>
<path d="M8.56764 9.23831C8.18848 9.23831 7.88116 9.54562 7.88116 9.92478V15.6007C7.88116 15.9799 8.18848 16.2872 8.56764 16.2872C8.9468 16.2872 9.25411 15.9799 9.25411 15.6007V9.92478C9.25411 9.54562 8.9468 9.23831 8.56764 9.23831Z" fill="#31569A"/>
<path d="M8.56764 6.03455C8.38687 6.03455 8.20991 6.10777 8.08253 6.23591C7.95439 6.36329 7.88116 6.54025 7.88116 6.72102C7.88116 6.90179 7.95439 7.07867 8.08253 7.20689C8.20991 7.33427 8.38687 7.40749 8.56764 7.40749C8.74841 7.40749 8.92537 7.33427 9.05274 7.20689C9.18089 7.07867 9.25411 6.90179 9.25411 6.72102C9.25411 6.54025 9.18089 6.36329 9.05274 6.23591C8.92537 6.10777 8.74841 6.03455 8.56764 6.03455Z" fill="#31569A"/>
<path d="M14.498 9.77223C13.7795 9.77223 13.1144 10.0038 12.5721 10.3953V9.92478C12.5721 9.54562 12.2647 9.23831 11.8856 9.23831C11.5064 9.23831 11.1991 9.54562 11.1991 9.92478V15.6007C11.1991 15.9799 11.5064 16.2872 11.8856 16.2872C12.2647 16.2872 12.5721 15.9799 12.5721 15.6007V13.0711C12.5721 12.0091 13.436 11.1452 14.498 11.1452C15.56 11.1452 16.4239 12.0091 16.4239 13.0711V15.7532C16.4239 16.1324 16.7312 16.4397 17.1104 16.4397C17.4896 16.4397 17.7969 16.1324 17.7969 15.7532V13.0711C17.7969 11.2521 16.317 9.77223 14.498 9.77223Z" fill="#31569A"/>
</svg>
