<svg width="24" height="24" viewBox="0 0 24 24" fill="none" xmlns="http://www.w3.org/2000/svg">
<path d="M12 0C5.38317 0 0 5.38317 0 12C0 18.6168 5.38317 24 12 24C18.6168 24 24 18.6168 24 12C24 5.38317 18.6168 0 12 0ZM12 22.6271C6.14019 22.6271 1.37295 17.8597 1.37295 12C1.37295 6.14027 6.14019 1.37295 12 1.37295C17.8598 1.37295 22.6271 6.14027 22.6271 12C22.6271 17.8597 17.8598 22.6271 12 22.6271Z" fill="#3A3A3A"/>
<path d="M8.56929 9.23828C8.19012 9.23828 7.88281 9.54559 7.88281 9.92475V15.6007C7.88281 15.9798 8.19012 16.2871 8.56929 16.2871C8.94845 16.2871 9.25576 15.9798 9.25576 15.6007V9.92475C9.25576 9.54559 8.94845 9.23828 8.56929 9.23828Z" fill="#3A3A3A"/>
<path d="M8.56929 6.03467C8.38851 6.03467 8.21156 6.10789 8.08418 6.23603C7.95604 6.36341 7.88281 6.54037 7.88281 6.72114C7.88281 6.90191 7.95604 7.07879 8.08418 7.20701C8.21156 7.33439 8.38851 7.40761 8.56929 7.40761C8.75006 7.40761 8.92701 7.33439 9.05439 7.20701C9.18253 7.07879 9.25576 6.90191 9.25576 6.72114C9.25576 6.54037 9.18253 6.36341 9.05439 6.23603C8.92701 6.10789 8.75006 6.03467 8.56929 6.03467Z" fill="#3A3A3A"/>
<path d="M14.4981 9.7722C13.7796 9.7722 13.1146 10.0038 12.5722 10.3953V9.92475C12.5722 9.54559 12.2649 9.23828 11.8857 9.23828C11.5065 9.23828 11.1992 9.54559 11.1992 9.92475V15.6007C11.1992 15.9798 11.5065 16.2871 11.8857 16.2871C12.2649 16.2871 12.5722 15.9798 12.5722 15.6007V13.0711C12.5722 12.0091 13.4361 11.1451 14.4981 11.1451C15.5601 11.1451 16.424 12.0091 16.424 13.0711V15.7532C16.424 16.1324 16.7313 16.4397 17.1105 16.4397C17.4897 16.4397 17.797 16.1324 17.797 15.7532V13.0711C17.797 11.2521 16.3171 9.7722 14.4981 9.7722Z" fill="#3A3A3A"/>
</svg>
