<svg width="19" height="20" viewBox="0 0 19 20" fill="none" xmlns="http://www.w3.org/2000/svg">
<path fill-rule="evenodd" clip-rule="evenodd" d="M9.00166 0C10.4218 0 11.6115 0.986801 11.9224 2.31213L11.9307 2.355C14.2414 3.65605 15.7632 6.02134 15.9831 8.71065L16.0017 9V11.931L16.0232 12.0674C16.1728 12.8732 16.6461 13.5831 17.3323 14.0312L17.4944 14.1298C18.3541 14.6167 18.055 15.8964 17.1172 15.9941L17.0017 16H13.0017C13.0017 18.2091 11.2108 20 9.00166 20C6.85947 20 5.11058 18.316 5.00656 16.1996L5.00166 16H1.00166C-0.02587 16 -0.385218 14.6362 0.508907 14.1298C1.28249 13.6918 1.81901 12.9351 1.98017 12.0674L2.00166 11.924L2.00276 8.95311C2.12804 6.28395 3.57457 3.87404 5.82411 2.50073L6.07166 2.355L6.08089 2.31213C6.37886 1.04202 7.48389 0.0828211 8.82539 0.00509269L9.00166 0ZM7.00166 16C7.00166 17.1046 7.89709 18 9.00166 18C10.056 18 10.9198 17.1841 10.9962 16.1493L11.0017 16H7.00166ZM12.0017 14H6.00166H3.37066L3.51318 13.7345C3.76071 13.2337 3.92557 12.6889 3.99441 12.1202L4.00166 12V9L4.01807 8.75978C4.20321 6.68542 5.49756 4.81737 7.43666 3.9L7.53168 3.84809L7.62513 3.78214C7.7139 3.7115 7.78846 3.62733 7.84722 3.53412L7.90002 3.43977C7.94884 3.34023 7.9816 3.23139 7.99493 3.11662L8.00839 2.88338C8.06615 2.38604 8.48882 2 9.00166 2C9.55395 2 10.0017 2.44772 10.0017 3L10.0098 3.12741C10.0528 3.46262 10.2634 3.7571 10.5742 3.90403C12.58 4.8525 13.8987 6.83053 14.0028 9.04689L14.0017 12L14.0089 12.1202L14.0451 12.3674C14.1437 12.9405 14.3403 13.4855 14.6207 13.9812L14.6317 14H12.0017Z" fill="#31569A"/>
</svg>
