<svg width="17" height="17" viewBox="0 0 17 17" fill="none" xmlns="http://www.w3.org/2000/svg">
<path d="M8.86719 16.3281C9.95573 16.3281 10.9792 16.1198 11.9375 15.7031C12.901 15.2865 13.75 14.7109 14.4844 13.9766C15.2188 13.2422 15.7943 12.3958 16.2109 11.4375C16.6276 10.474 16.8359 9.44792 16.8359 8.35938C16.8359 7.27083 16.6276 6.2474 16.2109 5.28906C15.7943 4.32552 15.2188 3.47656 14.4844 2.74219C13.75 2.00781 12.901 1.43229 11.9375 1.01562C10.974 0.598958 9.94792 0.390625 8.85938 0.390625C7.77083 0.390625 6.74479 0.598958 5.78125 1.01562C4.82292 1.43229 3.97656 2.00781 3.24219 2.74219C2.51302 3.47656 1.9401 4.32552 1.52344 5.28906C1.10677 6.2474 0.898438 7.27083 0.898438 8.35938C0.898438 9.44792 1.10677 10.474 1.52344 11.4375C1.9401 12.3958 2.51562 13.2422 3.25 13.9766C3.98438 14.7109 4.83073 15.2865 5.78906 15.7031C6.7526 16.1198 7.77865 16.3281 8.86719 16.3281ZM8.86719 15C7.94531 15 7.08333 14.8281 6.28125 14.4844C5.47917 14.1406 4.77344 13.6667 4.16406 13.0625C3.5599 12.4531 3.08594 11.7474 2.74219 10.9453C2.40365 10.1432 2.23438 9.28125 2.23438 8.35938C2.23438 7.4375 2.40365 6.57552 2.74219 5.77344C3.08594 4.97135 3.5599 4.26562 4.16406 3.65625C4.76823 3.04688 5.47135 2.57292 6.27344 2.23438C7.07552 1.89062 7.9375 1.71875 8.85938 1.71875C9.78125 1.71875 10.6432 1.89062 11.4453 2.23438C12.2474 2.57292 12.9531 3.04688 13.5625 3.65625C14.1719 4.26562 14.6484 4.97135 14.9922 5.77344C15.3359 6.57552 15.5078 7.4375 15.5078 8.35938C15.5078 9.28125 15.3359 10.1432 14.9922 10.9453C14.6536 11.7474 14.1797 12.4531 13.5703 13.0625C12.9661 13.6667 12.2604 14.1406 11.4531 14.4844C10.651 14.8281 9.78906 15 8.86719 15ZM6.19531 11.6641C6.3776 11.6641 6.52865 11.599 6.64844 11.4688L8.85938 9.25L11.0859 11.4688C11.2109 11.599 11.3594 11.6641 11.5312 11.6641C11.7031 11.6641 11.849 11.6016 11.9688 11.4766C12.0938 11.3516 12.1562 11.2031 12.1562 11.0312C12.1562 10.8594 12.0938 10.7109 11.9688 10.5859L9.75 8.36719L11.9766 6.13281C12.1016 6.00781 12.1641 5.86198 12.1641 5.69531C12.1641 5.52344 12.1016 5.3776 11.9766 5.25781C11.8568 5.13281 11.7109 5.07031 11.5391 5.07031C11.3776 5.07031 11.2344 5.13542 11.1094 5.26562L8.85938 7.49219L6.63281 5.27344C6.51823 5.14844 6.3724 5.08594 6.19531 5.08594C6.02344 5.08594 5.875 5.14583 5.75 5.26562C5.63021 5.38542 5.57031 5.53125 5.57031 5.70312C5.57031 5.875 5.63281 6.02083 5.75781 6.14062L7.97656 8.36719L5.75781 10.5938C5.63281 10.7135 5.57031 10.8594 5.57031 11.0312C5.57031 11.2031 5.63021 11.3516 5.75 11.4766C5.875 11.6016 6.02344 11.6641 6.19531 11.6641Z" fill="#3A3A3A"/>
</svg>
