<svg width="18" height="16" viewBox="0 0 18 16" fill="none" xmlns="http://www.w3.org/2000/svg">
<path d="M17.0186 7.45645L8.53281 0.0915038C8.46768 0.0353514 8.38457 0.00390625 8.29697 0.00390625H6.30918C6.14297 0.00390625 6.0666 0.210547 6.19238 0.318359L14.0582 7.14648H0.914063C0.815234 7.14648 0.734375 7.22734 0.734375 7.32617V8.67383C0.734375 8.77266 0.815234 8.85352 0.914063 8.85352H14.056L6.19014 15.6816C6.06436 15.7917 6.14072 15.9961 6.30693 15.9961H8.36211C8.40479 15.9961 8.44746 15.9804 8.47891 15.9512L17.0186 8.54356C17.0963 8.47594 17.1587 8.39243 17.2014 8.29866C17.2441 8.20489 17.2662 8.10304 17.2662 8C17.2662 7.89696 17.2441 7.79511 17.2014 7.70134C17.1587 7.60757 17.0963 7.52406 17.0186 7.45645Z" fill="white"/>
</svg>
