<svg width="30" height="30" viewBox="0 0 30 30" fill="none" xmlns="http://www.w3.org/2000/svg">
<path fill-rule="evenodd" clip-rule="evenodd" d="M23.2 15C23.2 19.5287 19.5287 23.2 15 23.2C10.4713 23.2 6.8 19.5287 6.8 15C6.8 10.4713 10.4713 6.8 15 6.8C19.5287 6.8 23.2 10.4713 23.2 15ZM25 15C25 20.5228 20.5228 25 15 25C9.47715 25 5 20.5228 5 15C5 9.47715 9.47715 5 15 5C20.5228 5 25 9.47715 25 15ZM12.1429 11.8571C12.1429 10.2792 13.422 9 15 9C16.578 9 17.8571 10.2792 17.8571 11.8571C17.8571 13.4351 16.578 14.7143 15 14.7143C13.422 14.7143 12.1429 13.4351 12.1429 11.8571ZM16.7143 11.8572C16.7143 10.9104 15.9468 10.1429 15 10.1429C14.0532 10.1429 13.2857 10.9104 13.2857 11.8572C13.2857 12.804 14.0532 13.5715 15 13.5715C15.9468 13.5715 16.7143 12.804 16.7143 11.8572ZM16.1429 15.8574C17.6793 15.8574 18.9325 17.0702 18.9974 18.5906L19 18.7146V19.8574C19 20.173 18.7442 20.4289 18.4286 20.4289C18.1355 20.4289 17.894 20.2083 17.861 19.9241L17.8571 19.8574V18.7146C17.8571 17.8016 17.1435 17.0553 16.2436 17.0032L16.1429 17.0003H13.8571C12.9442 17.0003 12.1979 17.7139 12.1458 18.6138L12.1429 18.7146V19.8574C12.1429 20.173 11.887 20.4289 11.5714 20.4289C11.2784 20.4289 11.0369 20.2083 11.0038 19.9241L11 19.8574V18.7146C11 17.1781 12.2127 15.925 13.7332 15.8601L13.8571 15.8574H16.1429Z" fill="#31569A"/>
</svg>
