<svg width="20" height="20" viewBox="0 0 20 20" fill="none" xmlns="http://www.w3.org/2000/svg">
<path d="M13.6713 10.6427C13.8417 10.4722 13.9375 10.241 13.9375 9.99986C13.9375 9.75871 13.8417 9.5275 13.6712 9.35702L8.82271 4.50865C8.46768 4.15368 7.89211 4.15368 7.53708 4.50871C7.18211 4.86368 7.18205 5.43932 7.53714 5.79435L11.7428 9.99992L7.53708 14.2057C7.35956 14.3831 7.27083 14.6158 7.27083 14.8485C7.27083 15.0811 7.35956 15.3138 7.53714 15.4913C7.89217 15.8463 8.46774 15.8463 8.82277 15.4913L13.6713 10.6427Z" fill="#31569A"/>
<path d="M20 10C20 4.486 15.514 0 10 0C4.486 0 0 4.486 0 10C0 15.514 4.486 20 10 20C15.514 20 20 15.514 20 10ZM1.81818 10C1.81818 5.48855 5.48854 1.81818 10 1.81818C14.5115 1.81818 18.1818 5.48855 18.1818 10C18.1818 14.5115 14.5115 18.1818 10 18.1818C5.48854 18.1818 1.81818 14.5115 1.81818 10Z" fill="#31569A"/>
</svg>
