<svg width="17" height="17" viewBox="0 0 17 17" fill="none" xmlns="http://www.w3.org/2000/svg">
<path d="M16.5147 7.95645L8.02891 0.591504C7.96377 0.535351 7.88066 0.503906 7.79307 0.503906H5.80527C5.63906 0.503906 5.5627 0.710547 5.68848 0.818359L13.5543 7.64648H0.410156C0.311328 7.64648 0.230469 7.72734 0.230469 7.82617V9.17383C0.230469 9.27266 0.311328 9.35352 0.410156 9.35352H13.5521L5.68623 16.1816C5.56045 16.2917 5.63682 16.4961 5.80303 16.4961H7.8582C7.90088 16.4961 7.94355 16.4804 7.975 16.4512L16.5147 9.04356C16.5924 8.97594 16.6548 8.89243 16.6975 8.79866C16.7402 8.70489 16.7623 8.60304 16.7623 8.5C16.7623 8.39696 16.7402 8.29511 16.6975 8.20134C16.6548 8.10757 16.5924 8.02406 16.5147 7.95645Z" fill="#F26D0C"/>
</svg>
