<svg width="16" height="16" viewBox="0 0 16 16" fill="none" xmlns="http://www.w3.org/2000/svg">
<path d="M0.776352 15.5664C0.939112 15.7292 1.13442 15.8366 1.36229 15.8887C1.59666 15.9473 1.82453 15.9473 2.04588 15.8887C2.27375 15.8366 2.46581 15.7324 2.62206 15.5762L7.99315 10.2051L13.3545 15.5762C13.6019 15.8236 13.9079 15.944 14.2724 15.9375C14.6435 15.9375 14.956 15.8105 15.2099 15.5566C15.4639 15.3027 15.5908 14.9935 15.5908 14.6289C15.5908 14.2643 15.4671 13.9583 15.2197 13.7109L9.85838 8.33984L15.2197 2.97852C15.4671 2.73763 15.5908 2.43164 15.5908 2.06055C15.5908 1.68945 15.4639 1.38021 15.2099 1.13281C14.956 0.878906 14.6435 0.751953 14.2724 0.751953C13.9079 0.745443 13.6019 0.865885 13.3545 1.11328L7.99315 6.48438L2.62206 1.11328C2.46581 0.957031 2.27375 0.852865 2.04588 0.800781C1.82453 0.742188 1.59666 0.738932 1.36229 0.791016C1.13442 0.843099 0.939112 0.953776 0.776352 1.12305C0.607081 1.29883 0.493149 1.50065 0.434555 1.72852C0.382472 1.94987 0.382472 2.17448 0.434555 2.40234C0.493149 2.63021 0.600571 2.82227 0.756821 2.97852L6.12791 8.33984L0.756821 13.7109C0.600571 13.8737 0.493149 14.069 0.434555 14.2969C0.382472 14.5182 0.382472 14.7428 0.434555 14.9707C0.493149 15.1986 0.607081 15.3971 0.776352 15.5664Z" fill="#31569A"/>
</svg>
