<svg width="467" height="234" viewBox="0 0 467 234" fill="none" xmlns="http://www.w3.org/2000/svg">
<g clip-path="url(#clip0_576_1380)">
<path d="M153.79 234C139.699 234 125.628 233.748 111.579 233.244C91.5045 232.523 70.7463 231.778 51.4523 221.082C37.9553 213.6 26.0017 201.596 16.884 186.367C10.7899 176.045 6.32138 164.847 3.6355 153.166C-1.3747 131.899 -1.20405 109.741 4.13311 88.5543C6.00345 81.2901 8.58185 74.2267 11.8313 67.4655C25.9016 38.3418 51.5648 18.7918 82.2408 13.8288C82.4942 13.7959 82.7503 13.7904 83.0049 13.8124C83.1428 13.8198 83.2803 13.8277 83.4205 13.8219L83.601 13.7645C84.0637 13.6038 84.539 13.4819 85.0219 13.4001C132.332 6.36003 182.347 20.6045 229.654 54.5923C266.231 80.8752 314.707 95.0282 377.851 97.8599L378.748 97.9068C396.326 98.9161 413.329 106.16 427.921 118.856C442.324 131.387 453.138 148.105 459.194 167.205C459.938 169.533 460.621 171.957 461.222 174.409C461.782 176.687 461.743 179.071 461.107 181.33C460.472 183.588 459.263 185.644 457.597 187.297V187.302L457.44 187.463C457.062 187.839 456.663 188.2 456.256 188.536L455.777 188.931C451.742 192.253 448.555 194.878 444.74 196.917C442.196 198.267 439.49 199.288 436.688 199.955C421.301 203.705 405.674 207.182 390.244 210.289C360.276 216.329 329.518 221.311 298.826 225.097C250.708 231.028 202.272 234.001 153.79 234ZM82.6461 14.8439C82.5519 14.8431 82.4577 14.8495 82.3644 14.8631C51.9752 19.7797 26.5549 39.1377 12.6241 67.9733C9.40674 74.6674 6.85385 81.6608 5.00211 88.853C-0.286413 109.852 -0.454943 131.814 4.51069 152.891C7.17028 164.46 11.5954 175.551 17.6307 185.775C26.6592 200.855 38.4906 212.738 51.8461 220.141C70.9668 230.741 91.6272 231.483 111.607 232.2C174.098 234.431 236.668 231.709 298.729 224.059C329.402 220.275 360.139 215.297 390.087 209.26C405.508 206.156 421.123 202.682 436.5 198.934C439.235 198.283 441.876 197.287 444.358 195.97C448.096 193.972 451.253 191.373 455.249 188.082L455.728 187.687C456.078 187.398 456.422 187.09 456.751 186.768L456.845 186.669C460.13 183.361 461.407 178.995 460.349 174.693V174.692C459.754 172.267 459.079 169.869 458.342 167.564C445.97 128.547 413.967 100.974 378.704 98.9497L377.813 98.9028C348.969 97.6091 323.729 94.0255 300.653 87.9461C273.106 80.6892 249.057 69.7651 229.173 55.4778C182.046 21.6202 132.241 7.42873 85.1374 14.4354C84.6974 14.5112 84.2645 14.6234 83.8431 14.7708L83.5177 14.8618C83.3329 14.87 83.1478 14.8678 82.9632 14.8551C82.8545 14.8496 82.7491 14.8439 82.6461 14.8439H82.6461Z" fill="#F0F0F0"/>
<path d="M145.872 76.24C144.568 74.989 143.234 68.0125 141.568 67.3043C142.813 70.0545 141.909 70.7826 141.903 73.8009C141.918 75.5147 141.718 77.2237 141.307 78.8876H113.094V56.8794C113.094 54.9019 113.483 52.9438 114.24 51.1168C114.997 49.2898 116.107 47.6298 117.506 46.2315C118.905 44.8332 120.566 43.724 122.394 42.9673C124.221 42.2106 126.18 41.8211 128.159 41.8212C128.914 41.8359 129.664 41.9457 130.392 42.1479C132.817 42.8023 135.027 44.0826 136.801 45.8604C138.574 47.6382 139.849 49.8509 140.497 52.2766C142.648 60.1345 146.068 73.2145 145.872 76.24Z" fill="#2F2E41"/>
<path d="M114.748 103.314L114.762 86.1602L104.674 87.0612L108.234 97.8803L106.568 125.074C105.76 125.256 105.022 125.668 104.444 126.261C103.866 126.854 103.474 127.603 103.314 128.415C103.155 129.228 103.235 130.069 103.546 130.836C103.856 131.604 104.383 132.264 105.063 132.738C105.743 133.211 106.545 133.476 107.373 133.501C108.201 133.526 109.018 133.31 109.725 132.879C110.432 132.447 110.999 131.82 111.355 131.073C111.712 130.325 111.843 129.491 111.733 128.67L114.748 103.314Z" fill="#FFB6B6"/>
<path d="M134.603 225.898L138.678 225.897L140.617 210.184H134.602L134.603 225.898Z" fill="#FFB6B6"/>
<path d="M133.219 223.888L139.661 223.503V226.263L145.787 230.491C146.089 230.7 146.317 231 146.437 231.347C146.557 231.695 146.563 232.071 146.453 232.422C146.344 232.773 146.125 233.08 145.829 233.297C145.533 233.515 145.175 233.633 144.807 233.633H137.137L135.814 230.903L135.298 233.633H132.406L133.219 223.888Z" fill="#2F2E41"/>
<path d="M111.036 225.898L115.112 225.897L117.05 210.184H111.035L111.036 225.898Z" fill="#FFB6B6"/>
<path d="M109.656 223.888L116.099 223.503V226.263L122.224 230.491C122.527 230.7 122.755 231 122.874 231.347C122.994 231.695 123 232.071 122.891 232.422C122.781 232.773 122.562 233.08 122.266 233.297C121.97 233.515 121.612 233.633 121.244 233.633H113.574L112.252 230.903L111.736 233.633H108.844L109.656 223.888Z" fill="#2F2E41"/>
<path d="M130.972 67.6353L122.529 67.8007L116.569 74.0888L111.791 74.7892C109.63 75.1061 107.643 76.1549 106.162 77.7603C104.681 79.3657 103.797 81.4305 103.656 83.6094L104.484 88.1541H109.45L112.324 105.016C111.206 107.861 111.13 110.107 113.424 110.99L120.542 124.393L141.567 114.961C142.633 113.129 142.975 111.288 141.885 109.499L143.388 83.6863H148.442C148.442 78.8586 146.808 74.7886 142.008 74.2514C140.102 74.0452 138.187 73.9357 136.269 73.9233L130.972 67.6353Z" fill="#E6E6E6"/>
<path d="M141.57 114.961C141.57 114.961 121.042 118.602 113.427 110.99C113.427 110.99 112.653 112.302 111.488 114.477C111.153 115.103 110.506 115.527 110.116 116.285C109.76 116.974 108.847 117.821 108.46 118.602C108.149 119.23 108.648 120.052 108.324 120.731C104.424 128.907 99.8681 140.44 100.845 148.056C101.475 152.967 102.776 164.395 104.146 176.67C104.253 177.629 103.386 178.861 103.494 179.827C103.595 180.739 104.671 181.385 104.773 182.298C104.84 182.905 104.089 183.524 104.156 184.13C104.23 184.794 105.122 185.446 105.195 186.108C107.073 203.056 108.791 218.879 108.791 218.879H118.393L120.205 182.741L118.724 169.568L122.201 142.926L127.002 168.244L127.619 182.493L132.693 219.541H141.57V183.676L142.232 181.813L141.57 179.423L142.232 176.849L141.57 174.045V114.961Z" fill="#31569A"/>
<path d="M133.564 62.7414C132.256 64.4779 130.396 65.7175 128.289 66.2559C126.182 66.7944 123.954 66.5996 121.973 65.7036C119.992 64.8076 118.375 63.264 117.389 61.3268C116.402 59.3896 116.105 57.1744 116.547 55.046C116.988 52.9177 118.142 51.0031 119.817 49.6175C121.493 48.2319 123.591 47.458 125.765 47.4232C127.939 47.3884 130.061 48.0948 131.78 49.4261C133.499 50.7574 134.713 52.6342 135.222 54.7473C135.25 54.862 135.273 54.976 135.295 55.0943C135.564 56.4189 135.549 57.7854 135.251 59.1036C134.952 60.4218 134.377 61.6617 133.564 62.7414Z" fill="#FFB6B6"/>
<path d="M131.566 57.2831C131.363 56.2646 130.849 55.334 130.096 54.619C130.17 55.595 130.034 56.5756 129.698 57.4949C127.181 57.7177 124.653 57.2171 122.411 56.052C120.722 54.9069 118.573 55.0062 116.07 56.052C116.07 54.8351 116.31 53.63 116.776 52.5057C117.242 51.3813 117.924 50.3597 118.785 49.4992C119.646 48.6387 120.668 47.9561 121.793 47.4905C122.918 47.0248 124.124 46.7852 125.341 46.7854H126.997C129.455 46.7858 131.813 47.7623 133.551 49.5C135.29 51.2378 136.267 53.5945 136.267 56.052C134.739 56.5998 133.166 57.0117 131.566 57.2831Z" fill="#2F2E41"/>
<path d="M59.1413 175.389C73.8506 175.389 85.7748 163.471 85.7748 148.768C85.7748 134.065 73.8506 122.146 59.1413 122.146C44.432 122.146 32.5078 134.065 32.5078 148.768C32.5078 163.471 44.432 175.389 59.1413 175.389Z" fill="#F0F0F0"/>
<path d="M228.868 53.2432C243.577 53.2432 255.501 41.3243 255.501 26.6216C255.501 11.9189 243.577 0 228.868 0C214.159 0 202.234 11.9189 202.234 26.6216C202.234 41.3243 214.159 53.2432 228.868 53.2432Z" fill="#F0F0F0"/>
<path d="M440.368 179.566C455.077 179.566 467.001 167.647 467.001 152.944C467.001 138.241 455.077 126.322 440.368 126.322C425.659 126.322 413.734 138.241 413.734 152.944C413.734 167.647 425.659 179.566 440.368 179.566Z" fill="#F0F0F0"/>
<path d="M276.909 29.5248V89.8912C276.91 91.1451 276.415 92.3484 275.532 93.2397C274.65 94.131 273.452 94.6383 272.197 94.6514C272.18 94.6532 272.162 94.6539 272.145 94.6535H265.116C259.492 94.6535 254.098 92.4204 250.121 88.4453C246.144 84.4702 243.91 79.0789 243.91 73.4573V29.5248C243.91 28.2617 244.412 27.0504 245.306 26.1573C246.199 25.2642 247.411 24.7625 248.675 24.7625H251.523C250.203 28.6099 268.112 30.2297 269.095 24.7625H272.145C273.409 24.7625 274.62 25.2642 275.514 26.1573C276.408 27.0504 276.909 28.2618 276.909 29.5248Z" fill="#31569A"/>
<path d="M256.051 20.2485C256.051 20.083 256.117 19.9244 256.234 19.8074C256.351 19.6904 256.51 19.6246 256.675 19.6244H260.921C261.086 19.6249 261.245 19.6908 261.361 19.8078C261.478 19.9248 261.544 20.0833 261.544 20.2485C261.544 20.4137 261.478 20.5722 261.361 20.6892C261.245 20.8062 261.086 20.8722 260.921 20.8726H256.675C256.51 20.8724 256.351 20.8066 256.234 20.6896C256.117 20.5726 256.051 20.414 256.051 20.2485Z" fill="#3F3D56"/>
<path d="M273.606 102.311H246.755C244.672 102.308 242.675 101.48 241.202 100.008C239.729 98.5353 238.9 96.539 238.898 94.4567V52.2581C238.75 52.1523 238.63 52.0129 238.547 51.8514C238.465 51.6899 238.422 51.5111 238.422 51.3296V47.0856C238.422 46.9042 238.465 46.7254 238.547 46.564C238.63 46.4025 238.75 46.2631 238.898 46.1574V45.0183C238.75 44.9125 238.63 44.7731 238.547 44.6117C238.465 44.4503 238.422 44.2714 238.422 44.09V39.8458C238.422 39.6644 238.465 39.4856 238.547 39.3241C238.63 39.1627 238.75 39.0233 238.898 38.9175V36.8589C238.716 36.7611 238.564 36.6158 238.458 36.4384C238.352 36.2609 238.296 36.0581 238.297 35.8516V31.6076C238.296 31.401 238.352 31.1981 238.458 31.0207C238.563 30.8432 238.716 30.6978 238.898 30.6V24.959C238.9 22.8768 239.729 20.8805 241.202 19.4081C242.675 17.9358 244.672 17.1076 246.755 17.1052H273.606C275.689 17.1076 277.686 17.9358 279.159 19.4082C280.632 20.8805 281.461 22.8768 281.463 24.9591V37.2552C281.605 37.3437 281.722 37.4666 281.802 37.6126C281.883 37.7585 281.926 37.9226 281.926 38.0894V46.1818C281.926 46.3487 281.883 46.5128 281.802 46.6588C281.722 46.8047 281.605 46.9278 281.463 47.0163V94.4567C281.461 96.5389 280.632 98.5352 279.159 100.008C277.686 101.48 275.689 102.308 273.606 102.311ZM246.755 18.1492C244.949 18.1512 243.217 18.8693 241.94 20.146C240.663 21.4226 239.944 23.1536 239.942 24.9591V31.4881L239.44 31.5074C239.414 31.5084 239.389 31.5193 239.371 31.5379C239.352 31.5565 239.342 31.5815 239.341 31.6076V35.8515C239.342 35.8776 239.352 35.9025 239.371 35.9212C239.389 35.9398 239.414 35.9507 239.44 35.9517L239.942 35.9708V39.6505L239.545 39.7484C239.523 39.7537 239.503 39.7661 239.489 39.7837C239.475 39.8013 239.467 39.8232 239.466 39.8458V44.09C239.467 44.1126 239.475 44.1344 239.489 44.1521C239.503 44.1697 239.523 44.1821 239.545 44.1874L239.942 44.2853V46.8904L239.545 46.9882C239.523 46.9935 239.503 47.006 239.489 47.0236C239.475 47.0412 239.467 47.063 239.466 47.0856V51.3296C239.467 51.3523 239.475 51.3741 239.489 51.3918C239.503 51.4094 239.523 51.4219 239.545 51.4272L239.942 51.5251V94.4567C239.944 96.2622 240.663 97.9931 241.94 99.2698C243.217 100.546 244.949 101.265 246.755 101.267H273.606C275.412 101.264 277.144 100.546 278.421 99.2697C279.698 97.9931 280.417 96.2622 280.419 94.4567V46.1224H280.881V38.1491H280.419V24.959C280.417 23.1536 279.698 21.4227 278.421 20.146C277.144 18.8694 275.412 18.1513 273.606 18.1492L246.755 18.1492Z" fill="#3F3D56"/>
<path d="M263.292 20.8726C263.637 20.8726 263.917 20.5932 263.917 20.2485C263.917 19.9038 263.637 19.6244 263.292 19.6244C262.948 19.6244 262.668 19.9038 262.668 20.2485C262.668 20.5932 262.948 20.8726 263.292 20.8726Z" fill="#3F3D56"/>
<path d="M127.467 141.148H57.5998C56.6076 141.146 55.6568 140.751 54.9551 140.049C54.2535 139.348 53.8581 138.398 53.8555 137.406V103.378C53.858 102.386 54.2533 101.436 54.9548 100.734C55.6563 100.033 56.6071 99.6379 57.5993 99.6353H127.466C128.459 99.6378 129.409 100.033 130.111 100.734C130.813 101.435 131.208 102.386 131.211 103.377V137.406C131.208 138.397 130.813 139.348 130.111 140.049C129.41 140.75 128.459 141.146 127.467 141.148Z" fill="white"/>
<path d="M127.467 141.148H57.5998C56.6076 141.146 55.6568 140.751 54.9551 140.049C54.2535 139.348 53.8581 138.398 53.8555 137.406V103.378C53.858 102.386 54.2533 101.436 54.9548 100.734C55.6563 100.033 56.6071 99.6379 57.5993 99.6353H127.466C128.459 99.6378 129.409 100.033 130.111 100.734C130.813 101.435 131.208 102.386 131.211 103.377V137.406C131.208 138.397 130.813 139.348 130.111 140.049C129.41 140.75 128.459 141.146 127.467 141.148ZM57.5998 100.679C56.8843 100.681 56.1987 100.966 55.6928 101.472C55.187 101.978 54.9019 102.663 54.8999 103.378V137.406C54.902 138.121 55.1872 138.806 55.6932 139.312C56.1991 139.817 56.8848 140.102 57.6003 140.104H127.466C128.181 140.102 128.867 139.817 129.373 139.311C129.879 138.806 130.164 138.12 130.166 137.405V103.378C130.164 102.663 129.879 101.977 129.373 101.472C128.867 100.966 128.181 100.681 127.466 100.679L57.5998 100.679Z" fill="#3F3D56"/>
<path d="M96.2768 136.119C82.4975 136.119 68.1294 135.988 62.7685 135.902C62.0632 135.888 61.3915 135.598 60.8969 135.096C60.4022 134.593 60.1238 133.917 60.1211 133.212V105.044C60.1214 104.791 60.2217 104.549 60.4001 104.371C60.5785 104.192 60.8205 104.091 61.0731 104.09H123.989C124.241 104.09 124.483 104.191 124.662 104.369C124.841 104.547 124.942 104.789 124.943 105.041V124.153C124.931 127.272 123.697 130.263 121.504 132.483C119.312 134.704 116.336 135.977 113.215 136.029C108.219 136.094 102.303 136.119 96.2768 136.119Z" fill="#F26D0C"/>
<path d="M120.252 122.397H63.4031C62.9271 122.396 62.463 122.248 62.074 121.974C61.6849 121.699 61.3897 121.312 61.2285 120.864L54.794 102.821C54.67 102.473 54.6314 102.1 54.6814 101.734C54.7313 101.368 54.8684 101.02 55.0811 100.718C55.2939 100.416 55.576 100.169 55.9039 99.9984C56.2317 99.8279 56.5957 99.7385 56.9653 99.7378L128.026 99.6389C128.364 99.6386 128.697 99.7123 129.004 99.8548C129.31 99.9974 129.581 100.205 129.798 100.464C130.015 100.723 130.173 101.026 130.26 101.352C130.347 101.678 130.362 102.02 130.302 102.352L130.357 102.375L130.153 102.851L130.151 102.856L122.373 120.998C122.195 121.413 121.9 121.767 121.523 122.016C121.146 122.265 120.704 122.397 120.252 122.397ZM128.029 100.683L56.9673 100.782C56.7649 100.782 56.5655 100.831 56.3859 100.924C56.2062 101.018 56.0517 101.153 55.9351 101.318C55.8186 101.484 55.7435 101.675 55.7161 101.875C55.6887 102.076 55.7099 102.28 55.7778 102.471L62.212 120.513C62.3005 120.759 62.4623 120.971 62.6755 121.121C62.8887 121.271 63.143 121.352 63.4039 121.353H120.252C120.499 121.353 120.741 121.281 120.948 121.144C121.154 121.008 121.316 120.814 121.413 120.587L129.191 102.445L129.574 102.609L129.191 102.445C129.274 102.252 129.307 102.043 129.289 101.834C129.27 101.626 129.2 101.426 129.085 101.251C128.97 101.076 128.813 100.933 128.629 100.834C128.444 100.735 128.238 100.683 128.029 100.683Z" fill="#3F3D56"/>
<path d="M92.428 126.324C94.8865 126.324 96.8795 124.332 96.8795 121.875C96.8795 119.418 94.8865 117.425 92.428 117.425C89.9695 117.425 87.9766 119.418 87.9766 121.875C87.9766 124.332 89.9695 126.324 92.428 126.324Z" fill="white"/>
<path d="M260.584 87.6969C263.043 87.6969 265.036 85.7048 265.036 83.2474C265.036 80.7901 263.043 78.798 260.584 78.798C258.126 78.798 256.133 80.7901 256.133 83.2474C256.133 85.7048 258.126 87.6969 260.584 87.6969Z" fill="white"/>
<path d="M428.946 147.787L417.055 136.052C416.476 135.476 415.789 135.021 415.034 134.711C414.278 134.401 413.469 134.243 412.652 134.246H412.611C411.788 134.249 410.974 134.414 410.215 134.733C409.457 135.052 408.769 135.518 408.193 136.104C405.534 138.794 404.022 142.409 403.974 146.19C403.926 149.971 405.347 153.623 407.937 156.379C408.062 156.514 408.193 156.645 408.323 156.775C409.046 157.494 409.845 158.133 410.704 158.681C413.055 160.199 415.797 161.002 418.595 160.993H418.684C420.605 160.986 422.506 160.599 424.276 159.854C426.046 159.108 427.651 158.019 428.998 156.65C430.165 155.467 430.815 153.869 430.805 152.208C430.795 150.546 430.127 148.956 428.946 147.787ZM428.256 155.914C426.049 158.137 423.142 159.532 420.026 159.863C416.909 160.193 413.774 159.44 411.148 157.731C410.397 157.234 409.696 156.666 409.054 156.034C406.492 153.505 405.04 150.062 405.017 146.462C404.995 142.863 406.404 139.402 408.934 136.84C409.415 136.351 409.989 135.961 410.622 135.695C411.255 135.429 411.934 135.291 412.621 135.29H412.652C413.332 135.288 414.006 135.419 414.635 135.677C415.264 135.935 415.836 136.314 416.318 136.793L428.209 148.533C429.194 149.506 429.752 150.83 429.761 152.214C429.769 153.598 429.228 154.928 428.256 155.914Z" fill="#3F3D56"/>
<path d="M389.929 109.274L378.038 97.5343C376.867 96.3735 375.284 95.724 373.635 95.7282H373.599C372.775 95.7315 371.96 95.8979 371.201 96.2177C370.441 96.5375 369.753 97.0045 369.176 97.5917C366.977 99.823 365.552 102.699 365.109 105.799C364.665 108.899 365.227 112.06 366.711 114.817L366.716 114.823C367.328 115.951 368.089 116.992 368.977 117.918C369.076 118.033 369.191 118.148 369.306 118.263C372.037 120.972 375.731 122.489 379.578 122.48H379.672C381.594 122.472 383.494 122.084 385.264 121.338C387.035 120.591 388.64 119.502 389.986 118.132C390.564 117.547 391.022 116.853 391.332 116.091C391.642 115.329 391.798 114.514 391.793 113.691C391.788 112.868 391.62 112.055 391.301 111.297C390.981 110.539 390.515 109.852 389.929 109.274V109.274ZM389.239 117.401C387.989 118.672 386.5 119.683 384.857 120.376C383.214 121.068 381.45 121.429 379.667 121.436H379.578C376.9 121.435 374.283 120.643 372.054 119.159C369.826 117.674 368.086 115.565 367.054 113.095C366.022 110.625 365.744 107.905 366.254 105.278C366.765 102.65 368.041 100.232 369.922 98.3277C370.896 97.3438 372.22 96.7863 373.605 96.7775C374.989 96.7687 376.321 97.3093 377.307 98.2807L389.198 110.015C390.181 110.99 390.738 112.315 390.746 113.7C390.754 115.084 390.212 116.415 389.239 117.401L389.239 117.401Z" fill="#3F3D56"/>
<path d="M429.707 151.476L416.597 138.534C415.738 137.687 414.577 137.216 413.37 137.223C412.163 137.231 411.009 137.716 410.16 138.574C409.098 139.646 408.257 140.918 407.687 142.315C407.117 143.712 406.828 145.208 406.836 146.717C406.845 148.227 407.151 149.719 407.737 151.11C408.323 152.501 409.177 153.763 410.252 154.823C411.326 155.884 412.599 156.722 413.997 157.29C415.396 157.859 416.893 158.146 418.403 158.136C419.912 158.126 421.405 157.818 422.796 157.231C424.187 156.644 425.448 155.788 426.508 154.713L429.707 151.476Z" fill="#F26D0C"/>
<path d="M390.691 112.961L377.582 100.019C376.722 99.1722 375.562 98.7009 374.355 98.7083C373.148 98.7158 371.993 99.2015 371.144 100.059C370.082 101.131 369.242 102.403 368.671 103.8C368.101 105.197 367.812 106.693 367.82 108.203C367.829 109.712 368.135 111.204 368.721 112.595C369.307 113.986 370.162 115.248 371.236 116.308C372.31 117.369 373.583 118.207 374.982 118.776C376.38 119.344 377.877 119.632 379.387 119.621C380.897 119.611 382.39 119.304 383.781 118.716C385.171 118.129 386.433 117.273 387.492 116.198L390.691 112.961Z" fill="#F26D0C"/>
<path d="M415.298 159.537L414.984 160.361C413.512 159.803 412.084 159.243 410.702 158.68C386.22 148.695 374.533 137.007 366.715 114.823L366.71 114.817C366.339 113.773 365.979 112.705 365.629 111.612L366.454 111.346C366.73 112.397 367.133 113.41 367.655 114.363C368.083 115.58 368.524 116.764 368.976 117.918C376.324 136.642 387.16 147.343 407.934 156.378C408.979 156.833 410.049 157.283 411.146 157.73C412.42 158.56 413.823 159.17 415.298 159.537Z" fill="#3F3D56"/>
<path d="M377.82 121.53L377.086 122.273L404.209 149.05L404.943 148.307L377.82 121.53Z" fill="#3F3D56"/>
<path d="M148.189 99.3428L148.203 82.1887L138.115 83.0898L141.675 93.9088L128.751 113.491C127.943 113.672 127.205 114.085 126.628 114.678C126.05 115.271 125.657 116.02 125.498 116.832C125.338 117.644 125.419 118.485 125.729 119.253C126.04 120.02 126.567 120.681 127.247 121.154C127.926 121.627 128.729 121.893 129.557 121.918C130.385 121.943 131.202 121.727 131.909 121.295C132.616 120.864 133.182 120.237 133.539 119.489C133.895 118.742 134.026 117.907 133.916 117.087L148.189 99.3428Z" fill="#FFB6B6"/>
</g>
<defs>
<clipPath id="clip0_576_1380">
<rect width="467" height="234" fill="white"/>
</clipPath>
</defs>
</svg>
