<svg width="296" height="250" viewBox="0 0 296 250" fill="none" xmlns="http://www.w3.org/2000/svg">
<path d="M284.541 204.567H10.6241C4.76608 204.567 0 199.801 0 193.943V160.975H295.165V193.943C295.165 199.801 290.399 204.567 284.541 204.567Z" fill="#E6E6E6"/>
<path d="M183.032 199.052H113.18V248.947H183.032V199.052Z" fill="#E6E6E6"/>
<path d="M187.236 242.644H108.98V248.947H187.236V242.644Z" fill="#E6E6E6"/>
<path d="M294.903 174.893H0V7.2908C0 3.27073 3.27073 0 7.2908 0H287.612C291.632 0 294.903 3.27073 294.903 7.2908V174.893Z" fill="#3F3D56"/>
<path d="M287.813 7.61545H6.82812V165.702H287.813V7.61545Z" fill="white"/>
<path d="M61.244 101.839C63.3946 100.062 66.0547 99.7315 67.1854 101.1C68.3161 102.469 67.4891 105.019 65.3375 106.796C64.4877 107.518 63.4775 108.026 62.3913 108.277L53.1841 115.691L49.7969 111.296L59.2332 104.454C59.685 103.434 60.3745 102.538 61.244 101.839H61.244Z" fill="#FFB6B6"/>
<path d="M8.02774 118.568C8.02307 118.24 8.02614 115.38 10.1436 113.572C12.5759 111.495 16.0081 112.336 17.2119 112.631C19.9927 113.312 20.2208 114.505 22.8322 115.73C27.718 118.023 21.5963 116.85 24.5035 116.114C25.5098 115.86 39.9869 114.856 43.5906 112.638C50.5992 108.324 55.3746 105.708 55.3746 105.708L58.4964 111.952C58.4964 111.952 53.9823 118.229 47.6291 122.879C41.1121 127.649 37.8536 130.033 32.9016 130.955C32.4751 131.034 21.9871 132.825 13.5398 126.514C11.6131 125.074 8.08275 122.437 8.02773 118.568L8.02774 118.568Z" fill="#31569A"/>
<path d="M17.711 102.689C23.7171 102.689 28.5861 97.8199 28.5861 91.8138C28.5861 85.8076 23.7171 80.9387 17.711 80.9387C11.7049 80.9387 6.83594 85.8076 6.83594 91.8138C6.83594 97.8199 11.7049 102.689 17.711 102.689Z" fill="#FFB6B6"/>
<path d="M102.884 164.877L91.6838 153.412L85.9023 159.443L94.2466 170.435L102.523 171.382L102.884 164.877Z" fill="#FFB6B6"/>
<path d="M38.932 143.379C39.587 143.433 41.6688 143.85 43.6585 142.755C45.0164 142.008 45.7129 140.897 45.9481 140.544C48.8662 136.161 60.0668 129.327 70.119 128.906C72.3954 128.811 73.8938 129.075 75.2557 129.785C77.1869 130.791 77.9578 132.233 80.4084 135.611C81.7489 137.459 83.2321 139.2 84.5888 141.036C92.5312 151.784 95.5422 152.628 95.2344 156.073C94.893 159.897 90.7697 163.524 88.0292 163.105C86.9069 162.934 86.4723 162.153 84.9728 160.573C80.5762 155.941 78.7573 156.797 75.6271 153.249C71.9726 149.107 72.451 145.672 70.5443 145.539C68.7762 145.416 68.0248 148.346 64.25 152.239C62.5227 154.02 61.2927 154.837 57.5454 157.437C42.9528 167.56 42.7199 168.272 39.775 169.079C38.4865 169.432 29.3415 171.939 26.0838 167.949C20.9859 161.706 33.0293 142.888 38.932 143.379V143.379Z" fill="#2F2E41"/>
<path d="M99.4622 167.467C100.286 167.098 101.249 166.665 101.559 165.671C101.769 164.998 101.648 164.168 101.214 163.594C100.714 162.933 99.9742 162.846 100.004 162.729C100.05 162.55 101.8 162.62 103.721 163.299C104.084 163.427 105.726 164.028 107.816 165.659C109.49 166.966 109.264 167.228 110.314 167.981C113.536 170.294 116.559 168.471 118.302 170.641C118.975 171.478 119.262 172.666 118.979 173.627C118.41 175.558 115.645 176.222 114.133 176.565C110.493 177.391 107.738 176.716 104.861 176.232C95.0766 174.583 89.5792 176.084 88.8434 173.818C88.7042 173.389 88.9304 173.425 89.6848 170.277C90.4294 167.17 90.405 166.316 91.0391 166.068C91.9937 165.693 92.6346 167.397 95.0392 167.98C97.1701 168.497 98.9284 167.707 99.4622 167.467H99.4622Z" fill="#2F2E41"/>
<path d="M82.9688 202.381L80.1391 186.606L71.9688 188.349L72.7007 202.131L79.0177 207.562L82.9688 202.381Z" fill="#FFB6B6"/>
<path d="M42.1265 148.681C42.638 149.094 44.1263 150.608 46.3874 150.82C47.9306 150.964 49.1307 150.436 49.5237 150.276C54.3994 148.288 67.5051 148.922 76.059 154.219C77.9961 155.418 79.0878 156.478 79.8161 157.83C80.8487 159.747 80.6769 161.373 80.8079 165.545C80.8795 167.826 81.1293 170.1 81.2209 172.38C81.7574 185.734 83.775 188.123 81.5854 190.801C79.156 193.773 73.7073 194.459 71.6748 192.574C70.8425 191.802 70.9211 190.912 70.5675 188.763C69.5307 182.461 67.545 182.148 66.9473 177.454C66.2494 171.974 68.574 169.401 67.0708 168.221C65.6768 167.126 63.4098 169.128 58.1005 170.23C55.6712 170.733 54.1946 170.719 49.6342 170.766C31.8747 170.948 31.2825 171.406 28.3923 170.42C27.1278 169.989 18.1529 166.928 17.6978 161.798C16.9856 153.769 37.5177 144.961 42.1265 148.681H42.1265Z" fill="#2F2E41"/>
<path d="M78.6851 202.602C79.5744 202.758 80.6142 202.941 81.4291 202.292C81.9804 201.853 82.3465 201.099 82.3098 200.381C82.2675 199.553 81.7041 199.065 81.7946 198.985C81.9324 198.863 83.3415 199.904 84.5499 201.545C84.7779 201.854 85.8 203.273 86.6129 205.796C87.2642 207.818 86.9307 207.908 87.3761 209.121C88.7435 212.844 92.2679 213.033 92.4925 215.807C92.5792 216.878 92.1492 218.022 91.3752 218.658C89.8208 219.936 87.1595 218.933 85.7162 218.368C82.2404 217.007 80.3392 214.902 78.2308 212.885C71.0607 206.027 65.6687 204.182 66.3327 201.894C66.4583 201.461 66.625 201.618 69.0171 199.436C71.3781 197.283 71.837 196.564 72.5015 196.714C73.5016 196.94 73.0753 198.71 74.7376 200.542C76.2106 202.166 78.1089 202.501 78.6851 202.602Z" fill="#2F2E41"/>
<path d="M19.196 93.8928C19.6194 92.3783 19.0876 91.8264 19.6296 91.1466C19.6296 91.1466 19.8477 90.8731 21.7976 90.1349C21.2223 86.7969 21.6531 86.2325 21.6531 86.2324C22.1496 85.5819 23.1441 85.4247 23.8211 85.5098C25.2531 85.6897 25.5065 86.9842 26.4228 86.9551C27.6885 86.915 29.2065 84.3814 28.7353 82.1855C28.351 80.3942 26.6937 79.0639 26.2782 79.2948C25.8663 79.5236 24.3835 78.5144 23.8211 78.7166C23.4371 78.8547 21.6294 78.671 21.2195 78.8612C20.7719 79.0688 19.49 80.3618 19.3674 80.1989C18.5157 79.0668 18.5339 78.6716 18.0397 78.4276C17.1642 77.9952 16.2123 78.7943 14.5709 79.5838C11.1938 81.2083 10.2049 80.2393 8.64498 81.6073C7.85699 82.2984 7.43444 83.6191 6.62149 86.2324C5.48459 89.8871 4.91615 91.7144 5.46522 93.4592C6.02516 95.2385 6.84975 94.8512 8.06684 97.3616C9.42165 100.156 8.9547 101.78 10.2349 102.42C11.2243 102.915 12.8143 102.6 13.4146 101.698C14.4425 100.153 11.7858 98.0623 12.692 95.6272C13.2482 94.1324 14.964 92.999 16.0163 93.3146C17.206 93.6715 17.2936 95.8047 18.0398 95.7717C18.6787 95.7435 19.1223 94.1567 19.196 93.8928H19.196Z" fill="#2F2E41"/>
<path d="M10.9559 104.299C13.1813 101.804 22.246 104.387 23.0968 108.346C23.4468 109.975 22.1549 110.663 22.5187 112.538C23.0508 115.281 26.0637 115.094 28.3001 117.886C31.475 121.849 28.2042 125.724 31.7689 132.339C32.5306 133.753 33.1727 134.944 34.5151 136.097C37.5955 138.743 40.4623 137.835 42.0309 140.288C43.2038 142.123 42.7219 144.384 42.609 144.914C42.1461 147.085 40.8915 147.615 40.0074 149.394C38.5365 152.355 40.2019 154.529 40.2965 158.066C40.4148 162.492 38.0627 168.628 33.3588 170.641C28.0742 172.902 21.7005 169.157 18.6162 165.438C16.7758 163.218 16.2416 161.171 15.4365 158.644C11.8381 147.352 9.80521 148.373 7.05344 139.421C3.90766 129.188 3.28924 117.199 7.05344 113.405C7.55237 112.902 8.92542 111.74 9.7996 109.647C10.9759 106.831 9.95969 105.416 10.9559 104.299L10.9559 104.299Z" fill="#F26D0C"/>
<path d="M43.8402 162.385C45.5656 164.577 45.833 167.245 44.4377 168.342C43.0423 169.44 40.513 168.553 38.7873 166.36C38.0859 165.493 37.6023 164.471 37.3769 163.379L30.1836 153.998L33.9005 151.163L41.274 160.313C42.2826 160.789 43.1626 161.499 43.8402 162.385H43.8402Z" fill="#FFB6B6"/>
<path d="M17.4963 113.809C17.8163 113.737 20.6169 113.157 22.8187 114.861C25.3479 116.818 25.2254 120.35 25.1825 121.588C25.0832 124.45 23.9619 124.916 23.2949 127.723C22.0469 132.974 24.4236 137.854 25.7366 140.55C26.1911 141.483 27.6513 144.338 30.5579 147.413C36.2109 153.394 41.2549 156.542 41.2549 156.542L35.8363 161.358C35.8363 161.358 27.205 158.727 21.3565 153.457C15.3573 148.05 6.13161 128.921 4.2191 124.261C4.05439 123.86 6.38741 130.384 10.842 120.826C11.8581 118.646 13.7198 114.652 17.4963 113.809H17.4963Z" fill="#31569A"/>
<path d="M156.177 109.322L149.707 106.257C152.361 109.96 154.647 115.744 155.871 120.346C157.944 116.059 161.285 110.814 164.592 107.68L157.755 109.439C161.968 88.7898 177.816 73.9653 195.963 73.9653L196.22 73.2194C177.264 73.2194 160.479 87.8384 156.177 109.322Z" fill="#3F3D56"/>
<path d="M185.952 140.785H145.074C143.34 140.785 141.93 139.375 141.93 137.641C141.93 135.907 143.34 134.496 145.074 134.496H185.952C187.686 134.496 189.097 135.907 189.097 137.641C189.097 139.375 187.686 140.785 185.952 140.785Z" fill="#F26D0C"/>
<path d="M240.347 140.785H199.469C197.735 140.785 196.324 139.375 196.324 137.641C196.324 135.907 197.735 134.496 199.469 134.496H240.347C242.081 134.496 243.491 135.907 243.491 137.641C243.491 139.375 242.081 140.785 240.347 140.785Z" fill="#E6E6E6"/>
<path d="M216.146 55.2428H176.411C175.409 55.2428 174.594 54.4277 174.594 53.4259C174.594 52.4241 175.409 51.6094 176.411 51.6094H216.146C217.148 51.6094 217.963 52.4241 217.963 53.4259C217.963 54.4277 217.148 55.2428 216.146 55.2428V55.2428Z" fill="#3F3D56"/>
<path d="M237.471 74.6257H155.09C154.089 74.6257 153.273 73.8106 153.273 72.8088C153.273 71.807 154.089 70.9923 155.09 70.9923H237.471C238.473 70.9923 239.287 71.8071 239.287 72.8088C239.287 73.8106 238.473 74.6257 237.471 74.6257Z" fill="#3F3D56"/>
<path d="M17.8633 249.412C17.8633 249.738 18.1254 250 18.4518 250H276.717C277.044 250 277.306 249.738 277.306 249.412C277.306 249.085 277.044 248.823 276.717 248.823H18.4518C18.1254 248.823 17.8633 249.085 17.8633 249.412Z" fill="#3F3D56"/>
<path d="M81.2789 109.923C81.2089 109.923 81.139 109.92 81.0687 109.916C76.9304 109.65 62.7702 107.646 54.3168 93.03C53.6201 91.8266 53.7574 90.2966 54.658 89.2233L70.3135 70.5704C70.9537 69.8076 71.9427 69.3681 72.9444 69.3802C73.6366 69.3967 75.2757 69.5715 75.5941 70.835C77.4747 78.3001 85.4161 87.0774 94.9667 88.2409C95.9348 88.3586 96.7119 89.2222 97.0455 90.551C97.3057 91.5854 97.0653 92.6517 96.3855 93.4765L83.8441 108.706C83.207 109.479 82.2721 109.923 81.2789 109.923V109.923ZM72.8842 70.1305C72.1192 70.1305 71.3751 70.4732 70.8887 71.0528L55.2333 89.7057C54.5347 90.5381 54.4276 91.7229 54.9665 92.6539C63.2336 106.948 77.0726 108.907 81.117 109.166C81.9429 109.222 82.736 108.87 83.2646 108.228L95.8061 92.9992C96.3327 92.3603 96.5189 91.5348 96.3175 90.7339C96.1206 89.9498 95.6384 89.0789 94.8758 88.9858C85.0096 87.7842 76.8074 78.7238 74.8661 71.0183C74.7088 70.3944 73.7622 70.1507 72.9288 70.1309C72.9139 70.1305 72.8991 70.1305 72.8842 70.1305H72.8842Z" fill="#3F3D56"/>
<path d="M63.801 93.6439L75.0879 82.1356C75.8595 81.349 74.6507 80.1383 73.8782 80.9259L62.5913 92.4342C61.8198 93.2209 63.0285 94.4316 63.801 93.6439Z" fill="#E6E6E6"/>
<path d="M70.6162 96.8862C73.7312 94.0942 76.4382 90.8614 78.6548 87.3141C79.2399 86.3777 77.7603 85.518 77.1775 86.4506C75.0346 89.8801 72.4176 92.9775 69.4065 95.6765C68.5849 96.4129 69.798 97.6195 70.6162 96.8862H70.6162Z" fill="#E6E6E6"/>
<path d="M76.7556 100.768C79.5917 97.6268 82.0059 94.1205 83.9066 90.3382C84.3997 89.357 82.9244 88.4898 82.4294 89.4747C80.593 93.1291 78.2867 96.5227 75.5459 99.5588C74.8097 100.374 76.0159 101.588 76.7556 100.768H76.7556Z" fill="#E6E6E6"/>
<path d="M71.9185 80.05C78.2032 80.05 83.298 75.0625 83.298 68.9103C83.298 62.758 78.2032 57.7706 71.9185 57.7706C65.6338 57.7706 60.5391 62.758 60.5391 68.9103C60.5391 75.0625 65.6338 80.05 71.9185 80.05Z" fill="#F26D0C"/>
<path d="M77.8377 74.1945C76.0876 69.8916 74.3375 65.5887 72.5874 61.2858C72.3457 60.6916 71.5885 60.6705 71.3526 61.2858C69.6233 65.7971 68.4933 70.5043 67.9501 75.3039C67.8576 76.1214 69.1388 76.1148 69.2306 75.3039C69.4432 73.4257 69.7588 71.5616 70.164 69.7174C71.6061 69.793 73.0601 69.6312 74.4517 69.246C75.1688 71.0089 75.8859 72.7719 76.6029 74.5349C76.9093 75.2882 78.1486 74.9587 77.8377 74.1945ZM70.4543 68.4514C70.8857 66.6859 71.4028 64.9414 72.0028 63.2249L73.9654 68.0502C72.8158 68.3519 71.6402 68.4861 70.4543 68.4514Z" fill="white"/>
</svg>
