<svg width="393" height="250" viewBox="0 0 393 250" fill="none" xmlns="http://www.w3.org/2000/svg">
<path d="M83.2404 58.8735L98.0761 79.1256C98.0761 79.1256 110.725 84.4444 125.508 95.1239L121.969 100.648C121.969 100.648 97.5687 90.6565 91.3244 86.4348L79.9219 68.5589L83.2404 58.8735Z" fill="#A0616A"/>
<path d="M134.38 104.933C135.796 102.861 134.115 99.2485 130.625 96.864C127.136 94.4794 123.159 94.226 121.743 96.2979C120.327 98.3698 122.008 101.982 125.498 104.367C128.987 106.751 132.964 107.005 134.38 104.933Z" fill="#A0616A"/>
<path d="M75.9883 41.5846L80.8434 40.2075C80.8434 40.2075 83.6695 40.2129 85.2639 42.9888C86.8583 45.7647 98.1471 70.5152 97.6121 71.474C97.077 72.4328 96.33 72.6447 97.2889 73.1798C98.2477 73.7148 99.1255 73.4436 98.472 74.2453C97.8185 75.0471 98.7217 76.8085 98.7217 76.8085L86.2675 85.9972L75.9883 41.5846V41.5846Z" fill="#31569A"/>
<path d="M57.1535 245.104L63.0767 245.103L65.8944 222.256L57.1523 222.257L57.1535 245.104Z" fill="#A0616A"/>
<path d="M77.4451 244.969C77.6295 245.28 77.7268 246.282 77.7268 246.643C77.7268 247.754 76.8267 248.654 75.7165 248.654H57.373C56.6156 248.654 56.0016 248.04 56.0016 247.282V246.519C56.0016 246.519 55.0941 244.223 56.9624 241.394C56.9624 241.394 59.2844 243.61 62.754 240.14L63.7772 238.286L71.1835 243.703L75.2887 244.208C76.1868 244.319 76.9831 244.191 77.4451 244.969V244.969Z" fill="#2F2E41"/>
<path d="M78.5898 239.331L84.4313 240.312L90.9954 218.248L82.374 216.8L78.5898 239.331Z" fill="#A0616A"/>
<path d="M98.6277 242.561C98.7581 242.898 98.688 243.903 98.6281 244.259C98.4442 245.354 97.4074 246.092 96.3125 245.908L78.2226 242.869C77.4756 242.744 76.9718 242.036 77.0973 241.289L77.2238 240.536C77.2238 240.536 76.7092 238.122 79.0204 235.642C79.0204 235.642 80.9433 238.211 84.9398 235.364L86.2559 233.706L92.6624 240.275L96.6272 241.453C97.4946 241.711 98.301 241.717 98.6277 242.561H98.6277Z" fill="#2F2E41"/>
<path d="M90.7309 122.1C90.7309 122.1 98.689 131.417 98.689 139.957C98.689 148.498 98.8831 175.326 98.8831 175.326C98.8831 175.326 94.2247 217.209 93.0601 220.703C91.8955 224.197 91.3132 230.02 91.3132 230.02L80.0553 227.303C80.0553 227.303 78.5025 187.9 83.1609 178.583L71.9031 146.751L68.0211 236.814H54.9521C54.9521 236.814 48.2228 189.453 51.7166 177.031C51.7166 177.031 43.9525 129.67 45.8936 126.953C47.8346 124.235 90.7309 122.1 90.7309 122.1Z" fill="#2F2E41"/>
<path d="M61.8091 29.3197L72.2905 30.0961L75.7843 35.9191C75.7843 35.9191 83.9366 39.413 85.1012 44.4596C86.2658 49.5062 86.654 108.513 86.654 108.513L92.477 117.053L92.0888 124.429L45.5046 126.758V119.667L41.2344 111.23C41.2344 111.23 45.8928 43.6832 47.0574 43.295C48.222 42.9068 57.1506 36.6955 57.1506 36.6955L61.8091 29.3197V29.3197Z" fill="#F26D0C"/>
<path d="M66.5543 27.8751C73.8439 27.8751 79.7532 21.9658 79.7532 14.6763C79.7532 7.38675 73.8439 1.47742 66.5543 1.47742C59.2648 1.47742 53.3555 7.38675 53.3555 14.6763C53.3555 21.9658 59.2648 27.8751 66.5543 27.8751Z" fill="#A0616A"/>
<path d="M77.0987 4.06006C76.4271 2.15528 74.5639 0.999684 72.5446 1.0447C72.459 1.04658 72.3736 1.04579 72.2889 1.04231C71.272 1.00073 70.2959 0.653415 69.2988 0.449663C67.4404 0.0698849 65.4809 0.197034 63.6872 0.813761C63.1297 1.00547 62.5714 1.24654 61.9819 1.24661C61.3923 1.24669 60.7501 0.9234 60.6063 0.351653C60.5721 0.869303 60.5381 1.38693 60.504 1.90455C60.3122 1.4856 60.1203 1.06661 59.9284 0.647639L59.5442 2.31847L58.3133 0.922081C58.4234 1.53756 58.0645 2.15789 57.5787 2.55139C57.0929 2.94492 56.4928 3.16259 55.9176 3.40776C53.4351 4.46594 51.1041 6.33945 50.3888 8.94159C49.9369 10.5856 50.1733 12.3304 50.4128 14.0185C50.6244 15.5108 50.8546 17.0547 51.6658 18.3251C52.1858 19.1394 52.9353 19.8247 53.2519 20.7376C53.547 21.5885 53.4352 22.5627 53.8551 23.3595C54.2768 24.1599 55.1473 24.6127 55.9993 24.9168C56.8512 25.221 57.7568 25.4361 58.4905 25.9653C59.2241 26.4945 60.0757 28.0191 61.6742 27.937L62.1901 26.9678C62.7208 26.5354 60.7567 26.8782 60.7362 26.1939C60.7157 25.5097 63.0995 25.0869 62.7616 24.4915C62.2435 23.5784 61.5426 22.7838 60.9587 21.9112C60.276 20.8907 59.739 19.6985 59.9746 18.453C60.0662 17.9685 60.293 17.5109 60.6384 17.1589C61.6341 16.1444 62.7443 16.5903 63.8232 16.7354C64.5668 16.8355 65.455 16.72 65.8412 16.0766C66.2929 15.3238 65.7894 14.3662 65.851 13.4905C65.9163 12.5626 66.6192 11.8017 67.3843 11.2727C68.1494 10.7437 69.0181 10.3583 69.7064 9.7326C70.3947 9.10688 70.885 8.12935 70.5849 7.24889C73.8474 5.8906 74.3469 5.76214 77.7825 6.59047C77.6187 5.73133 77.3895 4.88484 77.0987 4.06007L77.0987 4.06006Z" fill="#2F2E41"/>
<path d="M21.375 172.872V132.809C21.375 131.71 21.8434 130.659 22.66 129.924C23.4767 129.189 24.5715 128.833 25.6645 128.948C35.7895 127.586 45.3255 128.234 53.9677 131.933C54.9466 131.933 55.743 132.729 55.743 133.708V173.911C55.743 174.89 54.9466 175.686 53.9677 175.686C44.4546 173.455 34.4208 174.036 24.1889 175.686C22.6373 175.686 21.375 174.424 21.375 172.872Z" fill="#E6E6E6"/>
<path d="M21.375 176.439V135.952C21.375 133.811 23.1167 132.07 25.2575 132.07C34.9394 129.536 44.5096 129.532 53.9677 132.07C54.9466 132.07 55.743 132.866 55.743 133.845V173.636C55.743 174.614 54.949 175.409 53.972 175.412C44.6462 173.789 34.6563 175.369 24.1889 179.253C22.6373 179.253 21.375 177.99 21.375 176.439Z" fill="#F2F2F2"/>
<path d="M43.7312 148.801H34.6779C31.4265 148.801 28.7812 146.156 28.7812 142.904C28.7812 139.653 31.4265 137.008 34.6779 137.008H43.7312C46.9829 137.008 49.6282 139.653 49.6282 142.904C49.6282 146.156 46.9829 148.801 43.7312 148.801Z" fill="#E6E6E6"/>
<path d="M52.031 69.2805L51.6849 90.183C51.6849 90.183 50.5789 106.473 47.8322 124.805L41.2852 125.223C41.2852 125.223 42.0907 96.5994 41.7972 89.0676L42.2602 72.3388L52.031 69.2805H52.031Z" fill="#A0616A"/>
<path d="M45.1782 137.762C47.6862 137.677 49.603 134.183 49.4594 129.959C49.3158 125.735 47.1663 122.38 44.6583 122.466C42.1503 122.551 40.2336 126.044 40.3772 130.268C40.5207 134.492 42.6702 137.847 45.1782 137.762Z" fill="#A0616A"/>
<path d="M51.9275 42.6694L46.8842 42.8531C46.8842 42.8531 44.1969 43.7278 43.534 46.8597C42.8712 49.9915 38.2247 82.4028 39.0288 83.1505C39.833 83.8981 40.6089 83.8698 39.8612 84.674C39.1136 85.4781 38.1949 85.4902 39.0634 86.0519C39.9319 86.6137 39.6146 88.5676 39.6146 88.5676L53.5631 87.5793L51.9275 42.6694Z" fill="#31569A"/>
<path d="M384.67 229.418H250.484C249.706 229.418 248.935 229.299 248.193 229.064L248.114 229.033C206.097 208.151 170.073 196.754 137.984 194.19L137.862 194.166C134.687 193.162 132.555 190.25 132.555 186.921V7.60554C132.555 5.15704 133.688 2.92268 135.663 1.4757C137.638 0.0287068 140.11 -0.37732 142.445 0.360395L248.524 33.9135C249.159 34.1145 249.819 34.2162 250.484 34.2162H384.67C388.86 34.2162 392.269 37.6252 392.269 41.8151V221.819C392.269 226.009 388.86 229.418 384.67 229.418ZM248.564 228.029C249.187 228.221 249.832 228.319 250.484 228.319H384.67C388.254 228.319 391.169 225.403 391.169 221.819V41.8151C391.169 38.2312 388.254 35.3154 384.67 35.3154H250.484C249.706 35.3154 248.936 35.1966 248.193 34.9618L142.114 1.40861C140.116 0.776353 138.002 1.12468 136.313 2.36235C134.623 3.60029 133.654 5.51127 133.654 7.60554V186.921C133.654 189.749 135.452 192.223 138.135 193.1C170.341 195.685 206.464 207.11 248.564 228.029L248.564 228.029Z" fill="#3F3D56"/>
<path d="M254.07 221.275C290.657 208.328 331.474 209.815 374.835 219.984C380.278 221.261 385.497 217.162 385.497 211.571V47.728C385.497 43.7493 382.784 40.2705 378.92 39.3254C333.177 28.1396 290.451 26.0816 252.798 39.3735C250.04 40.3472 246.978 39.8197 244.65 38.0478C212.921 13.8951 180.449 1.78509 147.007 5.38084C142.632 5.85124 139.332 9.57962 139.332 13.9797V179.609C139.332 184.044 142.688 187.752 147.099 188.211C183.094 191.955 216.17 203.301 246.93 220.676C249.108 221.906 251.712 222.11 254.07 221.275Z" fill="#F2F2F2"/>
<path d="M252.895 212.087C250.403 212.087 247.949 211.402 245.786 210.06C219.953 194.015 191.808 184.643 162.133 182.202C155.176 181.629 149.727 175.695 149.727 168.692V27.2172C149.727 19.956 155.358 14.0062 162.547 13.6721C184.152 12.6647 210.385 22.2995 245.099 43.9826C248.036 45.8163 251.606 46.3608 254.897 45.4785C287.888 36.6226 323.65 36.364 364.229 44.6876C370.529 45.98 375.101 51.5716 375.101 57.9835V196.076C375.101 200.243 373.227 204.114 369.959 206.695C366.667 209.295 362.431 210.228 358.336 209.253C319.949 200.116 286.987 200.777 257.563 211.273C256.035 211.818 254.457 212.087 252.895 212.087ZM165.631 14.7004C164.608 14.7004 163.6 14.7235 162.598 14.7702C155.997 15.0769 150.826 20.5442 150.826 27.2172V168.692C150.826 175.127 155.832 180.58 162.223 181.106C192.073 183.562 220.383 192.989 246.366 209.126C249.599 211.134 253.546 211.539 257.193 210.238L257.378 210.755L257.193 210.238C286.823 199.668 319.99 198.996 358.591 208.184C362.356 209.08 366.251 208.223 369.278 205.832C372.28 203.461 374.002 199.905 374.002 196.076V57.9835C374.002 52.0911 369.799 46.9523 364.008 45.7643C323.601 37.4752 288.004 37.7291 255.182 46.5401C251.597 47.5014 247.711 46.9096 244.517 44.9149C211.619 24.3664 186.427 14.7004 165.631 14.7004Z" fill="white"/>
<path d="M250.4 46.2994L249.301 46.3095L250.83 211.836L251.929 211.826L250.4 46.2994Z" fill="white"/>
<path d="M160.443 35.3759L160.098 36.4192L237.06 61.8845L237.405 60.8412L160.443 35.3759Z" fill="#3F3D56"/>
<path d="M160.443 55.7483L160.098 56.7916L237.06 82.257L237.405 81.2136L160.443 55.7483Z" fill="#3F3D56"/>
<path d="M160.443 76.1205L160.098 77.1638L237.06 102.629L237.405 101.586L160.443 76.1205Z" fill="#3F3D56"/>
<path d="M160.443 96.4926L160.098 97.5359L237.06 123.001L237.405 121.958L160.443 96.4926Z" fill="#3F3D56"/>
<path d="M361.163 61.9452H268.922V63.0444H361.163V61.9452Z" fill="#3F3D56"/>
<path d="M361.163 81.1857H268.922V82.2849H361.163V81.1857Z" fill="#3F3D56"/>
<path d="M361.163 100.426H268.922V101.525H361.163V100.426Z" fill="#3F3D56"/>
<path d="M361.163 119.667H268.922V120.766H361.163V119.667Z" fill="#3F3D56"/>
<path d="M361.163 138.907H268.922V140.006H361.163V138.907Z" fill="#3F3D56"/>
<path d="M361.163 158.148H268.922V159.247H361.163V158.148Z" fill="#3F3D56"/>
<path d="M29.8206 240.474C28.6852 240.545 28.0577 239.134 28.9167 238.312L29.0021 237.972C28.9909 237.945 28.9796 237.918 28.9682 237.891C27.8199 235.153 23.9284 235.172 22.7899 237.914C21.7794 240.347 20.4929 242.785 20.1762 245.359C20.0342 246.494 20.098 247.652 20.3501 248.766C17.9824 243.594 16.7364 237.947 16.7364 232.267C16.7364 230.84 16.8145 229.413 16.9742 227.989C17.1056 226.825 17.2866 225.668 17.5209 224.521C18.7882 218.323 21.5322 212.42 25.4902 207.489C27.3929 206.449 28.9796 204.824 29.9381 202.875C30.2824 202.172 30.5522 201.416 30.68 200.645C30.4634 200.674 29.8635 197.376 30.0268 197.174C29.725 196.716 29.1849 196.488 28.8554 196.041C27.2163 193.819 24.9581 194.207 23.7792 197.227C21.2608 198.498 21.2364 200.606 22.7817 202.633C23.7648 203.923 23.8999 205.668 24.7625 207.049C24.6737 207.163 24.5814 207.273 24.4927 207.387C22.8653 209.474 21.4577 211.717 20.2712 214.074C20.6065 211.455 20.1114 208.299 19.2674 206.265C18.3066 203.947 16.5057 201.995 14.9198 199.991C13.0149 197.584 9.10872 198.635 8.77311 201.686C8.76986 201.715 8.7667 201.745 8.7636 201.774C8.99915 201.907 9.22992 202.048 9.45534 202.197C10.7411 203.048 10.2968 205.041 8.77325 205.276L8.73876 205.281C8.82396 206.13 8.9695 206.971 9.18247 207.798C7.14797 215.666 11.5403 218.532 17.812 218.661C17.9504 218.732 18.0853 218.803 18.2238 218.87C17.5884 220.659 17.0807 222.494 16.7045 224.354C16.3672 225.998 16.1329 227.659 16.0016 229.328C15.8383 231.433 15.8525 233.548 16.03 235.65L16.0194 235.575C15.5686 233.261 14.3119 231.099 12.4873 229.601C9.76921 227.368 5.92905 226.546 2.9967 224.751C1.58515 223.887 -0.223646 225.004 0.0227063 226.64L0.0346986 226.719C0.471316 226.896 0.897277 227.102 1.30906 227.333C1.54462 227.466 1.77538 227.607 2.0008 227.756C3.28658 228.606 2.84222 230.599 1.31871 230.835L1.28419 230.84C1.25935 230.843 1.23804 230.847 1.21323 230.851C1.96223 232.629 3.00584 234.28 4.31216 235.703C5.58428 242.572 11.0481 243.223 16.8926 241.223H16.8962C17.5351 244.006 18.4687 246.725 19.6685 249.317H29.5724C29.6079 249.207 29.6399 249.093 29.6718 248.983C28.756 249.04 27.833 248.986 26.9314 248.82C27.6662 247.918 28.401 247.009 29.1358 246.108C29.1535 246.09 29.1678 246.072 29.1819 246.054C29.5547 245.593 29.931 245.135 30.3037 244.673L30.3039 244.673C30.3272 243.256 30.1574 241.844 29.8209 240.474L29.8206 240.474Z" fill="#F2F2F2"/>
<path d="M140.594 249.346C140.594 249.709 140.303 250 139.94 250H0.732147C0.369429 250 0.078125 249.709 0.078125 249.346C0.078125 248.983 0.369429 248.692 0.732147 248.692H139.94C140.303 248.692 140.594 248.983 140.594 249.346Z" fill="#CCCCCC"/>
<path d="M365.039 214.579C372.021 214.579 377.68 208.919 377.68 201.938C377.68 194.957 372.021 189.297 365.039 189.297C358.058 189.297 352.398 194.957 352.398 201.938C352.398 208.919 358.058 214.579 365.039 214.579Z" fill="#F26D0C"/>
<path d="M370.961 201.462L363.117 196.933C362.751 196.721 362.293 196.986 362.293 197.409V201.388H359.94C359.637 201.388 359.391 201.634 359.391 201.938C359.391 202.241 359.637 202.488 359.94 202.488H362.293V206.467C362.293 206.89 362.751 207.154 363.117 206.943L370.961 202.414C371.327 202.202 371.327 201.674 370.961 201.462Z" fill="white"/>
<path d="M185.034 166.306C185.526 160.673 187.865 155.291 191.608 151.056C195.254 146.931 200.238 144.101 205.613 142.948C208.613 142.305 211.721 142.179 214.759 142.613C215.487 142.716 215.467 143.871 214.732 143.766C209.561 143.028 204.216 143.93 199.57 146.318C194.807 148.765 190.995 152.746 188.64 157.546C187.294 160.291 186.454 163.287 186.188 166.333C186.123 167.07 184.969 167.048 185.034 166.306Z" fill="white"/>
<path d="M213.478 137.981L222.361 142.363C222.684 142.523 222.737 143.049 222.463 143.276L214.054 150.227C213.485 150.697 212.684 149.866 213.257 149.392L221.666 142.441L221.768 143.354L212.885 138.971C212.218 138.642 212.817 137.654 213.478 137.981Z" fill="white"/>
</svg>
