<svg width="346" height="250" viewBox="0 0 346 250" fill="none" xmlns="http://www.w3.org/2000/svg">
<path d="M220.787 187.417V247.682H69.8008C52.598 247.682 38.6016 234.164 38.6016 217.55C38.6016 200.935 52.5979 187.417 69.8008 187.417H220.787Z" fill="#F2F2F2"/>
<path d="M224.494 247.219C224.494 247.833 224.25 248.423 223.815 248.857C223.381 249.292 222.791 249.536 222.177 249.536H67.1104C58.6885 249.536 50.6115 246.191 44.6563 240.236C38.7011 234.28 35.3555 226.203 35.3555 217.782C35.3555 209.36 38.7011 201.283 44.6563 195.327C50.6115 189.372 58.6885 186.027 67.1104 186.027H222.177C222.791 186.027 223.381 186.271 223.816 186.705C224.25 187.14 224.494 187.73 224.494 188.344C224.494 188.959 224.25 189.549 223.816 189.983C223.381 190.418 222.791 190.662 222.177 190.662H67.1104C59.918 190.662 53.0201 193.52 47.9343 198.605C42.8484 203.691 39.9912 210.589 39.9912 217.782C39.9912 224.974 42.8484 231.872 47.9343 236.958C53.0201 242.043 59.918 244.901 67.1104 244.901H222.177C222.791 244.901 223.381 245.145 223.815 245.58C224.25 246.014 224.494 246.604 224.494 247.219Z" fill="#F26D0C"/>
<path d="M220.785 201.325H58.5339C58.4109 201.325 58.293 201.276 58.2061 201.189C58.1192 201.102 58.0703 200.984 58.0703 200.861C58.0703 200.738 58.1192 200.62 58.2061 200.533C58.293 200.446 58.4109 200.397 58.5339 200.397H220.785C220.908 200.397 221.026 200.446 221.113 200.533C221.2 200.62 221.249 200.738 221.249 200.861C221.249 200.984 221.2 201.102 221.113 201.189C221.026 201.276 220.908 201.325 220.785 201.325Z" fill="#CCCCCC"/>
<path d="M220.785 212.45H58.5339C58.4109 212.45 58.293 212.401 58.2061 212.315C58.1192 212.228 58.0703 212.11 58.0703 211.987C58.0703 211.864 58.1192 211.746 58.2061 211.659C58.293 211.572 58.4109 211.523 58.5339 211.523H220.785C220.908 211.523 221.026 211.572 221.113 211.659C221.2 211.746 221.249 211.864 221.249 211.987C221.249 212.11 221.2 212.228 221.113 212.315C221.026 212.401 220.908 212.45 220.785 212.45Z" fill="#CCCCCC"/>
<path d="M220.785 223.576H58.5339C58.4109 223.576 58.293 223.527 58.2061 223.44C58.1192 223.353 58.0703 223.236 58.0703 223.113C58.0703 222.99 58.1192 222.872 58.2061 222.785C58.293 222.698 58.4109 222.649 58.5339 222.649H220.785C220.908 222.649 221.026 222.698 221.113 222.785C221.2 222.872 221.249 222.99 221.249 223.113C221.249 223.236 221.2 223.353 221.113 223.44C221.026 223.527 220.908 223.576 220.785 223.576Z" fill="#CCCCCC"/>
<path d="M220.785 234.702H58.5339C58.4109 234.702 58.293 234.653 58.2061 234.566C58.1192 234.479 58.0703 234.361 58.0703 234.238C58.0703 234.115 58.1192 233.998 58.2061 233.911C58.293 233.824 58.4109 233.775 58.5339 233.775H220.785C220.908 233.775 221.026 233.824 221.113 233.911C221.2 233.998 221.249 234.115 221.249 234.238C221.249 234.361 221.2 234.479 221.113 234.566C221.026 234.653 220.908 234.702 220.785 234.702Z" fill="#CCCCCC"/>
<path d="M337.473 198.761L299.662 245.688L182.092 150.957C168.697 140.163 166.279 120.855 176.704 107.918C187.128 94.9805 206.508 93.2361 219.904 104.03L337.473 198.761Z" fill="#F2F2F2"/>
<path d="M302.841 247.654C302.456 248.133 301.896 248.438 301.284 248.504C300.673 248.57 300.061 248.39 299.582 248.005L178.835 150.713C172.277 145.429 168.087 137.756 167.186 129.383C166.285 121.009 168.748 112.62 174.032 106.062C179.316 99.5045 186.989 95.3142 195.363 94.4134C203.736 93.5126 212.125 95.9752 218.683 101.259L339.43 198.551C339.667 198.742 339.864 198.978 340.01 199.245C340.156 199.512 340.248 199.805 340.281 200.108C340.314 200.411 340.286 200.717 340.201 201.009C340.115 201.302 339.972 201.574 339.781 201.811C339.59 202.048 339.354 202.245 339.087 202.391C338.82 202.537 338.526 202.629 338.224 202.661C337.921 202.694 337.615 202.666 337.323 202.58C337.03 202.495 336.758 202.352 336.521 202.161L215.774 104.869C213.001 102.633 209.815 100.965 206.397 99.9606C202.979 98.9562 199.397 98.635 195.855 99.0153C192.314 99.3956 188.881 100.47 185.755 102.177C182.628 103.884 179.869 106.191 177.633 108.964C175.398 111.738 173.732 114.925 172.729 118.343C171.726 121.761 171.406 125.344 171.788 128.885C172.169 132.427 173.245 135.859 174.953 138.985C176.662 142.111 178.969 144.869 181.744 147.103L302.491 244.395C302.969 244.781 303.275 245.341 303.341 245.952C303.406 246.563 303.227 247.176 302.841 247.654Z" fill="#CCCCCC"/>
<path d="M328.749 209.591L202.407 107.791C202.36 107.752 202.32 107.705 202.291 107.652C202.262 107.598 202.244 107.54 202.237 107.479C202.231 107.419 202.236 107.358 202.253 107.299C202.27 107.241 202.299 107.186 202.337 107.139C202.375 107.091 202.422 107.052 202.476 107.023C202.529 106.994 202.588 106.975 202.648 106.969C202.709 106.962 202.77 106.968 202.829 106.985C202.887 107.002 202.941 107.031 202.989 107.069L329.331 208.869C329.378 208.907 329.418 208.954 329.447 209.008C329.476 209.061 329.495 209.12 329.501 209.18C329.508 209.241 329.503 209.302 329.485 209.361C329.468 209.419 329.44 209.474 329.401 209.521C329.363 209.568 329.316 209.608 329.263 209.637C329.209 209.666 329.15 209.685 329.09 209.691C329.029 209.698 328.968 209.692 328.91 209.675C328.851 209.658 328.797 209.629 328.749 209.591V209.591Z" fill="#CCCCCC"/>
<path d="M321.768 218.254L195.426 116.454C195.331 116.377 195.27 116.265 195.257 116.143C195.243 116.021 195.279 115.898 195.357 115.803C195.434 115.707 195.545 115.646 195.668 115.633C195.79 115.619 195.912 115.655 196.008 115.732L322.35 217.532C322.397 217.57 322.437 217.618 322.466 217.671C322.495 217.724 322.514 217.783 322.52 217.844C322.527 217.904 322.522 217.966 322.504 218.024C322.487 218.082 322.459 218.137 322.421 218.184C322.382 218.232 322.335 218.271 322.282 218.3C322.228 218.33 322.169 218.348 322.109 218.355C322.048 218.361 321.987 218.355 321.929 218.338C321.87 218.321 321.816 218.292 321.768 218.254Z" fill="#CCCCCC"/>
<path d="M314.788 226.918L188.446 125.118C188.35 125.04 188.289 124.928 188.276 124.806C188.263 124.684 188.299 124.561 188.376 124.466C188.453 124.37 188.565 124.309 188.687 124.296C188.81 124.283 188.932 124.318 189.028 124.396L315.37 226.196C315.417 226.234 315.457 226.281 315.486 226.334C315.515 226.388 315.534 226.447 315.54 226.507C315.547 226.568 315.541 226.629 315.524 226.687C315.507 226.746 315.478 226.8 315.44 226.848C315.402 226.895 315.355 226.934 315.301 226.964C315.248 226.993 315.189 227.011 315.129 227.018C315.068 227.024 315.007 227.019 314.949 227.001C314.89 226.984 314.836 226.956 314.788 226.918V226.918Z" fill="#CCCCCC"/>
<path d="M307.804 235.581L181.462 133.781C181.414 133.743 181.375 133.696 181.346 133.642C181.317 133.589 181.298 133.53 181.292 133.47C181.285 133.409 181.291 133.348 181.308 133.29C181.325 133.231 181.353 133.177 181.392 133.129C181.43 133.082 181.477 133.042 181.53 133.013C181.584 132.984 181.643 132.966 181.703 132.959C181.764 132.953 181.825 132.958 181.883 132.975C181.942 132.992 181.996 133.021 182.044 133.059L308.386 234.859C308.433 234.897 308.473 234.944 308.502 234.998C308.531 235.051 308.55 235.11 308.556 235.171C308.563 235.231 308.557 235.292 308.54 235.351C308.523 235.409 308.494 235.464 308.456 235.511C308.418 235.559 308.371 235.598 308.317 235.627C308.264 235.657 308.205 235.675 308.145 235.681C308.084 235.688 308.023 235.682 307.964 235.665C307.906 235.648 307.851 235.619 307.804 235.581Z" fill="#CCCCCC"/>
<path d="M345.433 250H1.45967C1.33672 250 1.21881 249.951 1.13187 249.864C1.04493 249.777 0.996094 249.659 0.996094 249.536C0.996094 249.414 1.04493 249.296 1.13187 249.209C1.21881 249.122 1.33672 249.073 1.45967 249.073H345.433C345.556 249.073 345.674 249.122 345.761 249.209C345.848 249.296 345.897 249.414 345.897 249.536C345.897 249.659 345.848 249.777 345.761 249.864C345.674 249.951 345.556 250 345.433 250Z" fill="#CCCCCC"/>
<path d="M157.722 181.083L152.423 181.082L149.902 160.641L157.724 160.642L157.722 181.083Z" fill="#FFB8B8"/>
<path d="M148.638 179.568H158.859V186.004H142.203C142.203 185.158 142.37 184.322 142.693 183.541C143.016 182.76 143.49 182.051 144.088 181.453C144.686 180.856 145.395 180.382 146.176 180.058C146.957 179.735 147.793 179.568 148.638 179.568Z" fill="#2F2E41"/>
<path d="M103.578 181.083L98.2783 181.082L95.7578 160.641L103.58 160.642L103.578 181.083Z" fill="#FFB8B8"/>
<path d="M94.4939 179.568H104.715V186.004H88.0586C88.0586 185.158 88.2251 184.322 88.5485 183.541C88.8719 182.76 89.3459 182.051 89.9435 181.453C90.541 180.856 91.2505 180.382 92.0312 180.058C92.812 179.735 93.6488 179.568 94.4939 179.568Z" fill="#2F2E41"/>
<path d="M121.281 29.4524V27.1345C121.281 23.1695 122.856 19.3668 125.66 16.5631C128.464 13.7593 132.266 12.1842 136.232 12.1842H136.232C140.197 12.1842 143.999 13.7593 146.803 16.5631C149.607 19.3668 151.182 23.1695 151.182 27.1345V29.4524C151.182 32.311 150.046 35.0524 148.025 37.0737C146.004 39.095 143.262 40.2306 140.404 40.2306H132.059C130.644 40.2306 129.242 39.9518 127.935 39.4102C126.627 38.8685 125.439 38.0746 124.438 37.0737C123.437 36.0729 122.643 34.8847 122.102 33.5771C121.56 32.2694 121.281 30.8678 121.281 29.4524Z" fill="#2F2E41"/>
<path d="M136.23 41.0281C142.518 41.0281 147.616 35.9305 147.616 29.6422C147.616 23.3539 142.518 18.2563 136.23 18.2563C129.941 18.2563 124.844 23.3539 124.844 29.6422C124.844 35.9305 129.941 41.0281 136.23 41.0281Z" fill="#FFB8B8"/>
<path d="M74.3007 68.7741C74.7627 68.3378 75.3148 68.0081 75.9181 67.8082C76.5213 67.6084 77.1611 67.5433 77.7922 67.6174C78.4234 67.6915 79.0306 67.9032 79.5711 68.2373C80.1116 68.5715 80.5723 69.0202 80.9207 69.5517L90.6811 67.7054L93.2497 73.3632L79.4295 75.7769C78.4978 76.3029 77.4056 76.4689 76.3597 76.2435C75.3138 76.018 74.3869 75.4167 73.7547 74.5535C73.1225 73.6903 72.8289 72.6252 72.9295 71.56C73.0302 70.4949 73.518 69.5036 74.3007 68.7741V68.7741Z" fill="#FFB8B8"/>
<path d="M127.353 48.1986L127.481 48.392L111.476 58.9357L84.4685 67.5597C84.1105 67.6748 83.8035 67.9103 83.5996 68.2263C83.3957 68.5423 83.3076 68.9191 83.3504 69.2927L83.9395 74.3673C83.9657 74.5919 84.0384 74.8086 84.1532 75.0034C84.268 75.1982 84.4222 75.3669 84.6059 75.4986C84.7897 75.6304 84.999 75.7223 85.2203 75.7684C85.4417 75.8146 85.6702 75.814 85.8913 75.7666L111.309 70.3183C112.539 70.0562 113.702 69.5441 114.726 68.8138L132.707 56.0205C133.359 55.5542 133.879 54.9272 134.217 54.2003C134.555 53.4735 134.699 52.6716 134.635 51.8727C134.569 51.0727 134.296 50.3036 133.843 49.6411C133.389 48.9786 132.771 48.4455 132.05 48.0943C131.328 47.7431 130.527 47.5859 129.726 47.6381C128.925 47.6903 128.151 47.9501 127.481 48.392L127.353 48.1986Z" fill="#CCCCCC"/>
<path d="M152.52 175.282C152.113 175.282 151.715 175.164 151.374 174.941C151.034 174.719 150.765 174.402 150.602 174.03L126.306 113.996C126.249 113.866 126.154 113.756 126.033 113.682C125.912 113.607 125.771 113.572 125.629 113.58C125.487 113.588 125.351 113.639 125.239 113.727C125.128 113.814 125.045 113.934 125.004 114.07L105.182 172.514C105.098 172.786 104.96 173.038 104.775 173.255C104.59 173.471 104.363 173.648 104.108 173.773C103.853 173.899 103.574 173.971 103.29 173.985C103.006 173.999 102.722 173.955 102.455 173.855L95.8083 171.362C95.4476 171.228 95.131 170.996 94.8939 170.693C94.6569 170.39 94.5085 170.027 94.4654 169.645C91.4751 143.595 117.551 77.8429 117.815 77.1819L117.888 76.9988L141.659 82.257L141.709 82.3109C151.192 92.6569 158.988 157.912 160.454 170.888C160.509 171.357 160.402 171.83 160.152 172.23C159.901 172.63 159.522 172.933 159.077 173.088L153.21 175.163C152.988 175.242 152.755 175.282 152.52 175.282Z" fill="#2F2E41"/>
<path d="M132.039 84.3734C126.28 84.3734 119.859 83.2252 117.882 78.4857L117.837 78.3768L117.898 78.2759C119.458 75.7162 121.52 71.3499 120.412 70.5302C118.229 68.9161 117.17 66.2607 117.264 62.6377C117.468 54.7727 122.827 47.7899 130.599 45.2617H130.599C132.768 44.5675 134.976 43.999 137.211 43.5593C138.84 43.2305 140.522 43.2667 142.136 43.6652C143.749 44.0637 145.255 44.8146 146.544 45.864C147.849 46.9204 148.904 48.2526 149.633 49.7652C150.362 51.2777 150.747 52.933 150.76 54.612C150.842 63.017 149.548 74.7235 142.92 82.7604C142.61 83.1333 142.178 83.3847 141.7 83.4703C138.511 84.047 135.279 84.3492 132.039 84.3734Z" fill="#CCCCCC"/>
<path d="M129.893 84.0588C130.206 82.9345 130.951 81.9793 131.964 81.4008C132.978 80.8223 134.179 80.6673 135.307 80.9694C135.537 81.0338 135.761 81.1169 135.978 81.218L143.389 74.4735L148.543 77.9458L137.945 87.3244C137.466 88.1872 136.713 88.8652 135.804 89.2505C134.896 89.6358 133.885 89.7063 132.932 89.4506C132.377 89.2987 131.857 89.0382 131.403 88.6843C130.95 88.3303 130.57 87.89 130.288 87.3886C130.005 86.8872 129.825 86.3348 129.757 85.7632C129.689 85.1917 129.735 84.6124 129.893 84.0588Z" fill="#FFB8B8"/>
<path d="M142.219 84.1444C141.738 84.1447 141.272 83.9784 140.9 83.6738L137.977 81.2855C137.733 81.0864 137.538 80.8348 137.405 80.5494C137.273 80.2641 137.206 79.9525 137.211 79.6379C137.216 79.3234 137.292 79.0139 137.433 78.7329C137.575 78.4518 137.778 78.2063 138.028 78.0149L150.285 68.6137C150.431 68.5017 150.526 68.3369 150.55 68.1551C150.575 67.9733 150.527 67.7892 150.417 67.6426L142.851 57.6404C141.972 56.4822 141.531 55.0503 141.606 53.5983C141.682 52.1463 142.268 50.7677 143.262 49.7066C144.309 48.5759 145.743 47.8801 147.279 47.7572C148.815 47.6344 150.341 48.0935 151.555 49.0434L151.603 49.0939L159.503 60.4062C160.357 61.0761 161.045 61.9343 161.513 62.9139C161.981 63.8936 162.215 64.9681 162.199 66.0535C162.183 67.139 161.916 68.206 161.42 69.1713C160.923 70.1366 160.21 70.974 159.336 71.6181L143.46 83.7353C143.101 84.001 142.666 84.1444 142.219 84.1444Z" fill="#CCCCCC"/>
<path d="M126.148 26.4392V20.79L136.234 16.386L145.85 20.79V26.4392C145.85 26.6851 145.753 26.9209 145.579 27.0948C145.405 27.2686 145.169 27.3663 144.923 27.3663H127.076C126.83 27.3663 126.594 27.2686 126.42 27.0948C126.246 26.9209 126.148 26.6851 126.148 26.4392Z" fill="#2F2E41"/>
<path d="M135.768 12.9336C134.285 8.18726 137.399 2.74774 142.003 0.869024C146.607 -1.0097 152.115 0.303587 156 3.40752C159.885 6.51144 162.295 11.1605 163.572 15.9663C164.85 20.7721 165.092 25.7834 165.328 30.7504C170.984 31.7895 174.832 38.4987 172.873 43.9059C170.913 49.3131 163.66 51.9994 158.651 49.1732C153.642 46.347 152.191 38.7499 155.807 34.2768C157.517 32.1602 158.473 29.5335 158.522 26.8125C158.571 24.0916 157.711 21.4321 156.078 19.2551C154.445 17.0781 152.132 15.5082 149.506 14.794C146.88 14.0798 144.091 14.2621 141.58 15.312C138.793 16.4779 135.295 13.4487 135.768 12.9336Z" fill="#2F2E41"/>
<path d="M72.2086 46.8596C65.436 46.8151 58.7482 45.3503 52.577 42.5599C52.2097 42.3962 51.8979 42.1292 51.6796 41.7914C51.4613 41.4536 51.346 41.0596 51.3477 40.6574V23.7749C51.3483 23.2219 51.5683 22.6916 51.9594 22.3005C52.3504 21.9094 52.8807 21.6895 53.4338 21.6888H90.9834C91.5365 21.6895 92.0667 21.9094 92.4578 22.3005C92.8489 22.6916 93.0689 23.2219 93.0695 23.7749V40.6574C93.0712 41.0596 92.9559 41.4536 92.7376 41.7914C92.5193 42.1292 92.2075 42.3962 91.8402 42.56C85.669 45.3504 78.9811 46.8151 72.2086 46.8596Z" fill="#31569A"/>
<path d="M72.202 33.1827C71.9237 33.1829 71.648 33.1275 71.3914 33.0197L41.615 20.457C41.231 20.295 40.9044 20.0217 40.6771 19.6723C40.4499 19.323 40.3326 18.9135 40.3402 18.4968C40.3478 18.0802 40.4801 17.6753 40.72 17.3345C40.9599 16.9937 41.2963 16.7325 41.686 16.5847L71.4628 5.28843C71.9424 5.10565 72.4726 5.10678 72.9514 5.2916L102.329 16.5879C102.717 16.7369 103.051 16.9981 103.289 17.3381C103.527 17.6781 103.659 18.0814 103.666 18.4964C103.674 18.9115 103.558 19.3194 103.332 19.668C103.107 20.0165 102.782 20.2899 102.401 20.4531L73.0225 33.0156C72.7631 33.1261 72.484 33.1829 72.202 33.1827Z" fill="#31569A"/>
<path d="M54.8244 43.7087C56.3606 43.7087 57.6059 42.4634 57.6059 40.9272C57.6059 39.3911 56.3606 38.1458 54.8244 38.1458C53.2883 38.1458 52.043 39.3911 52.043 40.9272C52.043 42.4634 53.2883 43.7087 54.8244 43.7087Z" fill="#F7F7F7"/>
<path opacity="0.2" d="M102.504 18.67L73.1262 31.2325C72.8972 31.3304 72.6508 31.3812 72.4017 31.3818C72.1526 31.3824 71.9059 31.3328 71.6764 31.236L41.9 18.6736C41.5261 18.5196 41.2141 18.2454 41.0134 17.8943C40.8821 18.122 40.8008 18.375 40.7747 18.6365C40.7487 18.898 40.7786 19.1621 40.8625 19.4112C40.9463 19.6603 41.0822 19.8887 41.2611 20.0812C41.44 20.2737 41.6578 20.426 41.9 20.5279L71.6764 33.0903C71.9059 33.1871 72.1526 33.2367 72.4017 33.2361C72.6508 33.2355 72.8972 33.1847 73.1262 33.0868L102.504 20.5243C102.745 20.4214 102.962 20.2687 103.14 20.0761C103.317 19.8834 103.452 19.6553 103.535 19.4068C103.618 19.1582 103.647 18.8949 103.621 18.6342C103.595 18.3735 103.514 18.1213 103.383 17.8943C103.183 18.2426 102.875 18.5153 102.504 18.67Z" fill="black"/>
<path d="M55.0573 40.9163C55.1803 40.9163 55.2982 40.8675 55.3851 40.7806C55.4721 40.6936 55.5209 40.5757 55.5209 40.4528V24.9409L70.8102 19.3709C70.9331 19.3728 71.0518 19.3257 71.14 19.24C71.2282 19.1544 71.2788 19.0372 71.2807 18.9143C71.2825 18.7913 71.2354 18.6727 71.1498 18.5844C71.0641 18.4962 70.947 18.4456 70.824 18.4438L55.5347 24.0137C55.4117 24.0109 55.2893 24.0331 55.1751 24.0789C55.0609 24.1247 54.9572 24.1933 54.8702 24.2804C54.7824 24.3664 54.7126 24.4692 54.6651 24.5826C54.6177 24.6961 54.5934 24.8179 54.5938 24.9409V40.4528C54.5938 40.5757 54.6426 40.6936 54.7295 40.7806C54.8165 40.8675 54.9344 40.9163 55.0573 40.9163Z" fill="#F7F7F7"/>
</svg>
