<svg width="348" height="250" viewBox="0 0 348 250" fill="none" xmlns="http://www.w3.org/2000/svg">
<path d="M346.581 248.083H1.49622C1.36358 248.083 1.23637 248.03 1.14258 247.936C1.04878 247.842 0.996094 247.715 0.996094 247.583C0.996094 247.45 1.04878 247.323 1.14258 247.229C1.23637 247.135 1.36358 247.082 1.49622 247.082H346.581C346.714 247.082 346.841 247.135 346.935 247.229C347.029 247.323 347.081 247.45 347.081 247.583C347.081 247.715 347.029 247.842 346.935 247.936C346.841 248.03 346.714 248.083 346.581 248.083Z" fill="#CCCCCC"/>
<path d="M312.426 160.86H109.376C108.514 160.86 107.687 161.203 107.077 161.812C106.467 162.422 106.125 163.249 106.125 164.111C106.125 164.973 106.467 165.8 107.077 166.41C107.687 167.019 108.514 167.362 109.376 167.362H115.127V245.131C115.127 245.993 115.47 246.82 116.079 247.43C116.689 248.039 117.516 248.382 118.378 248.382C119.24 248.382 120.067 248.039 120.677 247.43C121.286 246.82 121.629 245.993 121.629 245.131L121.678 167.362H299.673V245.131C299.673 245.993 300.015 246.82 300.625 247.43C301.234 248.039 302.061 248.382 302.924 248.382C303.786 248.382 304.613 248.039 305.222 247.43C305.832 246.82 306.174 245.993 306.174 245.131V169.076L307.12 167.362H312.426C313.288 167.362 314.115 167.019 314.725 166.41C315.334 165.8 315.677 164.973 315.677 164.111C315.677 163.249 315.334 162.422 314.725 161.812C314.115 161.203 313.288 160.86 312.426 160.86Z" fill="#CCCCCC"/>
<path d="M221.947 162.562H160.441C159.25 162.56 158.109 162.087 157.266 161.244C156.424 160.402 155.951 159.261 155.949 158.07V124.207C155.951 123.016 156.424 121.874 157.266 121.032C158.109 120.19 159.25 119.716 160.441 119.715H221.947C223.138 119.716 224.28 120.19 225.122 121.032C225.964 121.874 226.438 123.016 226.439 124.207V158.07C226.438 159.261 225.964 160.402 225.122 161.244C224.28 162.087 223.138 162.56 221.947 162.562Z" fill="#3F3D56"/>
<path d="M221.947 123.172H160.441C160.167 123.172 159.904 123.282 159.71 123.476C159.516 123.67 159.407 123.933 159.406 124.207V158.07C159.407 158.345 159.516 158.608 159.71 158.802C159.904 158.996 160.167 159.105 160.441 159.106H221.947C222.221 159.105 222.484 158.996 222.678 158.802C222.872 158.608 222.981 158.345 222.982 158.07V124.207C222.981 123.933 222.872 123.67 222.678 123.476C222.484 123.282 222.221 123.172 221.947 123.172Z" fill="white"/>
<path d="M196.442 147.147C196.442 147.147 189.079 145.45 185.03 148.561C180.98 151.671 190.184 158.741 190.184 158.741L196.442 147.147Z" fill="#2F2E41"/>
<path d="M191.555 143.941C195.39 143.941 198.5 140.832 198.5 136.996C198.5 133.16 195.39 130.051 191.555 130.051C187.719 130.051 184.609 133.16 184.609 136.996C184.609 140.832 187.719 143.941 191.555 143.941Z" fill="#A0616A"/>
<path d="M186.183 127.246C186.646 126.46 187.318 125.818 188.123 125.389C188.929 124.96 189.837 124.763 190.748 124.818C191.7 124.937 192.63 125.198 193.506 125.59L198.046 127.361C199.221 127.819 200.508 128.381 201.018 129.534C201.491 130.605 201.138 131.841 200.78 132.956L199.082 138.254C198.894 137.055 198.571 135.881 198.119 134.754C197.66 133.62 196.831 132.674 195.766 132.071C194.587 131.466 193.197 131.479 191.873 131.543C189.998 131.633 187.959 131.871 186.627 133.194C185.92 133.945 185.44 134.881 185.244 135.894C185.052 136.902 184.954 137.925 184.955 138.951C184.186 137.629 183.538 136.241 183.019 134.802C182.593 133.731 182.35 132.596 182.3 131.444C182.256 130.282 182.641 129.145 183.383 128.25C183.759 127.812 184.251 127.488 184.801 127.315C185.352 127.142 185.94 127.126 186.499 127.269L186.183 127.246Z" fill="#2F2E41"/>
<path d="M208.137 153.169C208.072 152.935 207.939 152.725 207.754 152.565C207.57 152.406 207.343 152.305 207.102 152.274C207.086 152.263 207.069 152.253 207.052 152.244L196.683 146.434C196.387 146.268 196.039 146.222 195.71 146.307C195.381 146.391 195.098 146.599 194.919 146.888L192.083 151.479L187.812 147.208L187.744 147.14C187.525 146.921 187.236 146.786 186.927 146.759C186.618 146.732 186.309 146.814 186.056 146.992L177.534 152.959C177.519 152.959 177.504 152.964 177.489 152.964C177.082 153.032 176.709 153.237 176.434 153.546C176.158 153.854 175.996 154.247 175.974 154.66L175.754 159.106H209.782L208.137 153.169Z" fill="#F26D0C"/>
<path d="M227.13 158.415H220.565C220.565 158.232 220.492 158.056 220.362 157.926C220.233 157.797 220.057 157.724 219.873 157.724H217.8C217.617 157.724 217.441 157.797 217.312 157.926C217.182 158.056 217.109 158.232 217.109 158.415H215.036C215.036 158.232 214.963 158.056 214.833 157.926C214.704 157.797 214.528 157.724 214.345 157.724H212.272C212.088 157.724 211.913 157.797 211.783 157.926C211.653 158.056 211.581 158.232 211.581 158.415H209.507C209.507 158.232 209.434 158.056 209.305 157.926C209.175 157.797 208.999 157.724 208.816 157.724H206.743C206.56 157.724 206.384 157.797 206.254 157.926C206.125 158.056 206.052 158.232 206.052 158.415H203.979C203.979 158.232 203.906 158.056 203.776 157.926C203.647 157.797 203.471 157.724 203.288 157.724H201.214C201.031 157.724 200.855 157.797 200.726 157.926C200.596 158.056 200.523 158.232 200.523 158.415H198.45C198.45 158.232 198.377 158.056 198.248 157.926C198.118 157.797 197.942 157.724 197.759 157.724H195.686C195.502 157.724 195.327 157.797 195.197 157.926C195.067 158.056 194.995 158.232 194.995 158.415H192.921C192.921 158.232 192.849 158.056 192.719 157.926C192.589 157.797 192.414 157.724 192.23 157.724H190.157C189.974 157.724 189.798 157.797 189.668 157.926C189.539 158.056 189.466 158.232 189.466 158.415H187.393C187.393 158.232 187.32 158.056 187.19 157.926C187.061 157.797 186.885 157.724 186.702 157.724H184.628C184.445 157.724 184.269 157.797 184.14 157.926C184.01 158.056 183.937 158.232 183.937 158.415H181.864C181.864 158.232 181.791 158.056 181.662 157.926C181.532 157.797 181.356 157.724 181.173 157.724H179.1C178.916 157.724 178.741 157.797 178.611 157.926C178.481 158.056 178.409 158.232 178.409 158.415H176.335C176.335 158.232 176.263 158.056 176.133 157.926C176.003 157.797 175.828 157.724 175.644 157.724H173.571C173.388 157.724 173.212 157.797 173.082 157.926C172.953 158.056 172.88 158.232 172.88 158.415H170.807C170.807 158.232 170.734 158.056 170.604 157.926C170.475 157.797 170.299 157.724 170.116 157.724H168.043C167.859 157.724 167.683 157.797 167.554 157.926C167.424 158.056 167.351 158.232 167.351 158.415H165.278C165.278 158.232 165.205 158.056 165.076 157.926C164.946 157.797 164.77 157.724 164.587 157.724H162.514C162.331 157.724 162.155 157.797 162.025 157.926C161.896 158.056 161.823 158.232 161.823 158.415H155.258C154.708 158.416 154.182 158.635 153.794 159.024C153.405 159.412 153.188 159.939 153.188 160.488C153.188 161.038 153.405 161.565 153.794 161.953C154.182 162.342 154.708 162.561 155.258 162.562H227.13C227.68 162.562 228.207 162.343 228.596 161.954C228.985 161.566 229.203 161.038 229.203 160.488C229.203 159.939 228.985 159.411 228.596 159.022C228.207 158.634 227.68 158.415 227.13 158.415Z" fill="#3F3D56"/>
<path d="M144.57 146.375V160.141H110.08C109.156 160.174 108.235 160.019 107.372 159.688C106.508 159.357 105.721 158.855 105.056 158.212C104.391 157.57 103.862 156.8 103.501 155.949C103.139 155.098 102.953 154.183 102.953 153.258C102.953 152.334 103.139 151.419 103.501 150.567C103.862 149.716 104.391 148.947 105.056 148.304C105.721 147.662 106.508 147.16 107.372 146.829C108.235 146.497 109.156 146.343 110.08 146.375H144.57Z" fill="#F2F2F2"/>
<path d="M145.416 160.036C145.416 160.176 145.36 160.311 145.261 160.41C145.161 160.509 145.027 160.565 144.886 160.565H109.465C107.541 160.565 105.696 159.801 104.336 158.44C102.975 157.08 102.211 155.235 102.211 153.311C102.211 151.387 102.975 149.542 104.336 148.182C105.696 146.822 107.541 146.058 109.465 146.058H144.886C145.027 146.058 145.161 146.113 145.261 146.213C145.36 146.312 145.416 146.447 145.416 146.587C145.416 146.727 145.36 146.862 145.261 146.961C145.161 147.061 145.027 147.116 144.886 147.116H109.465C107.823 147.118 106.248 147.771 105.088 148.933C103.927 150.094 103.275 151.669 103.275 153.311C103.275 154.953 103.927 156.528 105.088 157.69C106.248 158.851 107.823 159.505 109.465 159.506H144.886C145.027 159.506 145.161 159.562 145.261 159.661C145.36 159.761 145.416 159.895 145.416 160.036Z" fill="#F26D0C"/>
<path d="M144.572 149.552H107.509C107.495 149.552 107.481 149.549 107.468 149.544C107.455 149.539 107.444 149.531 107.434 149.521C107.424 149.511 107.416 149.5 107.41 149.487C107.405 149.474 107.402 149.46 107.402 149.446C107.402 149.432 107.405 149.418 107.41 149.405C107.416 149.393 107.424 149.381 107.434 149.371C107.444 149.361 107.455 149.353 107.468 149.348C107.481 149.343 107.495 149.34 107.509 149.34H144.572C144.6 149.34 144.627 149.352 144.646 149.372C144.666 149.391 144.677 149.418 144.677 149.446C144.677 149.474 144.666 149.501 144.646 149.521C144.627 149.541 144.6 149.552 144.572 149.552Z" fill="#CCCCCC"/>
<path d="M144.572 152.093H107.509C107.495 152.094 107.481 152.091 107.468 152.086C107.455 152.08 107.444 152.073 107.434 152.063C107.424 152.053 107.416 152.041 107.41 152.028C107.405 152.015 107.402 152.002 107.402 151.988C107.402 151.974 107.405 151.96 107.41 151.947C107.416 151.934 107.424 151.922 107.434 151.912C107.444 151.903 107.455 151.895 107.468 151.89C107.481 151.884 107.495 151.882 107.509 151.882H144.572C144.6 151.882 144.627 151.893 144.646 151.913C144.666 151.933 144.677 151.96 144.677 151.988C144.677 152.016 144.666 152.042 144.646 152.062C144.627 152.082 144.6 152.093 144.572 152.093Z" fill="#CCCCCC"/>
<path d="M144.572 154.635H107.509C107.495 154.635 107.481 154.632 107.468 154.627C107.455 154.622 107.444 154.614 107.434 154.604C107.424 154.594 107.416 154.583 107.41 154.57C107.405 154.557 107.402 154.543 107.402 154.529C107.402 154.515 107.405 154.501 107.41 154.488C107.416 154.476 107.424 154.464 107.434 154.454C107.444 154.444 107.455 154.436 107.468 154.431C107.481 154.426 107.495 154.423 107.509 154.423H144.572C144.6 154.423 144.627 154.435 144.646 154.454C144.666 154.474 144.677 154.501 144.677 154.529C144.677 154.557 144.666 154.584 144.646 154.604C144.627 154.624 144.6 154.635 144.572 154.635Z" fill="#CCCCCC"/>
<path d="M144.572 157.176H107.509C107.495 157.176 107.481 157.174 107.468 157.169C107.455 157.163 107.444 157.155 107.434 157.146C107.424 157.136 107.416 157.124 107.41 157.111C107.405 157.098 107.402 157.084 107.402 157.07C107.402 157.057 107.405 157.043 107.41 157.03C107.416 157.017 107.424 157.005 107.434 156.995C107.444 156.986 107.455 156.978 107.468 156.972C107.481 156.967 107.495 156.965 107.509 156.965H144.572C144.6 156.965 144.627 156.976 144.646 156.996C144.666 157.016 144.677 157.043 144.677 157.07C144.677 157.098 144.666 157.125 144.646 157.145C144.627 157.165 144.6 157.176 144.572 157.176Z" fill="#CCCCCC"/>
<path d="M138.07 131.872V145.638H103.58C102.656 145.67 101.735 145.516 100.872 145.184C100.008 144.853 99.2209 144.351 98.5558 143.709C97.8907 143.066 97.3618 142.297 97.0005 141.446C96.6393 140.595 96.4531 139.679 96.4531 138.755C96.4531 137.83 96.6393 136.915 97.0005 136.064C97.3618 135.213 97.8907 134.443 98.5558 133.801C99.2209 133.158 100.008 132.657 100.872 132.325C101.735 131.994 102.656 131.84 103.58 131.872H138.07Z" fill="#F2F2F2"/>
<path d="M138.916 145.532C138.916 145.672 138.86 145.807 138.761 145.906C138.661 146.006 138.527 146.061 138.386 146.061H102.965C102.012 146.061 101.069 145.874 100.189 145.509C99.3087 145.145 98.5091 144.61 97.8355 143.937C97.1619 143.263 96.6276 142.464 96.2631 141.584C95.8986 140.704 95.7109 139.76 95.7109 138.808C95.7109 137.855 95.8986 136.912 96.2631 136.032C96.6276 135.152 97.1619 134.352 97.8355 133.679C98.5091 133.005 99.3087 132.471 100.189 132.106C101.069 131.742 102.012 131.554 102.965 131.554H138.386C138.527 131.554 138.661 131.61 138.761 131.709C138.86 131.808 138.916 131.943 138.916 132.083C138.916 132.224 138.86 132.359 138.761 132.458C138.661 132.557 138.527 132.613 138.386 132.613H102.965C101.323 132.614 99.7484 133.268 98.5879 134.429C97.4273 135.591 96.7754 137.166 96.7754 138.808C96.7754 140.45 97.4273 142.025 98.5879 143.186C99.7484 144.348 101.323 145.001 102.965 145.003H138.386C138.527 145.003 138.661 145.058 138.761 145.158C138.86 145.257 138.916 145.392 138.916 145.532Z" fill="#3F3D56"/>
<path d="M138.068 135.049H101.005C100.991 135.049 100.977 135.046 100.964 135.041C100.951 135.035 100.94 135.028 100.93 135.018C100.92 135.008 100.912 134.996 100.907 134.983C100.901 134.97 100.898 134.957 100.898 134.943C100.898 134.929 100.901 134.915 100.907 134.902C100.912 134.889 100.92 134.877 100.93 134.868C100.94 134.858 100.951 134.85 100.964 134.845C100.977 134.839 100.991 134.837 101.005 134.837H138.068C138.096 134.837 138.123 134.848 138.142 134.868C138.162 134.888 138.173 134.915 138.173 134.943C138.173 134.971 138.162 134.997 138.142 135.017C138.123 135.037 138.096 135.048 138.068 135.049Z" fill="#CCCCCC"/>
<path d="M138.068 137.59H101.005C100.991 137.59 100.977 137.587 100.964 137.582C100.951 137.577 100.94 137.569 100.93 137.559C100.92 137.549 100.912 137.538 100.907 137.525C100.901 137.512 100.898 137.498 100.898 137.484C100.898 137.47 100.901 137.456 100.907 137.443C100.912 137.43 100.92 137.419 100.93 137.409C100.94 137.399 100.951 137.391 100.964 137.386C100.977 137.381 100.991 137.378 101.005 137.378H138.068C138.096 137.378 138.123 137.39 138.142 137.409C138.162 137.429 138.173 137.456 138.173 137.484C138.173 137.512 138.162 137.539 138.142 137.559C138.123 137.579 138.096 137.59 138.068 137.59Z" fill="#CCCCCC"/>
<path d="M138.068 140.131H101.005C100.991 140.131 100.977 140.129 100.964 140.124C100.951 140.118 100.94 140.11 100.93 140.101C100.92 140.091 100.912 140.079 100.907 140.066C100.901 140.053 100.898 140.039 100.898 140.026C100.898 140.012 100.901 139.998 100.907 139.985C100.912 139.972 100.92 139.96 100.93 139.95C100.94 139.941 100.951 139.933 100.964 139.927C100.977 139.922 100.991 139.92 101.005 139.92H138.068C138.096 139.92 138.123 139.931 138.142 139.951C138.162 139.971 138.173 139.998 138.173 140.026C138.173 140.053 138.162 140.08 138.142 140.1C138.123 140.12 138.096 140.131 138.068 140.131Z" fill="#CCCCCC"/>
<path d="M138.068 142.673H101.005C100.991 142.673 100.977 142.67 100.964 142.665C100.951 142.66 100.94 142.652 100.93 142.642C100.92 142.632 100.912 142.621 100.907 142.608C100.901 142.595 100.898 142.581 100.898 142.567C100.898 142.553 100.901 142.539 100.907 142.526C100.912 142.513 100.92 142.502 100.93 142.492C100.94 142.482 100.951 142.474 100.964 142.469C100.977 142.464 100.991 142.461 101.005 142.461H138.068C138.096 142.461 138.123 142.472 138.142 142.492C138.162 142.512 138.173 142.539 138.173 142.567C138.173 142.595 138.162 142.622 138.142 142.642C138.123 142.661 138.096 142.673 138.068 142.673Z" fill="#CCCCCC"/>
<path d="M178.192 209.073V197.07C178.192 196.54 177.981 196.031 177.606 195.656C177.231 195.28 176.722 195.07 176.191 195.07H130.68C130.15 195.07 129.641 195.28 129.266 195.656C128.89 196.031 128.68 196.54 128.68 197.07V209.073H178.192Z" fill="#CCCCCC"/>
<path d="M178.192 213.574H128.68V229.078H178.192V213.574Z" fill="#CCCCCC"/>
<path d="M128.68 233.579V245.582C128.68 246.113 128.89 246.621 129.266 246.997C129.641 247.372 130.15 247.583 130.68 247.583H176.191C176.722 247.583 177.231 247.372 177.606 246.997C177.981 246.621 178.192 246.113 178.192 245.582V233.579H128.68Z" fill="#CCCCCC"/>
<path d="M153.188 204.072C154.017 204.072 154.688 203.4 154.688 202.571C154.688 201.743 154.017 201.071 153.188 201.071C152.359 201.071 151.688 201.743 151.688 202.571C151.688 203.4 152.359 204.072 153.188 204.072Z" fill="white"/>
<path d="M153.188 224.077C154.017 224.077 154.688 223.405 154.688 222.576C154.688 221.748 154.017 221.076 153.188 221.076C152.359 221.076 151.688 221.748 151.688 222.576C151.688 223.405 152.359 224.077 153.188 224.077Z" fill="white"/>
<path d="M153.266 243.658C154.095 243.658 154.766 242.986 154.766 242.158C154.766 241.329 154.095 240.657 153.266 240.657C152.437 240.657 151.766 241.329 151.766 242.158C151.766 242.986 152.437 243.658 153.266 243.658Z" fill="white"/>
<path d="M172.577 181.384V195.15H138.088C137.164 195.182 136.243 195.028 135.379 194.697C134.516 194.365 133.729 193.863 133.064 193.221C132.399 192.579 131.87 191.809 131.508 190.958C131.147 190.107 130.961 189.192 130.961 188.267C130.961 187.342 131.147 186.427 131.508 185.576C131.87 184.725 132.399 183.955 133.064 183.313C133.729 182.671 134.516 182.169 135.379 181.837C136.243 181.506 137.164 181.352 138.088 181.384H172.577Z" fill="#F2F2F2"/>
<path d="M173.426 195.044C173.426 195.185 173.37 195.319 173.271 195.419C173.171 195.518 173.037 195.574 172.896 195.574H137.475C136.522 195.574 135.578 195.387 134.697 195.023C133.816 194.659 133.016 194.125 132.342 193.451C131.667 192.778 131.132 191.978 130.768 191.097C130.403 190.217 130.215 189.273 130.215 188.32C130.215 187.367 130.403 186.423 130.768 185.543C131.132 184.662 131.667 183.862 132.342 183.189C133.016 182.515 133.816 181.981 134.697 181.617C135.578 181.252 136.522 181.065 137.475 181.066H172.896C173.037 181.066 173.171 181.122 173.271 181.221C173.37 181.321 173.426 181.455 173.426 181.596C173.426 181.736 173.37 181.871 173.271 181.97C173.171 182.069 173.037 182.125 172.896 182.125H137.475C135.833 182.127 134.258 182.78 133.098 183.941C131.937 185.103 131.285 186.678 131.285 188.32C131.285 189.962 131.937 191.537 133.098 192.698C134.258 193.86 135.833 194.513 137.475 194.515H172.896C173.037 194.515 173.171 194.571 173.271 194.67C173.37 194.769 173.426 194.904 173.426 195.044Z" fill="#3F3D56"/>
<path d="M172.58 184.561H135.517C135.503 184.561 135.489 184.558 135.476 184.553C135.463 184.548 135.451 184.54 135.441 184.53C135.432 184.52 135.424 184.508 135.418 184.496C135.413 184.483 135.41 184.469 135.41 184.455C135.41 184.441 135.413 184.427 135.418 184.414C135.424 184.401 135.432 184.39 135.441 184.38C135.451 184.37 135.463 184.362 135.476 184.357C135.489 184.351 135.503 184.349 135.517 184.349H172.58C172.608 184.349 172.634 184.36 172.654 184.38C172.674 184.4 172.685 184.427 172.685 184.455C172.685 184.483 172.674 184.51 172.654 184.529C172.634 184.549 172.608 184.561 172.58 184.561Z" fill="#CCCCCC"/>
<path d="M172.58 187.102H135.517C135.503 187.102 135.489 187.1 135.476 187.094C135.463 187.089 135.451 187.081 135.441 187.071C135.432 187.062 135.424 187.05 135.418 187.037C135.413 187.024 135.41 187.01 135.41 186.996C135.41 186.982 135.413 186.968 135.418 186.956C135.424 186.943 135.432 186.931 135.441 186.921C135.451 186.911 135.463 186.904 135.476 186.898C135.489 186.893 135.503 186.89 135.517 186.89H172.58C172.608 186.891 172.634 186.902 172.654 186.922C172.674 186.941 172.685 186.968 172.685 186.996C172.685 187.024 172.674 187.051 172.654 187.071C172.634 187.091 172.608 187.102 172.58 187.102Z" fill="#CCCCCC"/>
<path d="M172.58 189.644H135.517C135.503 189.644 135.489 189.641 135.476 189.636C135.463 189.631 135.451 189.623 135.441 189.613C135.432 189.603 135.424 189.591 135.418 189.578C135.413 189.566 135.41 189.552 135.41 189.538C135.41 189.524 135.413 189.51 135.418 189.497C135.424 189.484 135.432 189.472 135.441 189.463C135.451 189.453 135.463 189.445 135.476 189.44C135.489 189.434 135.503 189.432 135.517 189.432H172.58C172.608 189.432 172.634 189.443 172.654 189.463C172.674 189.483 172.685 189.51 172.685 189.538C172.685 189.566 172.674 189.593 172.654 189.612C172.634 189.632 172.608 189.643 172.58 189.644Z" fill="#CCCCCC"/>
<path d="M172.58 192.185H135.517C135.503 192.185 135.489 192.182 135.476 192.177C135.463 192.172 135.451 192.164 135.441 192.154C135.432 192.144 135.424 192.133 135.418 192.12C135.413 192.107 135.41 192.093 135.41 192.079C135.41 192.065 135.413 192.051 135.418 192.038C135.424 192.026 135.432 192.014 135.441 192.004C135.451 191.994 135.463 191.986 135.476 191.981C135.489 191.976 135.503 191.973 135.517 191.973H172.58C172.608 191.973 172.634 191.985 172.654 192.005C172.674 192.024 172.685 192.051 172.685 192.079C172.685 192.107 172.674 192.134 172.654 192.154C172.634 192.174 172.608 192.185 172.58 192.185Z" fill="#CCCCCC"/>
<path d="M126.082 91.5333V3.76165C126.083 2.76435 126.48 1.80822 127.185 1.10302C127.89 0.397818 128.846 0.0011344 129.844 0H199.225C200.222 0.001141 201.178 0.397827 201.884 1.10302C202.589 1.80822 202.986 2.76435 202.987 3.76165V91.5333C202.986 92.5306 202.589 93.4867 201.884 94.1919C201.178 94.8971 200.222 95.2938 199.225 95.2949H129.844C128.846 95.2938 127.89 94.8971 127.185 94.1919C126.48 93.4867 126.083 92.5306 126.082 91.5333ZM129.844 0.835922C129.068 0.836791 128.324 1.14532 127.776 1.69381C127.227 2.2423 126.919 2.98596 126.918 3.76165V91.5333C126.919 92.309 127.227 93.0526 127.776 93.6011C128.324 94.1496 129.068 94.4581 129.844 94.459H199.225C200.001 94.4581 200.744 94.1496 201.293 93.6011C201.841 93.0526 202.15 92.309 202.151 91.5333V3.76165C202.15 2.98596 201.841 2.2423 201.293 1.69381C200.744 1.14532 200.001 0.836792 199.225 0.835922H129.844Z" fill="#E6E6E6"/>
<path d="M168.426 40.3088V22.2865C168.426 21.7878 168.625 21.3098 168.977 20.9572C169.33 20.6046 169.808 20.4062 170.307 20.4057H185.579C186.078 20.4062 186.556 20.6046 186.908 20.9572C187.261 21.3098 187.459 21.7878 187.46 22.2865V40.3088C187.459 40.8074 187.261 41.2855 186.908 41.6381C186.556 41.9907 186.077 42.1891 185.579 42.1896H170.307C169.808 42.1891 169.33 41.9907 168.977 41.6381C168.625 41.2855 168.426 40.8074 168.426 40.3088Z" fill="#31569A"/>
<path d="M138.75 48.668V30.6457C138.751 30.1471 138.949 29.669 139.301 29.3164C139.654 28.9638 140.132 28.7654 140.631 28.7649H155.903C156.402 28.7654 156.88 28.9638 157.232 29.3164C157.585 29.669 157.783 30.1471 157.784 30.6457V48.668C157.783 49.1666 157.585 49.6447 157.232 49.9973C156.88 50.3499 156.402 50.5483 155.903 50.5488H140.631C140.132 50.5483 139.654 50.3499 139.301 49.9973C138.949 49.6447 138.751 49.1666 138.75 48.668Z" fill="#CCCCCC"/>
<path d="M162.574 74.1635V56.1413C162.575 55.6426 162.773 55.1645 163.126 54.8119C163.478 54.4593 163.956 54.261 164.455 54.2604H179.727C180.226 54.261 180.704 54.4593 181.057 54.8119C181.409 55.1645 181.608 55.6426 181.608 56.1413V74.1635C181.608 74.6622 181.409 75.1403 181.057 75.4929C180.704 75.8455 180.226 76.0438 179.727 76.0444H164.455C163.956 76.0438 163.478 75.8455 163.126 75.4929C162.773 75.1403 162.575 74.6622 162.574 74.1635Z" fill="#F26D0C"/>
<path d="M253.839 156.56H238.125C237.976 156.56 237.829 156.594 237.695 156.66L233.729 158.646C233.599 158.701 233.487 158.794 233.409 158.912C233.331 159.03 233.289 159.169 233.289 159.311C233.289 159.453 233.331 159.591 233.409 159.71C233.487 159.828 233.599 159.92 233.729 159.976L237.695 161.961C237.829 162.027 237.976 162.062 238.125 162.061H253.839C254.056 162.074 254.268 162.001 254.431 161.857C254.594 161.714 254.694 161.513 254.709 161.296V157.325C254.694 157.109 254.594 156.907 254.431 156.764C254.268 156.621 254.056 156.548 253.839 156.56Z" fill="#3F3D56"/>
<path d="M254.712 157.325V161.296C254.697 161.513 254.597 161.714 254.434 161.857C254.271 162.001 254.058 162.074 253.842 162.061H250.711V156.56H253.842C254.058 156.548 254.271 156.621 254.434 156.764C254.597 156.907 254.697 157.109 254.712 157.325Z" fill="#31569A"/>
<path d="M253.72 126.853C254.432 126.546 255.201 126.392 255.976 126.403C256.751 126.413 257.515 126.588 258.218 126.914C258.921 127.241 259.548 127.712 260.056 128.297C260.564 128.883 260.943 129.569 261.167 130.311C261.237 130.546 261.291 130.786 261.328 131.029L283.302 141.925L288.387 138.555L294.715 145.84L286.95 152.146C286.016 152.899 284.865 153.33 283.666 153.376C282.468 153.422 281.287 153.081 280.298 152.403L258.003 136.985C257.837 137.055 257.667 137.117 257.495 137.17C256.753 137.394 255.972 137.459 255.203 137.361C254.434 137.262 253.694 137.003 253.033 136.598C252.371 136.194 251.802 135.655 251.364 135.015C250.925 134.376 250.627 133.651 250.488 132.888C250.447 132.667 250.42 132.443 250.407 132.219C250.345 131.093 250.629 129.975 251.222 129.016C251.814 128.056 252.686 127.302 253.72 126.853Z" fill="#FFB8B8"/>
<path d="M299.489 193.944H275.478C275.478 194.634 250.732 195.194 250.732 195.194C250.344 195.486 249.99 195.822 249.677 196.194C248.737 197.315 248.223 198.732 248.227 200.195V201.195C248.227 202.853 248.886 204.443 250.058 205.615C251.231 206.788 252.82 207.446 254.478 207.447H299.489C301.147 207.445 302.736 206.786 303.908 205.614C305.08 204.442 305.739 202.853 305.741 201.195V200.195C305.738 198.538 305.079 196.949 303.907 195.777C302.735 194.605 301.147 193.946 299.489 193.944Z" fill="#3F3D56"/>
<path d="M273.373 249.209H279.875V207.199H273.373V249.209Z" fill="#3F3D56"/>
<path d="M254.867 248.981C254.867 249.683 264.719 249.252 276.873 249.252C289.026 249.252 298.878 249.683 298.878 248.981C298.878 248.278 289.026 242.707 276.873 242.707C264.719 242.707 254.867 248.278 254.867 248.981Z" fill="#3F3D56"/>
<path d="M260.736 244.057L254.605 244.056L251.688 228.154L260.737 228.154L260.736 244.057Z" fill="#FFB8B8"/>
<path d="M262.301 250L242.531 249.999V249.749C242.531 248.739 242.73 247.738 243.117 246.804C243.504 245.871 244.071 245.023 244.785 244.308C245.5 243.593 246.348 243.027 247.282 242.64C248.215 242.253 249.216 242.054 250.226 242.054H250.227L262.302 242.055L262.301 250Z" fill="#2F2E41"/>
<path d="M251.564 234.195L239.341 206.785C238.32 204.474 238.208 201.864 239.025 199.475C239.842 197.085 241.53 195.091 243.751 193.889L270.265 179.672L282.363 178.643L293.523 177.629L293.604 177.765C293.707 177.939 296.106 182.083 294.484 186.628C293.254 190.075 290.054 192.768 284.972 194.631C273.112 198.98 259.412 202.696 254.072 204.092C253.836 204.152 253.615 204.262 253.425 204.414C253.234 204.565 253.078 204.756 252.966 204.972C252.854 205.186 252.787 205.421 252.77 205.662C252.753 205.903 252.787 206.145 252.868 206.372L264.224 231.886C264.342 232.209 264.385 232.556 264.349 232.898C264.312 233.241 264.197 233.571 264.013 233.862C263.829 234.154 263.581 234.399 263.287 234.579C262.993 234.759 262.662 234.869 262.319 234.901L253.833 235.519C253.761 235.526 253.689 235.529 253.618 235.529C253.183 235.529 252.758 235.403 252.394 235.166C252.029 234.929 251.741 234.592 251.564 234.195Z" fill="#2F2E41"/>
<path d="M263.736 244.057L257.605 244.056L254.688 228.154L263.737 228.154L263.736 244.057Z" fill="#FFB8B8"/>
<path d="M265.301 250L245.531 249.999V249.749C245.531 248.739 245.73 247.738 246.117 246.804C246.504 245.871 247.071 245.023 247.785 244.308C248.5 243.593 249.348 243.027 250.282 242.64C251.215 242.253 252.216 242.054 253.226 242.054H253.227L265.302 242.055L265.301 250Z" fill="#2F2E41"/>
<path d="M255.064 235.696L242.841 208.285C241.82 205.975 241.708 203.365 242.525 200.975C243.342 198.585 245.03 196.591 247.251 195.39L273.765 181.172L285.863 180.143L297.023 179.129L297.104 179.265C297.207 179.439 299.606 183.584 297.984 188.128C296.754 191.575 293.554 194.268 288.472 196.131C276.612 200.48 262.912 204.197 257.572 205.592C257.336 205.653 257.115 205.762 256.925 205.914C256.734 206.066 256.578 206.256 256.466 206.473C256.354 206.687 256.287 206.921 256.27 207.162C256.253 207.403 256.287 207.645 256.368 207.872L267.724 233.386C267.842 233.71 267.885 234.056 267.849 234.399C267.812 234.741 267.697 235.071 267.513 235.363C267.329 235.654 267.081 235.899 266.787 236.079C266.493 236.259 266.162 236.37 265.819 236.401L257.333 237.019C257.261 237.026 257.189 237.029 257.118 237.029C256.683 237.029 256.258 236.903 255.894 236.667C255.529 236.43 255.241 236.093 255.064 235.696Z" fill="#2F2E41"/>
<path d="M248.977 151.96C243.84 145.127 239.779 137.549 236.936 129.488C236.771 129.006 236.783 128.481 236.969 128.007C237.155 127.532 237.503 127.139 237.952 126.898L255.529 117.48C255.813 117.326 256.129 117.24 256.452 117.227C256.775 117.213 257.096 117.274 257.392 117.404C257.694 117.535 257.961 117.733 258.174 117.983C258.388 118.233 258.541 118.528 258.623 118.846C260.669 126.614 264.515 133.791 269.849 139.797C270.068 140.041 270.229 140.333 270.319 140.649C270.409 140.965 270.426 141.297 270.368 141.621C270.312 141.939 270.185 142.24 269.995 142.502C269.805 142.764 269.558 142.978 269.273 143.13L251.696 152.548C251.246 152.788 250.726 152.86 250.228 152.753C249.73 152.645 249.287 152.364 248.977 151.96Z" fill="#CCCCCC"/>
<path d="M250.176 151.058C250.271 151.176 250.404 151.258 250.552 151.288C250.7 151.319 250.854 151.297 250.987 151.226L268.565 141.807C268.65 141.763 268.724 141.699 268.78 141.622C268.837 141.544 268.875 141.454 268.891 141.359C268.909 141.259 268.904 141.156 268.876 141.058C268.848 140.96 268.797 140.87 268.728 140.795C263.237 134.612 259.278 127.224 257.172 119.227C257.148 119.128 257.101 119.036 257.035 118.959C256.969 118.881 256.886 118.82 256.793 118.779C256.705 118.74 256.609 118.722 256.513 118.726C256.416 118.73 256.322 118.756 256.238 118.802L238.661 128.22C238.528 128.292 238.424 128.409 238.367 128.549C238.311 128.689 238.305 128.845 238.351 128.989C241.144 136.906 245.132 144.348 250.176 151.058Z" fill="white"/>
<path d="M307.367 149.447L293.601 154.678L290.24 145.343C289.794 144.103 289.8 142.746 290.258 141.51C290.716 140.275 291.596 139.241 292.742 138.591C293.902 137.934 295.258 137.713 296.566 137.969C297.874 138.224 299.048 138.939 299.875 139.984L307.367 149.447Z" fill="#6C63FF"/>
<path d="M272.355 186.436C272.065 186.231 271.822 185.967 271.643 185.661C271.463 185.355 271.351 185.014 271.313 184.662C269.55 168.203 270.778 155.322 275.067 145.284C275.822 143.553 276.96 142.016 278.395 140.787C279.83 139.559 281.525 138.672 283.352 138.193L294.48 137.631L294.537 137.659C297.048 138.889 299.096 140.895 300.377 143.381C301.658 145.866 302.104 148.698 301.649 151.457C298.07 160.891 295.073 170.713 297.358 178.636C297.454 178.968 297.482 179.315 297.441 179.657C297.399 179.999 297.289 180.33 297.116 180.629C296.949 180.917 296.725 181.169 296.457 181.367C296.189 181.566 295.883 181.708 295.558 181.783L274.364 186.825C274.02 186.907 273.664 186.914 273.317 186.847C272.971 186.78 272.643 186.64 272.355 186.436Z" fill="#F26D0C"/>
<path d="M290.768 133.475C297.552 133.475 303.051 127.976 303.051 121.192C303.051 114.407 297.552 108.908 290.768 108.908C283.984 108.908 278.484 114.407 278.484 121.192C278.484 127.976 283.984 133.475 290.768 133.475Z" fill="#FFB8B8"/>
<path d="M256.681 130.92L247.108 135.146C246.744 135.306 246.331 135.316 245.96 135.172C245.589 135.028 245.291 134.743 245.13 134.379L244.893 133.843C244.733 133.479 244.723 133.066 244.867 132.695C245.011 132.324 245.296 132.026 245.66 131.865L255.233 127.639C255.597 127.479 256.01 127.469 256.381 127.613C256.751 127.757 257.05 128.042 257.211 128.405L257.448 128.942C257.608 129.306 257.618 129.719 257.474 130.09C257.33 130.461 257.045 130.759 256.681 130.92Z" fill="#CCCCCC"/>
<path d="M260.181 137.422L250.608 141.648C250.244 141.808 249.831 141.817 249.46 141.674C249.089 141.53 248.791 141.245 248.63 140.881L248.393 140.345C248.233 139.981 248.223 139.568 248.367 139.197C248.511 138.826 248.796 138.527 249.16 138.366L258.733 134.14C259.097 133.98 259.51 133.971 259.881 134.115C260.251 134.258 260.55 134.543 260.711 134.907L260.948 135.444C261.108 135.808 261.118 136.22 260.974 136.591C260.83 136.962 260.545 137.261 260.181 137.422Z" fill="#CCCCCC"/>
<path d="M267.563 162.817L246.22 145.98C246.05 146.039 245.877 146.091 245.702 146.133C244.949 146.309 244.167 146.325 243.407 146.179C242.647 146.033 241.927 145.729 241.292 145.287C240.653 144.844 240.116 144.27 239.717 143.603C239.318 142.936 239.066 142.191 238.978 141.419C238.835 140.184 239.113 138.938 239.768 137.881C240.422 136.825 241.414 136.02 242.583 135.598C243.313 135.337 244.09 135.232 244.863 135.291C245.636 135.351 246.387 135.573 247.069 135.943C247.75 136.313 248.345 136.823 248.815 137.439C249.286 138.055 249.621 138.764 249.798 139.518C249.853 139.757 249.892 140 249.913 140.244L271.159 152.501L276.446 149.457L282.303 157.125L274.094 162.976C273.133 163.655 271.978 164.007 270.802 163.978C269.625 163.949 268.489 163.542 267.563 162.817Z" fill="#FFB8B8"/>
<path d="M284.912 159.513L272.734 151.232L278.457 143.127C279.217 142.05 280.333 141.277 281.608 140.944C282.882 140.611 284.234 140.739 285.423 141.306C286.626 141.88 287.585 142.865 288.125 144.083C288.666 145.301 288.753 146.672 288.371 147.949L284.912 159.513Z" fill="#31569A"/>
<path d="M286.262 119.362C283.105 121.523 278.96 123.744 275.735 121.443C273.618 119.932 272.951 117.134 273.809 114.679C275.353 110.263 279.596 108.32 283.652 106.83C288.926 104.893 294.668 103.352 300.112 104.739C305.556 106.126 310.367 111.397 309.384 116.928C308.594 121.376 304.398 125.078 304.994 129.556C305.593 134.063 310.662 136.436 315.137 137.241C319.612 138.047 324.619 138.306 327.835 141.52C331.938 145.62 330.914 152.949 327.053 157.279C323.193 161.608 317.367 163.57 311.722 164.904C304.243 166.672 296.154 167.601 289.051 164.667C281.948 161.734 276.42 153.837 278.478 146.433C279.347 143.305 281.394 140.662 283.373 138.089C285.352 135.515 287.356 132.824 288.11 129.667C288.739 127.036 288.274 123.981 286.529 122.008C286.212 121.662 286.012 121.225 285.959 120.759C285.905 120.293 286.001 119.822 286.232 119.414L286.262 119.362Z" fill="#2F2E41"/>
<path d="M55.5442 179.043C52.3789 180.156 48.9805 180.435 45.6763 179.853C42.3721 179.271 39.2735 177.847 36.679 175.72C30.0713 170.174 27.9996 161.037 26.314 152.577C24.652 144.236 22.9901 135.894 21.3281 127.553L31.7665 134.741C39.2732 139.909 46.949 145.244 52.1466 152.73C57.3442 160.217 59.6129 170.437 55.4368 178.538" fill="#E6E6E6"/>
<path d="M54.6545 209.34C55.711 201.644 56.7974 193.85 56.0563 186.072C55.3981 179.164 53.2907 172.417 49.0002 166.885C46.7227 163.954 43.9516 161.443 40.8112 159.464C39.9923 158.948 39.2386 160.245 40.0539 160.76C45.4877 164.194 49.6904 169.265 52.0563 175.242C54.6694 181.888 55.089 189.133 54.6388 196.194C54.3664 200.463 53.7893 204.705 53.2077 208.941C53.1619 209.133 53.1905 209.335 53.2877 209.506C53.385 209.677 53.5437 209.805 53.7317 209.864C53.9235 209.916 54.128 209.89 54.3007 209.792C54.4735 209.694 54.6006 209.531 54.6545 209.34H54.6545Z" fill="#F2F2F2"/>
<path d="M44.4788 195.723C43.1213 197.786 41.2553 199.465 39.0606 200.597C36.8659 201.73 34.4165 202.278 31.9483 202.19C25.6052 201.889 20.317 197.462 15.5567 193.259L1.47656 180.827L10.7953 180.381C17.4967 180.06 24.3711 179.761 30.754 181.828C37.1369 183.894 43.0235 188.868 44.1907 195.475" fill="#E6E6E6"/>
<path d="M57.6407 213.764C52.5556 204.766 46.6573 194.766 36.118 191.57C33.1876 190.684 30.1148 190.367 27.0652 190.635C26.1041 190.718 26.3441 192.2 27.3035 192.117C32.4153 191.693 37.5172 193.042 41.7503 195.939C45.8238 198.712 48.9954 202.566 51.6798 206.654C53.3241 209.158 54.797 211.768 56.2701 214.375C56.7409 215.208 58.117 214.607 57.6407 213.764Z" fill="#F2F2F2"/>
<path d="M65.7861 223.235C65.6148 221.249 64.902 219.349 63.7254 217.741C62.5487 216.133 60.9534 214.878 59.1131 214.114V208.912H50.3885V214.278C48.6388 215.08 47.1329 216.331 46.0245 217.905C44.9161 219.478 44.2447 221.317 44.0789 223.235L42.0273 247.082H67.8377L65.7861 223.235Z" fill="#F2F2F2"/>
</svg>
