<svg width="746" height="500" viewBox="0 0 746 500" fill="none" xmlns="http://www.w3.org/2000/svg">
<path d="M745.547 432.703H0V433.075H745.547V432.703Z" fill="#EBEBEB"/>
<path d="M670.842 456.68H621.457V457.052H670.842V456.68Z" fill="#EBEBEB"/>
<path d="M493.879 460.733H480.922V461.106H493.879V460.733Z" fill="#EBEBEB"/>
<path d="M619.97 442.851H591.355V443.223H619.97V442.851Z" fill="#EBEBEB"/>
<path d="M142.627 445.354H78.2266V445.727H142.627V445.354Z" fill="#EBEBEB"/>
<path d="M165.345 445.354H155.906V445.727H165.345V445.354Z" fill="#EBEBEB"/>
<path d="M335.721 451.643H196.035V452.015H335.721V451.643Z" fill="#EBEBEB"/>
<path d="M353.437 373.857H65.1698C62.9115 373.854 60.7471 373.057 59.1517 371.642C57.5562 370.227 56.6602 368.309 56.6602 366.309V7.48244C56.6798 5.4942 57.5846 3.59313 59.1779 2.19214C60.7712 0.791153 62.9244 0.00340595 65.1698 0H353.437C355.698 0 357.866 0.79529 359.465 2.21092C361.064 3.62654 361.962 5.54654 361.962 7.54853V366.309C361.962 368.311 361.064 370.231 359.465 371.646C357.866 373.062 355.698 373.857 353.437 373.857ZM65.1698 0.264398C63.0105 0.2679 60.941 1.02991 59.4156 2.38318C57.8901 3.73644 57.0334 5.57038 57.0334 7.48244V366.309C57.0334 368.221 57.8901 370.055 59.4156 371.408C60.941 372.761 63.0105 373.523 65.1698 373.527H353.437C355.598 373.523 357.669 372.762 359.197 371.409C360.725 370.056 361.585 368.222 361.589 366.309V7.48244C361.585 5.56917 360.725 3.73526 359.197 2.38237C357.669 1.02948 355.598 0.267893 353.437 0.264398H65.1698Z" fill="#EBEBEB"/>
<path d="M676.135 373.857H387.853C385.593 373.854 383.427 373.057 381.829 371.643C380.231 370.228 379.332 368.31 379.328 366.309V7.48244C379.352 5.493 380.26 3.59194 381.855 2.19131C383.451 0.790691 385.606 0.0033688 387.853 0H676.135C678.378 0.00688027 680.527 0.796164 682.117 2.19678C683.707 3.59739 684.61 5.49649 684.63 7.48244V366.309C684.63 368.306 683.736 370.222 682.144 371.637C680.551 373.052 678.391 373.85 676.135 373.857ZM387.853 0.264398C385.692 0.267893 383.621 1.02948 382.093 2.38237C380.565 3.73526 379.705 5.56917 379.701 7.48244V366.309C379.705 368.222 380.565 370.056 382.093 371.409C383.621 372.762 385.692 373.523 387.853 373.527H676.135C678.296 373.523 680.367 372.762 681.895 371.409C683.422 370.056 684.282 368.222 684.286 366.309V7.48244C684.282 5.56917 683.422 3.73526 681.895 2.38237C680.367 1.02948 678.296 0.267893 676.135 0.264398H387.853Z" fill="#EBEBEB"/>
<path d="M404.009 431.444H605.105V169.104H404.009V431.444Z" fill="#F0F0F0"/>
<path d="M410.854 199.382L598.344 199.382V144.782L410.854 144.782V199.382Z" fill="#E0E0E0"/>
<path d="M587.697 199.382H598.344V153.618H587.697V199.382Z" fill="#EBEBEB"/>
<path d="M536.197 199.382H546.844V153.618H536.197V199.382Z" fill="#EBEBEB"/>
<path d="M469.961 197.558L480.453 199.366L488.232 154.267L477.74 152.459L469.961 197.558Z" fill="#EBEBEB"/>
<path d="M574.506 199.382H585.152V159.654H574.506V199.382Z" fill="#EBEBEB"/>
<path d="M550.018 199.382H560.664V159.654H550.018V199.382Z" fill="#EBEBEB"/>
<path d="M488.229 199.382H498.875V159.654H488.229V199.382Z" fill="#EBEBEB"/>
<path d="M513.607 197.057L524 199.366L532.624 160.583L522.231 158.275L513.607 197.057Z" fill="#EBEBEB"/>
<path d="M565.29 199.382H570.613V151.353H565.29V199.382Z" fill="#EBEBEB"/>
<path d="M501.946 199.382H507.27V151.353H501.946V199.382Z" fill="#EBEBEB"/>
<path d="M598.346 208.026H410.855V262.626H598.346V208.026Z" fill="#E0E0E0"/>
<path d="M421.502 216.863H410.855V262.626H421.502V216.863Z" fill="#EBEBEB"/>
<path d="M473.006 216.863H462.359V262.626H473.006V216.863Z" fill="#EBEBEB"/>
<path d="M531.488 215.694L520.996 217.502L528.774 262.601L539.266 260.793L531.488 215.694Z" fill="#EBEBEB"/>
<path d="M434.701 222.898H424.055V262.626H434.701V222.898Z" fill="#EBEBEB"/>
<path d="M459.178 222.898H448.531V262.626H459.178V222.898Z" fill="#EBEBEB"/>
<path d="M520.975 222.898H510.328V262.626H520.975V222.898Z" fill="#EBEBEB"/>
<path d="M487.018 221.503L476.625 223.811L485.249 262.593L495.642 260.285L487.018 221.503Z" fill="#EBEBEB"/>
<path d="M443.913 214.597H438.59V262.626H443.913V214.597Z" fill="#EBEBEB"/>
<path d="M507.257 214.597H501.934V262.626H507.257V214.597Z" fill="#EBEBEB"/>
<path d="M587.697 262.626H598.344V216.862H587.697V262.626Z" fill="#EBEBEB"/>
<path d="M574.506 262.626H585.152V222.898H574.506V262.626Z" fill="#EBEBEB"/>
<path d="M550.018 262.626H560.664V222.898H550.018V262.626Z" fill="#EBEBEB"/>
<path d="M565.29 262.626H570.613V214.597H565.29V262.626Z" fill="#EBEBEB"/>
<path d="M410.854 325.87H598.344V271.27H410.854V325.87Z" fill="#E0E0E0"/>
<path d="M480.088 325.87H490.734V280.106H480.088V325.87Z" fill="#EBEBEB"/>
<path d="M413.856 324.04L424.348 325.847L432.126 280.748L421.634 278.941L413.856 324.04Z" fill="#EBEBEB"/>
<path d="M518.397 325.87H529.043V286.142H518.397V325.87Z" fill="#EBEBEB"/>
<path d="M493.908 325.87H504.555V286.142H493.908V325.87Z" fill="#EBEBEB"/>
<path d="M432.115 325.87H442.762V286.142H432.115V325.87Z" fill="#EBEBEB"/>
<path d="M457.498 323.539L467.891 325.847L476.515 287.064L466.122 284.756L457.498 323.539Z" fill="#EBEBEB"/>
<path d="M509.181 325.87H514.504V277.841H509.181V325.87Z" fill="#EBEBEB"/>
<path d="M445.837 325.87H451.16V277.841H445.837V325.87Z" fill="#EBEBEB"/>
<path d="M536.403 324.043L546.895 325.85L554.673 280.751L544.181 278.944L536.403 324.043Z" fill="#EBEBEB"/>
<path d="M554.658 325.87H565.305V286.142H554.658V325.87Z" fill="#EBEBEB"/>
<path d="M580.045 323.543L590.438 325.852L599.062 287.069L588.669 284.761L580.045 323.543Z" fill="#EBEBEB"/>
<path d="M568.36 325.87H573.684V277.841H568.36V325.87Z" fill="#EBEBEB"/>
<path d="M640.275 135.483H605.473V431.868H640.275V135.483Z" fill="#E0E0E0"/>
<path d="M155.697 71.8364C155.697 71.8364 153.952 60.332 162.347 52.9407C170.742 45.5493 170.011 41.1681 167.61 40.6018C165.21 40.0356 163.003 47.412 159.305 49.4387C159.305 49.4387 159.186 38.9179 162.943 35.0434C166.701 31.1689 168.654 21.1846 165.09 21.0057C161.527 20.8269 161.154 26.9665 160.408 31.2583C159.663 35.5501 155.697 41.6897 155.697 41.6897C155.697 41.6897 154.921 32.2716 152.491 28.3971C150.06 24.5226 156.532 15.6559 153.982 11.7814C151.432 7.90691 147.063 15.2983 147.421 23.5987C147.779 31.8991 153.385 40.7658 152.043 49.4387C152.043 49.4387 149.598 43.3438 147.406 42.7924C145.214 42.2411 142.933 38.2026 141.442 36.7124C139.951 35.2222 138.117 40.3932 141.442 45.1916C144.767 49.9901 153.266 62.8207 151.969 73.2074L155.697 71.8364Z" fill="#E6E6E6"/>
<path d="M160.726 66.6058L163.469 83.8623C163.67 85.1148 163.596 86.3958 163.253 87.617C162.91 88.8382 162.306 89.9704 161.482 90.9353C160.658 91.9003 159.635 92.675 158.482 93.206C157.329 93.7369 156.075 94.0114 154.806 94.0106H151.824C150.553 94.0136 149.297 93.7407 148.143 93.2107C146.988 92.6807 145.963 91.9062 145.138 90.941C144.312 89.9758 143.707 88.8429 143.363 87.6206C143.019 86.3984 142.945 85.116 143.146 83.8623L145.889 66.6058H160.726Z" fill="#E6E6E6"/>
<path d="M119.095 97.6317L313.594 97.6317V87.6474L119.095 87.6474V97.6317Z" fill="#E0E0E0"/>
<path d="M296.071 87.6475H304.645V50.8396H296.071V87.6475Z" fill="#EBEBEB"/>
<path d="M254.653 87.6475H263.227V50.8396H254.653V87.6475Z" fill="#EBEBEB"/>
<path d="M201.344 86.1921L209.793 87.6476L216.049 51.3746L207.6 49.9191L201.344 86.1921Z" fill="#EBEBEB"/>
<path d="M285.454 87.6475H294.027V55.6827H285.454V87.6475Z" fill="#EBEBEB"/>
<path d="M265.758 87.6475H274.332V55.6827H265.758V87.6475Z" fill="#EBEBEB"/>
<path d="M216.047 87.6475H224.621V55.6827H216.047V87.6475Z" fill="#EBEBEB"/>
<path d="M236.459 85.7716L244.828 87.6306L251.767 56.4272L243.397 54.5682L236.459 85.7716Z" fill="#EBEBEB"/>
<path d="M278.06 87.6326H282.34V48.9917H278.06V87.6326Z" fill="#EBEBEB"/>
<path d="M227.092 87.6326H231.371V48.9917H227.092V87.6326Z" fill="#EBEBEB"/>
<path d="M313.608 162.202H119.109V172.186H313.608V162.202Z" fill="#E0E0E0"/>
<path d="M136.628 125.394H128.055V162.202H136.628V125.394Z" fill="#EBEBEB"/>
<path d="M178.066 125.394H169.492V162.202H178.066V125.394Z" fill="#EBEBEB"/>
<path d="M225.105 124.467L216.656 125.922L222.912 162.195L231.362 160.74L225.105 124.467Z" fill="#EBEBEB"/>
<path d="M147.246 130.237H138.672V162.202H147.246V130.237Z" fill="#EBEBEB"/>
<path d="M166.945 130.237H158.371V162.202H166.945V130.237Z" fill="#EBEBEB"/>
<path d="M216.66 130.237H208.086V162.202H216.66V130.237Z" fill="#EBEBEB"/>
<path d="M189.331 129.12L180.961 130.979L187.9 162.183L196.269 160.324L189.331 129.12Z" fill="#EBEBEB"/>
<path d="M154.643 123.561H150.363V162.202H154.643V123.561Z" fill="#EBEBEB"/>
<path d="M205.604 123.561H201.324V162.202H205.604V123.561Z" fill="#EBEBEB"/>
<path d="M294.938 133.069H253.188V161.874H294.938V133.069Z" fill="#EBEBEB"/>
<path d="M515.43 71.5684C531.513 71.5684 544.551 58.5383 544.551 42.4649C544.551 26.3914 531.513 13.3613 515.43 13.3613C499.347 13.3613 486.309 26.3914 486.309 42.4649C486.309 58.5383 499.347 71.5684 515.43 71.5684Z" fill="#E0E0E0"/>
<path d="M515.427 67.2168C529.106 67.2168 540.194 56.1348 540.194 42.4646C540.194 28.7943 529.106 17.7124 515.427 17.7124C501.749 17.7124 490.66 28.7943 490.66 42.4646C490.66 56.1348 501.749 67.2168 515.427 67.2168Z" fill="#F0F0F0"/>
<path d="M514.263 25.4912V42.7924L502.781 36.2951" fill="#F0F0F0"/>
<path d="M514.262 44.2826C514.007 44.2786 513.756 44.2121 513.532 44.0888L502.05 37.5916C501.707 37.3975 501.454 37.0752 501.348 36.6953C501.242 36.3154 501.291 35.9089 501.484 35.5649C501.58 35.3929 501.709 35.2417 501.864 35.1199C502.019 34.9982 502.197 34.9084 502.387 34.8558C502.577 34.8031 502.775 34.7886 502.971 34.8131C503.167 34.8377 503.355 34.9007 503.527 34.9986L512.771 40.2292V25.4912C512.771 25.0959 512.928 24.7169 513.208 24.4374C513.488 24.158 513.867 24.001 514.262 24.001C514.658 24.001 515.037 24.158 515.317 24.4374C515.596 24.7169 515.754 25.0959 515.754 25.4912V42.7924C515.754 43.1876 515.596 43.5666 515.317 43.8461C515.037 44.1256 514.658 44.2826 514.262 44.2826Z" fill="#E0E0E0"/>
<path d="M372.772 500C532.442 500 661.88 492.447 661.88 483.131C661.88 473.814 532.442 466.262 372.772 466.262C213.102 466.262 83.6641 473.814 83.6641 483.131C83.6641 492.447 213.102 500 372.772 500Z" fill="#F5F5F5"/>
<path d="M630.004 53.1196H333.246V333.932H630.004V53.1196Z" fill="#407BFF"/>
<path d="M630.004 53.1196H333.246V333.932H630.004V53.1196Z" fill="#EEFBFF"/>
<path d="M630.004 53.1196H333.246V67.4106H630.004V53.1196Z" fill="#407BFF"/>
<path opacity="0.2" d="M630.003 67.4254H620.191V334.201H630.003V67.4254Z" fill="black"/>
<path opacity="0.6" d="M625.65 73.7438H624.755C623.372 73.7438 622.25 74.8646 622.25 76.2473V108.406C622.25 109.788 623.372 110.909 624.755 110.909H625.65C627.033 110.909 628.155 109.788 628.155 108.406V76.2473C628.155 74.8646 627.033 73.7438 625.65 73.7438Z" fill="white"/>
<path opacity="0.2" d="M613.704 251.793H339.343C339.147 251.789 338.959 251.709 338.82 251.57C338.681 251.431 338.601 251.244 338.598 251.048C338.598 250.85 338.676 250.66 338.816 250.521C338.956 250.381 339.145 250.302 339.343 250.302H613.704C613.902 250.302 614.092 250.381 614.232 250.521C614.372 250.66 614.45 250.85 614.45 251.048C614.45 251.245 614.372 251.435 614.232 251.574C614.092 251.714 613.902 251.793 613.704 251.793Z" fill="black"/>
<path opacity="0.2" d="M613.704 187.714H339.343C339.147 187.71 338.959 187.631 338.82 187.492C338.681 187.353 338.601 187.166 338.598 186.969C338.598 186.771 338.676 186.582 338.816 186.442C338.956 186.303 339.145 186.224 339.343 186.224H613.704C613.902 186.224 614.092 186.303 614.232 186.442C614.372 186.582 614.45 186.771 614.45 186.969C614.45 187.167 614.372 187.356 614.232 187.496C614.092 187.636 613.902 187.714 613.704 187.714Z" fill="black"/>
<path d="M613.72 73.729H339.418V115.648H613.72V73.729Z" fill="#31569A"/>
<path opacity="0.6" d="M626.588 60.272C626.588 60.9822 626.378 61.6765 625.983 62.267C625.588 62.8575 625.027 63.3177 624.37 63.5895C623.714 63.8613 622.991 63.9324 622.294 63.7939C621.597 63.6553 620.957 63.3133 620.455 62.8111C619.952 62.3089 619.61 61.6691 619.471 60.9725C619.333 60.276 619.404 59.554 619.676 58.8979C619.948 58.2417 620.408 57.6809 620.999 57.2863C621.59 56.8918 622.285 56.6812 622.995 56.6812C623.948 56.6812 624.862 57.0595 625.536 57.7329C626.21 58.4063 626.588 59.3196 626.588 60.272Z" fill="white"/>
<path opacity="0.6" d="M613.913 60.272C613.913 60.9822 613.702 61.6765 613.307 62.267C612.912 62.8575 612.351 63.3177 611.695 63.5895C611.038 63.8613 610.316 63.9324 609.619 63.7939C608.922 63.6553 608.281 63.3133 607.779 62.8111C607.276 62.3089 606.934 61.6691 606.796 60.9725C606.657 60.276 606.728 59.554 607 58.8979C607.272 58.2417 607.733 57.6809 608.323 57.2863C608.914 56.8918 609.609 56.6812 610.32 56.6812C611.272 56.6812 612.186 57.0595 612.86 57.7329C613.534 58.4063 613.913 59.3196 613.913 60.272Z" fill="white"/>
<path opacity="0.6" d="M601.237 60.272C601.237 60.9822 601.026 61.6765 600.631 62.267C600.236 62.8575 599.675 63.3177 599.019 63.5895C598.362 63.8613 597.64 63.9324 596.943 63.7939C596.246 63.6553 595.606 63.3133 595.103 62.8111C594.601 62.3089 594.258 61.6691 594.12 60.9725C593.981 60.276 594.052 59.554 594.324 58.8979C594.596 58.2417 595.057 57.6809 595.648 57.2863C596.238 56.8918 596.933 56.6812 597.644 56.6812C598.597 56.6812 599.511 57.0595 600.184 57.7329C600.858 58.4063 601.237 59.3196 601.237 60.272Z" fill="white"/>
<path opacity="0.4" d="M351.169 143.723C349.432 143.723 347.734 143.209 346.29 142.244C344.846 141.28 343.72 139.909 343.055 138.305C342.391 136.701 342.217 134.936 342.555 133.234C342.894 131.531 343.731 129.967 344.959 128.74C346.187 127.512 347.752 126.676 349.456 126.338C351.16 125.999 352.925 126.173 354.53 126.837C356.135 127.501 357.507 128.626 358.472 130.07C359.437 131.513 359.952 133.21 359.952 134.946C359.948 137.273 359.021 139.503 357.375 141.148C355.729 142.794 353.497 143.72 351.169 143.723Z" fill="black"/>
<path d="M352.244 131.608V138.269H350.753V132.845H349.426V131.608H352.244Z" fill="white"/>
<path opacity="0.4" d="M601.851 126.437H368.212C367.273 126.437 366.512 127.198 366.512 128.136V129.194C366.512 130.132 367.273 130.893 368.212 130.893H601.851C602.79 130.893 603.551 130.132 603.551 129.194V128.136C603.551 127.198 602.79 126.437 601.851 126.437Z" fill="black"/>
<path opacity="0.4" d="M601.851 138.016H368.212C367.273 138.016 366.512 138.777 366.512 139.715V140.773C366.512 141.711 367.273 142.472 368.212 142.472H601.851C602.79 142.472 603.551 141.711 603.551 140.773V139.715C603.551 138.777 602.79 138.016 601.851 138.016Z" fill="black"/>
<path opacity="0.4" d="M521.034 149.58H368.212C367.273 149.58 366.512 150.341 366.512 151.279V152.337C366.512 153.275 367.273 154.036 368.212 154.036H521.034C521.973 154.036 522.734 153.275 522.734 152.337V151.279C522.734 150.341 521.973 149.58 521.034 149.58Z" fill="black"/>
<path opacity="0.2" d="M370.598 175.852C372.846 175.852 374.669 174.031 374.669 171.784C374.669 169.537 372.846 167.716 370.598 167.716C368.35 167.716 366.527 169.537 366.527 171.784C366.527 174.031 368.35 175.852 370.598 175.852Z" fill="black"/>
<path d="M373.401 171.784C373.404 172.342 373.241 172.888 372.932 173.354C372.624 173.819 372.184 174.182 371.669 174.397C371.153 174.612 370.585 174.669 370.037 174.561C369.489 174.453 368.986 174.184 368.591 173.79C368.196 173.395 367.927 172.892 367.819 172.344C367.711 171.796 367.768 171.229 367.983 170.714C368.198 170.199 368.562 169.759 369.027 169.451C369.493 169.142 370.04 168.979 370.598 168.982C371.342 168.982 372.055 169.277 372.58 169.803C373.106 170.328 373.401 171.041 373.401 171.784Z" fill="white"/>
<path opacity="0.4" d="M423.353 169.564H383.899C382.96 169.564 382.199 170.324 382.199 171.262V172.32C382.199 173.259 382.96 174.019 383.899 174.019H423.353C424.292 174.019 425.053 173.259 425.053 172.32V171.262C425.053 170.324 424.292 169.564 423.353 169.564Z" fill="black"/>
<path opacity="0.2" d="M457.38 171.695C457.38 172.499 457.141 173.286 456.694 173.955C456.246 174.624 455.611 175.145 454.867 175.453C454.123 175.761 453.304 175.842 452.515 175.685C451.725 175.528 451 175.14 450.431 174.571C449.861 174.002 449.474 173.277 449.316 172.488C449.159 171.699 449.24 170.881 449.548 170.138C449.856 169.394 450.378 168.759 451.047 168.312C451.717 167.865 452.504 167.626 453.309 167.626C454.389 167.626 455.424 168.055 456.187 168.818C456.951 169.581 457.38 170.616 457.38 171.695Z" fill="black"/>
<path d="M456.128 171.694C456.131 172.252 455.968 172.798 455.66 173.263C455.352 173.728 454.913 174.091 454.399 174.306C453.884 174.522 453.317 174.58 452.769 174.473C452.222 174.366 451.718 174.099 451.323 173.706C450.927 173.312 450.657 172.811 450.547 172.264C450.437 171.717 450.492 171.15 450.705 170.635C450.918 170.119 451.279 169.679 451.743 169.369C452.207 169.058 452.752 168.893 453.31 168.893C454.055 168.893 454.769 169.188 455.297 169.712C455.825 170.237 456.124 170.95 456.128 171.694Z" fill="#F26D0C"/>
<path opacity="0.4" d="M506.091 169.474H466.622C465.683 169.474 464.922 170.235 464.922 171.173V172.231C464.922 173.169 465.683 173.93 466.622 173.93H506.091C507.03 173.93 507.791 173.169 507.791 172.231V171.173C507.791 170.235 507.03 169.474 506.091 169.474Z" fill="black"/>
<path opacity="0.2" d="M540.106 171.605C540.106 172.41 539.867 173.196 539.42 173.865C538.973 174.534 538.337 175.056 537.593 175.364C536.849 175.672 536.031 175.752 535.241 175.595C534.452 175.438 533.726 175.051 533.157 174.482C532.588 173.913 532.2 173.188 532.043 172.399C531.886 171.61 531.967 170.792 532.275 170.048C532.583 169.305 533.105 168.67 533.774 168.222C534.443 167.775 535.23 167.537 536.036 167.537C537.115 167.537 538.151 167.965 538.914 168.728C539.677 169.491 540.106 170.526 540.106 171.605Z" fill="black"/>
<path d="M538.85 171.605C538.85 172.162 538.685 172.706 538.375 173.169C538.066 173.632 537.626 173.993 537.111 174.206C536.596 174.419 536.029 174.475 535.483 174.367C534.936 174.258 534.434 173.99 534.04 173.596C533.646 173.202 533.378 172.7 533.269 172.154C533.16 171.608 533.216 171.042 533.429 170.527C533.643 170.012 534.004 169.573 534.467 169.263C534.931 168.954 535.475 168.789 536.033 168.789C536.78 168.789 537.497 169.085 538.025 169.613C538.554 170.141 538.85 170.858 538.85 171.605Z" fill="white"/>
<path opacity="0.4" d="M588.803 169.37H549.348C548.41 169.37 547.648 170.13 547.648 171.069V172.127C547.648 173.065 548.41 173.826 549.348 173.826H588.803C589.741 173.826 590.502 173.065 590.502 172.127V171.069C590.502 170.13 589.741 169.37 588.803 169.37Z" fill="black"/>
<path opacity="0.4" d="M351.169 217.965C356.02 217.965 359.952 214.035 359.952 209.188C359.952 204.34 356.02 200.411 351.169 200.411C346.319 200.411 342.387 204.34 342.387 209.188C342.387 214.035 346.319 217.965 351.169 217.965Z" fill="black"/>
<path d="M353.701 211.318V212.57H348.677V211.557L351.241 209.128C351.838 208.562 351.942 208.219 351.942 207.906C351.942 207.593 351.584 207.072 350.869 207.072C350.603 207.063 350.338 207.119 350.099 207.236C349.86 207.353 349.653 207.527 349.497 207.742L348.379 207.012C348.684 206.606 349.084 206.28 349.544 206.065C350.004 205.849 350.51 205.75 351.018 205.775C352.509 205.775 353.493 206.535 353.493 207.742C353.484 208.155 353.378 208.561 353.184 208.926C352.99 209.291 352.713 209.605 352.374 209.843L350.884 211.333L353.701 211.318Z" fill="white"/>
<path opacity="0.4" d="M601.851 200.724H368.212C367.273 200.724 366.512 201.484 366.512 202.422V203.481C366.512 204.419 367.273 205.179 368.212 205.179H601.851C602.79 205.179 603.551 204.419 603.551 203.481V202.422C603.551 201.484 602.79 200.724 601.851 200.724Z" fill="black"/>
<path opacity="0.4" d="M412.616 212.287H368.212C367.273 212.287 366.512 213.048 366.512 213.986V215.044C366.512 215.983 367.273 216.743 368.212 216.743H412.616C413.555 216.743 414.316 215.983 414.316 215.044V213.986C414.316 213.048 413.555 212.287 412.616 212.287Z" fill="black"/>
<path opacity="0.2" d="M370.598 238.381C372.846 238.381 374.669 236.559 374.669 234.313C374.669 232.066 372.846 230.244 370.598 230.244C368.35 230.244 366.527 232.066 366.527 234.313C366.527 236.559 368.35 238.381 370.598 238.381Z" fill="black"/>
<path d="M370.599 237.128C372.155 237.128 373.417 235.867 373.417 234.312C373.417 232.757 372.155 231.496 370.599 231.496C369.043 231.496 367.781 232.757 367.781 234.312C367.781 235.867 369.043 237.128 370.599 237.128Z" fill="white"/>
<path opacity="0.4" d="M423.353 232.092H383.899C382.96 232.092 382.199 232.853 382.199 233.791V234.849C382.199 235.787 382.96 236.548 383.899 236.548H423.353C424.292 236.548 425.053 235.787 425.053 234.849V233.791C425.053 232.853 424.292 232.092 423.353 232.092Z" fill="black"/>
<path opacity="0.2" d="M453.309 238.292C455.557 238.292 457.38 236.47 457.38 234.223C457.38 231.976 455.557 230.155 453.309 230.155C451.061 230.155 449.238 231.976 449.238 234.223C449.238 236.47 451.061 238.292 453.309 238.292Z" fill="black"/>
<path d="M453.31 237.039C454.866 237.039 456.128 235.778 456.128 234.223C456.128 232.668 454.866 231.407 453.31 231.407C451.754 231.407 450.492 232.668 450.492 234.223C450.492 235.778 451.754 237.039 453.31 237.039Z" fill="white"/>
<path opacity="0.4" d="M506.091 231.988H466.622C465.683 231.988 464.922 232.749 464.922 233.687V234.745C464.922 235.683 465.683 236.444 466.622 236.444H506.091C507.03 236.444 507.791 235.683 507.791 234.745V233.687C507.791 232.749 507.03 231.988 506.091 231.988Z" fill="black"/>
<path opacity="0.2" d="M540.106 234.134C540.106 234.938 539.867 235.725 539.42 236.394C538.973 237.063 538.337 237.584 537.593 237.892C536.849 238.2 536.031 238.281 535.241 238.124C534.452 237.967 533.726 237.579 533.157 237.01C532.588 236.442 532.2 235.717 532.043 234.927C531.886 234.138 531.967 233.32 532.275 232.577C532.583 231.834 533.105 231.198 533.774 230.751C534.443 230.304 535.23 230.066 536.036 230.066C537.115 230.066 538.151 230.494 538.914 231.257C539.677 232.02 540.106 233.055 540.106 234.134Z" fill="black"/>
<path d="M538.85 234.133C538.85 234.69 538.685 235.235 538.375 235.698C538.066 236.161 537.626 236.522 537.111 236.735C536.596 236.948 536.029 237.004 535.483 236.895C534.936 236.787 534.434 236.518 534.04 236.125C533.646 235.731 533.378 235.229 533.269 234.683C533.16 234.136 533.216 233.57 533.429 233.056C533.643 232.541 534.004 232.101 534.467 231.792C534.931 231.482 535.475 231.317 536.033 231.317C536.78 231.317 537.497 231.614 538.025 232.142C538.554 232.67 538.85 233.386 538.85 234.133Z" fill="#F26D0C"/>
<path opacity="0.4" d="M588.803 231.898H549.348C548.41 231.898 547.648 232.659 547.648 233.597V234.655C547.648 235.594 548.41 236.354 549.348 236.354H588.803C589.741 236.354 590.502 235.594 590.502 234.655V233.597C590.502 232.659 589.741 231.898 588.803 231.898Z" fill="black"/>
<path opacity="0.4" d="M351.169 282.431C349.432 282.431 347.734 281.916 346.29 280.952C344.846 279.987 343.72 278.616 343.055 277.013C342.391 275.409 342.217 273.644 342.555 271.941C342.894 270.239 343.731 268.675 344.959 267.447C346.187 266.22 347.752 265.384 349.456 265.045C351.16 264.706 352.925 264.88 354.53 265.545C356.135 266.209 357.507 267.334 358.472 268.777C359.437 270.221 359.952 271.918 359.952 273.654C359.952 275.982 359.027 278.214 357.379 279.86C355.732 281.506 353.499 282.431 351.169 282.431Z" fill="black"/>
<path d="M353.644 274.89C353.644 276.008 352.78 277.036 350.886 277.036C349.989 277.057 349.105 276.808 348.352 276.32L348.948 275.143C349.502 275.533 350.164 275.741 350.841 275.739C351.617 275.739 352.094 275.426 352.094 274.89C352.094 274.354 351.721 274.071 350.841 274.071H350.141V273.057L351.512 271.567H348.68V270.331H353.391V271.329L351.9 273.042C352.369 273.076 352.809 273.284 353.132 273.627C353.455 273.969 353.638 274.42 353.644 274.89Z" fill="white"/>
<path opacity="0.4" d="M601.851 265.13H368.212C367.273 265.13 366.512 265.891 366.512 266.829V267.887C366.512 268.825 367.273 269.586 368.212 269.586H601.851C602.79 269.586 603.551 268.825 603.551 267.887V266.829C603.551 265.891 602.79 265.13 601.851 265.13Z" fill="black"/>
<path opacity="0.4" d="M601.851 276.694H368.212C367.273 276.694 366.512 277.454 366.512 278.393V279.451C366.512 280.389 367.273 281.15 368.212 281.15H601.851C602.79 281.15 603.551 280.389 603.551 279.451V278.393C603.551 277.454 602.79 276.694 601.851 276.694Z" fill="black"/>
<path opacity="0.4" d="M485.247 288.273H368.212C367.273 288.273 366.512 289.033 366.512 289.972V291.03C366.512 291.968 367.273 292.728 368.212 292.728H485.247C486.186 292.728 486.947 291.968 486.947 291.03V289.972C486.947 289.033 486.186 288.273 485.247 288.273Z" fill="black"/>
<path opacity="0.4" d="M456.783 306.691H449.835C449.505 306.691 449.238 306.958 449.238 307.287V314.232C449.238 314.561 449.505 314.828 449.835 314.828H456.783C457.113 314.828 457.38 314.561 457.38 314.232V307.287C457.38 306.958 457.113 306.691 456.783 306.691Z" fill="black"/>
<path d="M456.41 313.858V307.675H450.223V313.858H456.41Z" fill="white"/>
<path opacity="0.4" d="M506.091 308.539H466.622C465.683 308.539 464.922 309.3 464.922 310.238V311.296C464.922 312.234 465.683 312.995 466.622 312.995H506.091C507.03 312.995 507.791 312.234 507.791 311.296V310.238C507.791 309.3 507.03 308.539 506.091 308.539Z" fill="black"/>
<path d="M452.977 312.547C452.93 312.548 452.883 312.54 452.84 312.522C452.796 312.504 452.757 312.477 452.724 312.443L451.233 311.043C451.164 310.97 451.125 310.874 451.125 310.774C451.125 310.674 451.164 310.578 451.233 310.506C451.268 310.47 451.309 310.441 451.355 310.422C451.402 310.402 451.451 310.392 451.501 310.392C451.551 310.392 451.601 310.402 451.647 310.422C451.693 310.441 451.735 310.47 451.77 310.506L453.037 311.653L455.199 309.091C455.262 309.014 455.353 308.965 455.453 308.955C455.552 308.945 455.651 308.975 455.728 309.039C455.805 309.102 455.854 309.193 455.864 309.292C455.873 309.391 455.843 309.49 455.78 309.567L453.29 312.413C453.224 312.487 453.135 312.534 453.037 312.547H452.977Z" fill="#407BFF"/>
<path opacity="0.4" d="M539.51 306.602H532.561C532.232 306.602 531.965 306.869 531.965 307.198V314.143C531.965 314.472 532.232 314.739 532.561 314.739H539.51C539.839 314.739 540.106 314.472 540.106 314.143V307.198C540.106 306.869 539.839 306.602 539.51 306.602Z" fill="black"/>
<path d="M539.121 313.769V307.586H532.934V313.769H539.121Z" fill="white"/>
<path opacity="0.4" d="M588.803 308.435H549.348C548.41 308.435 547.648 309.196 547.648 310.134V311.192C547.648 312.13 548.41 312.891 549.348 312.891H588.803C589.741 312.891 590.502 312.13 590.502 311.192V310.134C590.502 309.196 589.741 308.435 588.803 308.435Z" fill="black"/>
<path d="M535.71 312.458C535.616 312.453 535.527 312.416 535.456 312.354L533.965 310.938C533.922 310.907 533.886 310.868 533.859 310.822C533.832 310.775 533.816 310.724 533.81 310.671C533.805 310.618 533.811 310.565 533.829 310.514C533.846 310.464 533.874 310.418 533.91 310.379C533.947 310.34 533.991 310.31 534.041 310.29C534.09 310.27 534.143 310.26 534.197 310.262C534.25 310.265 534.302 310.278 534.35 310.302C534.397 310.326 534.439 310.36 534.472 310.402L535.725 311.549L537.901 308.986C537.93 308.943 537.968 308.906 538.013 308.878C538.057 308.85 538.107 308.831 538.159 308.824C538.211 308.816 538.264 308.82 538.314 308.834C538.365 308.849 538.412 308.874 538.452 308.908C538.492 308.941 538.525 308.983 538.547 309.031C538.57 309.078 538.583 309.129 538.584 309.182C538.586 309.234 538.576 309.286 538.556 309.335C538.536 309.383 538.506 309.427 538.468 309.463L536.053 312.324C535.981 312.397 535.886 312.444 535.784 312.458H535.71Z" fill="#407BFF"/>
<path opacity="0.4" d="M374.057 306.781H367.108C366.779 306.781 366.512 307.048 366.512 307.377V314.321C366.512 314.65 366.779 314.917 367.108 314.917H374.057C374.386 314.917 374.653 314.65 374.653 314.321V307.377C374.653 307.048 374.386 306.781 374.057 306.781Z" fill="black"/>
<path d="M373.688 313.948V307.764H367.5V313.948H373.688Z" fill="white"/>
<path opacity="0.4" d="M423.353 308.629H383.899C382.96 308.629 382.199 309.389 382.199 310.328V311.386C382.199 312.324 382.96 313.085 383.899 313.085H423.353C424.292 313.085 425.053 312.324 425.053 311.386V310.328C425.053 309.389 424.292 308.629 423.353 308.629Z" fill="black"/>
<path d="M597.759 103.212C602.377 98.597 602.377 91.1147 597.759 86.4998C593.141 81.8848 585.655 81.8848 581.037 86.4998C576.419 91.1147 576.419 98.597 581.037 103.212C585.655 107.827 593.141 107.827 597.759 103.212Z" fill="white"/>
<path opacity="0.2" d="M599.867 89.361L589.43 94.8747V83.0575C591.578 83.0613 593.685 83.6501 595.524 84.7607C597.363 85.8713 598.865 87.4617 599.867 89.361Z" fill="black"/>
<path d="M567.194 458.602C567.194 458.602 573.636 428.158 561.901 411.676C550.166 395.194 572.502 411.482 575.082 426.921C575.082 426.921 578.929 399.322 567.537 379.92C556.145 360.518 577.453 376.433 579.272 396.446C579.272 396.446 582.761 371.828 577.527 357.984C572.294 344.14 581.389 353.052 584.893 361.725C588.398 370.398 583.805 391.871 583.805 391.871C583.805 391.871 592.93 352.158 601.579 355.317C610.227 358.476 588.651 384.495 585.669 398.026C585.669 398.026 595.853 379.816 603.562 383.616C611.271 387.416 591.633 389.293 582.567 416.4L579.421 429.126C579.421 429.126 588.8 411.154 594.929 416.832C601.057 422.51 576.752 432.285 571.071 459.526L567.194 458.602Z" fill="#263238"/>
<path d="M568.461 460.42C568.461 460.42 569.803 422.048 588.784 405.805C607.766 389.561 576.14 402.422 568.461 420.14C568.461 420.14 572.069 385.94 591.483 366.076C610.897 346.212 580.643 358.968 572.517 382.379C572.517 382.379 575.678 351.859 586.071 336.853C596.463 321.847 582.909 329.775 576.14 339.118C569.37 348.462 568.461 375.479 568.461 375.479C568.461 375.479 569.355 325.2 558.023 326.422C546.691 327.644 564.793 365.167 564.345 382.304C564.345 382.304 557.561 357.463 547.183 359.698C536.805 361.933 559.827 370.129 562.541 405.268V421.466C562.541 421.466 556.666 397.146 547.63 402.094C538.594 407.041 564.793 426.026 563.436 460.331L568.461 460.42Z" fill="#263238"/>
<path opacity="0.2" d="M568.461 460.42C568.461 460.42 569.803 422.048 588.784 405.805C607.766 389.561 576.14 402.422 568.461 420.14C568.461 420.14 572.069 385.94 591.483 366.076C610.897 346.212 580.643 358.968 572.517 382.379C572.517 382.379 575.678 351.859 586.071 336.853C596.463 321.847 582.909 329.775 576.14 339.118C569.37 348.462 568.461 375.479 568.461 375.479C568.461 375.479 569.355 325.2 558.023 326.422C546.691 327.644 564.793 365.167 564.345 382.304C564.345 382.304 557.561 357.463 547.183 359.698C536.805 361.933 559.827 370.129 562.541 405.268V421.466C562.541 421.466 556.666 397.146 547.63 402.094C538.594 407.041 564.793 426.026 563.436 460.331L568.461 460.42Z" fill="white"/>
<path d="M577.828 487.378H554.835C550.485 487.378 546.313 485.651 543.237 482.577C540.161 479.503 538.433 475.333 538.433 470.986V467.901H594.215V470.986C594.215 475.331 592.489 479.498 589.416 482.571C586.343 485.645 582.175 487.374 577.828 487.378Z" fill="#F26D0C"/>
<path d="M537.417 474.085H595.242C598.709 474.085 601.52 471.277 601.52 467.812V462.924C601.52 459.459 598.709 456.65 595.242 456.65H537.417C533.95 456.65 531.14 459.459 531.14 462.924V467.812C531.14 471.277 533.95 474.085 537.417 474.085Z" fill="#407BFF"/>
<path opacity="0.2" d="M537.417 474.085H595.242C598.709 474.085 601.52 471.277 601.52 467.812V462.924C601.52 459.459 598.709 456.65 595.242 456.65H537.417C533.95 456.65 531.14 459.459 531.14 462.924V467.812C531.14 471.277 533.95 474.085 537.417 474.085Z" fill="#F26D0C"/>
<path d="M256.035 277.826C255.826 278.257 255.736 278.735 255.774 279.212C255.811 279.689 255.975 280.147 256.248 280.54C256.521 280.933 256.894 281.246 257.328 281.447C257.762 281.649 258.242 281.731 258.719 281.686H329.337C330.511 281.629 331.644 281.235 332.599 280.55C333.554 279.866 334.29 278.92 334.72 277.826L349.631 234.76C349.779 234.359 349.855 233.935 349.854 233.508C349.852 233.14 349.773 232.777 349.622 232.442C349.471 232.107 349.252 231.807 348.978 231.561C348.704 231.315 348.382 231.13 348.032 231.016C347.683 230.902 347.313 230.863 346.947 230.9H276.373C275.199 230.957 274.067 231.351 273.112 232.036C272.157 232.72 271.42 233.666 270.991 234.76L256.035 277.826Z" fill="#263238"/>
<path d="M329.875 279.525C330.451 279.499 331.006 279.306 331.475 278.97C331.943 278.634 332.304 278.169 332.514 277.633L347.425 234.566C347.487 234.394 347.518 234.212 347.514 234.03C347.514 233.433 347.082 233.061 346.396 233.061H275.852C275.277 233.088 274.721 233.281 274.252 233.617C273.784 233.952 273.423 234.417 273.213 234.953L258.302 278.02C258.226 278.194 258.193 278.384 258.206 278.573C258.219 278.763 258.277 278.946 258.377 279.108C258.488 279.252 258.634 279.365 258.801 279.438C258.967 279.511 259.15 279.541 259.331 279.525H329.875Z" fill="#407BFF"/>
<path opacity="0.8" d="M329.875 279.525C330.451 279.499 331.006 279.306 331.475 278.97C331.943 278.634 332.304 278.169 332.514 277.633L347.425 234.566C347.487 234.394 347.518 234.212 347.514 234.03C347.514 233.433 347.082 233.061 346.396 233.061H275.852C275.277 233.088 274.721 233.281 274.252 233.617C273.784 233.952 273.423 234.417 273.213 234.953L258.302 278.02C258.226 278.194 258.193 278.384 258.206 278.573C258.219 278.763 258.277 278.946 258.377 279.108C258.488 279.252 258.634 279.365 258.801 279.438C258.967 279.511 259.15 279.541 259.331 279.525H329.875Z" fill="white"/>
<path d="M225.812 278.497V280.479L239.799 284.07H329.011C329.672 284.07 330.305 283.808 330.772 283.341C331.239 282.875 331.501 282.242 331.501 281.582V278.497H225.812Z" fill="#263238"/>
<path opacity="0.2" d="M300.457 278.497V280.479L314.458 284.07H239.799L225.812 280.479V278.497H300.457Z" fill="white"/>
<g opacity="0.2">
<path d="M342.98 243.179H271.602L274.375 235.4H345.754L342.98 243.179Z" fill="#407BFF"/>
</g>
<g opacity="0.1">
<path d="M339.399 253.193H268.02C267.812 253.193 267.707 253.029 267.782 252.806C267.822 252.701 267.891 252.609 267.981 252.541C268.07 252.472 268.177 252.43 268.289 252.418H339.682C339.876 252.418 339.981 252.597 339.906 252.806C339.87 252.914 339.803 253.009 339.712 253.078C339.622 253.147 339.513 253.187 339.399 253.193Z" fill="black"/>
</g>
<g opacity="0.1">
<path d="M335.493 264.117H264.114C263.905 264.117 263.801 263.938 263.876 263.729C263.917 263.622 263.988 263.529 264.081 263.46C264.173 263.392 264.283 263.351 264.397 263.342H335.776C335.985 263.342 336.089 263.506 336.015 263.729C335.973 263.836 335.902 263.929 335.81 263.998C335.717 264.066 335.607 264.108 335.493 264.117Z" fill="black"/>
</g>
<g opacity="0.1">
<path d="M331.606 275.04H260.227C260.019 275.04 259.914 274.861 259.989 274.652C260.024 274.542 260.091 274.446 260.181 274.374C260.271 274.302 260.381 274.259 260.496 274.25H331.875C332.083 274.25 332.188 274.429 332.113 274.652C332.074 274.758 332.006 274.851 331.916 274.919C331.826 274.988 331.719 275.03 331.606 275.04Z" fill="black"/>
</g>
<path d="M307.867 487.199H315.636L329.607 292.818H319.289L307.867 487.199Z" fill="#263238"/>
<path opacity="0.2" d="M307.852 487.199H315.635L328.921 302.474L329.607 293.131H319.288L318.737 302.474L307.852 487.199Z" fill="white"/>
<path opacity="0.2" d="M318.734 302.012H328.919L329.604 293.131H319.286L318.734 302.012Z" fill="black"/>
<path d="M250.799 487.199H258.567L259.835 292.818H249.531L250.799 487.199Z" fill="#263238"/>
<path opacity="0.3" d="M249.52 293.131L249.728 324.484L250.787 487.199H258.57L259.644 324.484L259.838 293.131H249.52Z" fill="white"/>
<path opacity="0.2" d="M249.52 293.131L249.728 324.842H259.644L259.838 293.131H249.52Z" fill="black"/>
<path d="M168.254 487.199H176.023L189.994 292.818H179.676L168.254 487.199Z" fill="#263238"/>
<path opacity="0.3" d="M168.254 487.199H176.023L189.323 302.474L189.994 293.131H179.676L179.124 302.474L168.254 487.199Z" fill="white"/>
<path opacity="0.2" d="M179.125 302.012H189.324L189.995 293.131H179.677L179.125 302.012Z" fill="black"/>
<path d="M396.811 487.199H404.58L393.158 292.818H382.84L396.811 487.199Z" fill="#263238"/>
<path opacity="0.3" d="M382.84 293.131L383.526 302.474L396.811 487.199H404.58L393.71 302.474L393.158 293.131H382.84Z" fill="white"/>
<path opacity="0.2" d="M393.158 293.131H382.84L383.526 302.012H393.71L393.158 293.131Z" fill="black"/>
<path d="M398.109 297.691H174.713C174.29 297.691 173.871 297.607 173.481 297.446C173.09 297.284 172.735 297.047 172.436 296.748C172.137 296.449 171.899 296.094 171.738 295.704C171.576 295.313 171.492 294.894 171.492 294.472V287.96H401.359V294.472C401.359 294.897 401.275 295.318 401.111 295.71C400.948 296.103 400.708 296.459 400.406 296.758C400.103 297.058 399.745 297.294 399.35 297.454C398.956 297.614 398.534 297.694 398.109 297.691Z" fill="#407BFF"/>
<path opacity="0.2" d="M171.506 292.818H401.328V287.945H171.506V292.818Z" fill="black"/>
<path d="M166.689 289.211H406.144C406.871 289.211 407.569 288.923 408.084 288.408C408.598 287.894 408.887 287.197 408.887 286.469C408.887 285.742 408.598 285.045 408.084 284.531C407.569 284.016 406.871 283.728 406.144 283.728H166.689C165.961 283.728 165.263 284.016 164.749 284.531C164.234 285.045 163.945 285.742 163.945 286.469C163.945 287.197 164.234 287.894 164.749 288.408C165.263 288.923 165.961 289.211 166.689 289.211Z" fill="#407BFF"/>
<path d="M398.491 276.828C398.596 279.194 398.162 281.553 397.223 283.728H342.664V282.431H343.767V271.165H342.664V269.869H397.223C398.157 272.066 398.59 274.443 398.491 276.828Z" fill="#263238"/>
<path opacity="0.2" d="M398.491 276.828C398.596 279.194 398.162 281.553 397.223 283.728H342.664V282.431H343.767V271.165H342.664V269.869H397.223C398.157 272.066 398.59 274.443 398.491 276.828Z" fill="white"/>
<path opacity="0.2" d="M369.3 276.828C369.405 279.194 368.971 281.553 368.032 283.728H342.684V282.431H343.787V271.165H342.684V269.869H368.032C368.966 272.066 369.399 274.443 369.3 276.828Z" fill="black"/>
<path opacity="0.8" d="M366.617 276.828C366.703 278.749 366.351 280.665 365.588 282.431H343.773V271.165H365.588C366.345 272.954 366.697 274.888 366.617 276.828Z" fill="white"/>
<path opacity="0.6" d="M389.609 276.828C389.714 279.194 389.281 281.553 388.342 283.727H378.188C379.127 281.553 379.56 279.194 379.455 276.828C379.547 274.458 379.115 272.097 378.188 269.913H388.342C389.269 272.097 389.702 274.458 389.609 276.828Z" fill="white"/>
<path d="M403.354 263.014C403.459 265.38 403.025 267.739 402.086 269.913H347.527V268.617H348.631V257.396H347.527V256.099H402.086C403.011 258.284 403.443 260.644 403.354 263.014Z" fill="#F26D0C"/>
<path opacity="0.2" d="M374.159 263.014C374.264 265.38 373.831 267.739 372.892 269.913H347.543V268.617H348.646V257.396H347.543V256.099H372.892C373.816 258.284 374.249 260.644 374.159 263.014Z" fill="black"/>
<path opacity="0.8" d="M371.476 263.014C371.563 264.935 371.211 266.851 370.448 268.617H348.633V257.396H370.448C371.198 259.17 371.55 261.088 371.476 263.014Z" fill="white"/>
<path opacity="0.2" d="M394.469 263.014C394.574 265.38 394.14 267.739 393.201 269.913H383.047C383.986 267.739 384.419 265.38 384.314 263.014C384.404 260.644 383.971 258.284 383.047 256.099H393.201C394.126 258.284 394.558 260.644 394.469 263.014Z" fill="black"/>
<path d="M220.307 453.968L215.506 476.172L204.129 475.978L208.885 453.968H220.307Z" fill="#EBB376"/>
<path opacity="0.2" d="M220.322 453.968L217.937 464.95L206.664 464.19L208.886 453.968H220.322Z" fill="black"/>
<path d="M217.221 475.605H217.459C217.459 475.605 217.713 475.694 217.742 475.724C217.772 475.754 217.742 475.724 217.742 475.724C217.756 475.73 217.772 475.734 217.787 475.734C217.803 475.734 217.818 475.73 217.832 475.724C218.8 476.035 219.8 476.235 220.814 476.32C221.563 476.457 222.336 476.303 222.975 475.888C223.185 475.709 223.337 475.472 223.412 475.206C223.486 474.941 223.479 474.659 223.393 474.398C223.372 474.227 223.309 474.065 223.21 473.925C223.112 473.784 222.98 473.67 222.826 473.593C221.737 473.413 220.619 473.619 219.666 474.174C220.341 473.474 220.738 472.553 220.784 471.582C220.742 471.353 220.626 471.144 220.453 470.988C220.281 470.832 220.062 470.737 219.83 470.718C219.609 470.678 219.383 470.684 219.165 470.735C218.947 470.787 218.742 470.882 218.562 471.015C217.37 472.044 217.176 475.262 217.176 475.485L217.221 475.605ZM218.443 474.949L218.219 475.083C218.148 473.853 218.483 472.633 219.174 471.612C219.25 471.538 219.342 471.481 219.442 471.446C219.542 471.41 219.649 471.395 219.755 471.403H219.889C220.262 471.403 220.351 471.656 220.351 471.82C220.107 473.057 219.431 474.166 218.443 474.949ZM218.607 475.515C219.979 474.755 221.932 473.936 222.662 474.264C222.736 474.301 222.799 474.355 222.846 474.423C222.893 474.491 222.922 474.569 222.931 474.651C222.972 474.816 222.97 474.989 222.926 475.153C222.882 475.318 222.796 475.468 222.677 475.59C222.17 476.067 220.679 476.037 218.607 475.515Z" fill="#407BFF"/>
<path d="M216.95 474.219L204.201 473.43C204.095 473.417 203.988 473.426 203.885 473.455C203.783 473.484 203.687 473.534 203.604 473.6C203.521 473.667 203.452 473.749 203.401 473.843C203.349 473.936 203.317 474.039 203.306 474.145L202.054 484.204C202.025 484.732 202.204 485.25 202.552 485.648C202.9 486.046 203.39 486.293 203.918 486.335C208.391 486.528 210.508 486.409 216.115 486.707C221.096 487.237 226.109 487.416 231.115 487.244C235.872 486.782 235.29 482.088 233.233 481.864C228.372 481.313 221.93 477.736 218.873 475.024C218.339 474.551 217.662 474.268 216.95 474.219Z" fill="#263238"/>
<path d="M286.916 453.968L282.115 476.172L270.723 475.978L275.494 453.968H286.916Z" fill="#EBB376"/>
<path opacity="0.2" d="M286.916 453.968L284.53 464.95L273.258 464.19L275.48 453.968H286.916Z" fill="black"/>
<path d="M283.815 475.605H284.054C284.054 475.605 284.307 475.694 284.352 475.724C284.396 475.754 284.352 475.724 284.352 475.724C284.366 475.73 284.381 475.734 284.396 475.734C284.412 475.734 284.427 475.73 284.441 475.724C285.41 476.033 286.41 476.233 287.423 476.32C288.177 476.461 288.957 476.306 289.6 475.888C289.807 475.707 289.956 475.469 290.028 475.204C290.099 474.939 290.09 474.658 290.002 474.398C289.985 474.226 289.924 474.062 289.825 473.921C289.726 473.78 289.592 473.667 289.436 473.593C288.346 473.413 287.229 473.619 286.275 474.174C286.948 473.471 287.349 472.553 287.408 471.582C287.361 471.353 287.241 471.145 287.067 470.989C286.892 470.834 286.672 470.738 286.439 470.717C286.219 470.679 285.993 470.685 285.775 470.737C285.557 470.788 285.352 470.883 285.172 471.015C283.979 472.044 283.785 475.262 283.785 475.485L283.815 475.605ZM285.037 474.949L284.814 475.083C284.75 473.853 285.084 472.636 285.768 471.611C285.845 471.539 285.937 471.483 286.037 471.447C286.137 471.411 286.243 471.396 286.349 471.403H286.484C286.856 471.403 286.946 471.656 286.961 471.82C286.703 473.055 286.023 474.161 285.037 474.949ZM285.201 475.515C286.573 474.755 288.526 473.936 289.257 474.264C289.33 474.301 289.393 474.355 289.44 474.423C289.487 474.491 289.516 474.569 289.525 474.651C289.568 474.815 289.569 474.987 289.527 475.151C289.486 475.315 289.403 475.466 289.286 475.59C288.705 476.067 287.214 476.037 285.201 475.515Z" fill="#407BFF"/>
<path d="M283.544 474.219L270.795 473.43C270.689 473.417 270.582 473.426 270.479 473.455C270.377 473.484 270.281 473.534 270.198 473.6C270.115 473.667 270.045 473.749 269.994 473.843C269.943 473.936 269.911 474.039 269.9 474.145L268.648 484.204C268.619 484.732 268.797 485.25 269.146 485.648C269.494 486.046 269.984 486.293 270.511 486.335C274.985 486.528 277.102 486.409 282.709 486.707C287.686 487.221 292.694 487.385 297.694 487.199C302.451 486.737 301.869 482.043 299.826 481.819C294.95 481.268 288.509 477.691 285.467 474.979C284.926 474.522 284.251 474.256 283.544 474.219Z" fill="#263238"/>
<path d="M240.724 411.706C236.391 428.408 230.849 444.774 224.143 460.674L203.358 459.094C203.358 459.094 211.887 425.803 214.973 395.313C216.882 376.492 216.718 360.92 211.201 359.713C207.726 358.938 199.615 358.968 189.207 359.206V320.461C218.403 326.422 247.449 337.747 249.656 346.808C252.743 359.579 247.345 386.581 240.724 411.706Z" fill="#407BFF"/>
<path opacity="0.4" d="M240.724 411.706C236.391 428.408 230.849 444.774 224.143 460.674L203.358 459.094C203.358 459.094 211.887 425.803 214.973 395.313C216.882 376.492 216.718 360.92 211.201 359.713C207.726 358.938 199.615 358.968 189.207 359.206V320.461C218.403 326.422 247.449 337.747 249.656 346.808C252.743 359.579 247.345 386.581 240.724 411.706Z" fill="white"/>
<path opacity="0.2" d="M240.724 411.706C232.971 406.788 223.89 401.021 214.973 395.313C216.882 376.492 216.718 360.92 211.201 359.713C207.726 358.938 199.615 358.968 189.207 359.206V320.461C218.403 326.422 247.449 337.747 249.656 346.808C252.743 359.579 247.345 386.581 240.724 411.706Z" fill="black"/>
<path d="M229.359 316.661L231.193 301.953L171.698 292.162C171.698 292.162 152.239 330.773 161.767 349.579C170.49 366.896 263.475 356.583 277.789 359.698C292.104 362.812 269.886 459.079 269.886 459.079L290.762 460.674C290.762 460.674 322.88 374.063 316.274 346.823C313.367 334.946 264.34 319.209 229.359 316.661Z" fill="#407BFF"/>
<path opacity="0.6" d="M229.359 316.661L231.193 301.953L171.698 292.162C171.698 292.162 152.239 330.773 161.767 349.579C170.49 366.896 263.475 356.583 277.789 359.698C292.104 362.812 269.886 459.079 269.886 459.079L290.762 460.674C290.762 460.674 322.88 374.063 316.274 346.823C313.367 334.946 264.34 319.209 229.359 316.661Z" fill="white"/>
<path d="M262.09 197.013C261.583 197.892 261.643 198.89 262.225 199.218C262.806 199.546 263.715 199.099 264.178 198.205C264.64 197.311 264.625 196.342 264.058 196C263.492 195.657 262.642 196.164 262.09 197.013Z" fill="#263238"/>
<path d="M261.149 192.259C261.026 192.199 260.923 192.106 260.851 191.991C260.794 191.844 260.795 191.681 260.853 191.535C260.911 191.388 261.022 191.269 261.164 191.201C262.031 190.806 262.98 190.624 263.932 190.67C264.884 190.717 265.811 190.991 266.635 191.469C266.766 191.552 266.859 191.683 266.895 191.833C266.931 191.983 266.907 192.141 266.829 192.274C266.739 192.404 266.601 192.494 266.445 192.525C266.289 192.556 266.127 192.524 265.994 192.438C265.341 192.071 264.609 191.865 263.86 191.836C263.111 191.808 262.365 191.958 261.686 192.274C261.601 192.314 261.509 192.333 261.415 192.33C261.322 192.328 261.231 192.303 261.149 192.259Z" fill="#263238"/>
<path d="M262.922 195.88C262.433 199.193 262.398 202.557 262.818 205.88C261.963 205.96 261.101 205.856 260.29 205.573C259.48 205.29 258.74 204.835 258.121 204.24L262.922 195.88Z" fill="#DE5753"/>
<path d="M257.582 208.338C257.224 208.771 256.866 209.188 256.478 209.575C254.304 211.855 251.484 213.415 248.397 214.046C247.615 214.209 246.823 214.313 246.026 214.359C243.932 214.498 241.834 214.17 239.884 213.396C237.934 212.623 236.181 211.424 234.753 209.888C233.472 208.488 232.483 206.847 231.846 205.06C229.072 197.609 231.846 191.648 235.886 181.351C236.778 178.917 238.278 176.752 240.243 175.061C242.209 173.37 244.575 172.211 247.116 171.692C249.657 171.174 252.289 171.314 254.76 172.1C257.231 172.885 259.46 174.29 261.235 176.18C269.317 184.615 263.919 200.247 257.582 208.338Z" fill="#E4897B"/>
<path opacity="0.2" d="M248.397 214.016C247.616 214.179 246.824 214.283 246.027 214.329C243.933 214.469 241.835 214.14 239.885 213.366C237.935 212.593 236.182 211.395 234.754 209.858C235.757 208.851 236.884 207.974 238.109 207.251C242.114 208.479 245.684 210.826 248.397 214.016Z" fill="black"/>
<path d="M214.805 214.404C215.819 221.706 231.773 224.433 231.773 224.433C231.773 224.433 239.646 228.009 239.974 224.895C236.709 221.125 236.351 217.831 237.484 214.955C238.232 213.212 239.322 211.636 240.69 210.321C241.426 209.564 242.203 208.847 243.016 208.175L238.14 188.206C234.636 195.791 222.648 213.331 214.805 214.404Z" fill="#E4897B"/>
<path d="M260.328 170.458C260.328 170.458 263.742 170.025 266.292 176.418C268.499 181.768 263.31 182.931 263.533 188.623C263.757 194.316 258.568 197.46 258.568 197.46C258.568 197.46 254.184 201.23 250.471 199.189C250.471 199.189 245.61 201.573 244.328 205.731C243.046 209.888 235.516 202.378 228.731 203.525C228.731 203.525 224.154 199.233 224.482 188.832C224.744 184.315 225.851 179.887 227.747 175.778C228.648 173.603 229.972 171.629 231.644 169.971C233.316 168.313 235.301 167.004 237.484 166.121C245.297 162.634 258.881 165.257 260.328 170.458Z" fill="#263238"/>
<path d="M249.594 196.089C249.364 197.12 249.364 198.189 249.596 199.22C249.828 200.25 250.286 201.217 250.936 202.05C252.591 203.853 255.246 201.558 256.334 198.399C257.259 195.582 257.587 191.171 255.156 190.68C252.726 190.188 250.116 193.049 249.594 196.089Z" fill="#E4897B"/>
<path d="M238.14 217.071C233.748 213.191 228.326 210.666 222.529 209.799C219.995 209.487 217.431 210.034 215.246 211.353C213.062 212.672 211.383 214.685 210.48 217.071L237.231 222.48L238.14 217.071Z" fill="#407BFF"/>
<path d="M233.594 273.49L244.494 275.114C246.973 274.341 249.519 273.798 252.098 273.49C254.901 273.253 257.72 273.253 260.523 273.49C260.523 273.49 265.414 275.338 265.414 280.106C265.414 280.106 253.902 283.191 249.489 281.343L233.594 280.106V273.49Z" fill="#E4897B"/>
<path opacity="0.2" d="M233.594 273.49L244.494 275.114C246.973 274.341 249.519 273.798 252.098 273.49C254.901 273.253 257.72 273.253 260.523 273.49C260.523 273.49 265.414 275.338 265.414 280.106C265.414 280.106 253.902 283.191 249.489 281.343L233.594 280.106V273.49Z" fill="black"/>
<path d="M251.311 220.499C249.094 226.698 247.106 232.659 245.346 238.381C244.213 241.928 243.184 245.4 242.245 248.812C241.44 251.629 240.754 254.356 240.023 257.008C239.695 258.275 239.367 259.542 239.054 260.794C237.339 267.648 235.952 273.922 234.864 279.436C233.051 288.115 231.707 296.885 230.838 305.708L169.703 298.063C171.82 287.557 173.476 278.393 175.787 268.498C177.054 263.074 178.515 257.441 180.379 251.256C181.692 246.786 183.212 242.092 185.032 236.965C191.16 219.366 196.826 214.493 196.826 214.493C220.296 210.633 251.311 220.499 251.311 220.499Z" fill="#407BFF"/>
<path d="M271.648 274.622L282.548 276.262C285.027 275.48 287.573 274.931 290.153 274.622C292.956 274.394 295.774 274.394 298.578 274.622C298.578 274.622 303.513 276.47 303.513 281.194C303.513 281.194 292.002 284.279 287.573 282.431L271.648 281.194V274.622Z" fill="#E4897B"/>
<path d="M201.145 460.063L225.897 461.702L229.535 451.017L202.263 449.735L201.145 460.063Z" fill="#407BFF"/>
<path opacity="0.2" d="M201.145 460.063L225.897 461.702L229.535 451.017L202.263 449.735L201.145 460.063Z" fill="white"/>
<path d="M267.742 460.063L292.494 461.702L296.133 451.017L268.861 449.735L267.742 460.063Z" fill="#407BFF"/>
<path opacity="0.2" d="M267.742 460.063L292.494 461.702L296.133 451.017L268.861 449.735L267.742 460.063Z" fill="white"/>
<path d="M169.508 298.853L197.078 302.474L197.973 298.406L170.358 294.397L169.508 298.853Z" fill="black"/>
<path d="M200.269 298.436L199.926 302.474L225.409 305.976V301.982L200.269 298.436Z" fill="black"/>
<path d="M226.984 302.206V305.976L230.682 306.467V302.817L226.984 302.206Z" fill="black"/>
<path opacity="0.2" d="M245.327 238.381C244.193 241.928 243.165 245.4 242.225 248.812C241.42 251.629 240.734 254.356 240.004 257.008C238.095 246.577 241.495 234.104 241.495 234.104L245.327 238.381Z" fill="black"/>
<path d="M249.46 224.015C254.441 225.014 257.02 259.586 258.124 264.161C259.093 268.155 282.548 276.262 282.548 276.262V281.88C282.548 281.88 256.603 280.106 250.504 277.603C244.406 275.099 240.723 240.959 240.723 240.959L249.46 224.015Z" fill="#E4897B"/>
<g opacity="0.2">
<path d="M251.311 220.498C249.094 226.698 247.106 232.658 245.346 238.381C244.213 241.928 243.184 245.4 242.245 248.812C241.44 251.629 240.754 254.356 240.023 257.008C239.695 258.275 239.367 259.542 239.054 260.793C237.339 267.648 235.952 273.922 234.864 279.436C233.051 288.115 231.707 296.885 230.838 305.708L169.703 298.063C171.82 287.557 173.476 278.393 175.787 268.498C177.054 263.073 178.515 257.44 180.379 251.256C181.692 246.786 183.212 242.091 185.032 236.965C191.16 219.366 196.826 214.493 196.826 214.493C220.296 210.633 251.311 220.498 251.311 220.498Z" fill="#F26D0C"/>
</g>
<path d="M251.306 220.499C255.869 221.989 258.121 251.793 258.121 251.793L241.555 253.983L238.125 241.734C238.125 241.734 239.497 235.952 241.465 229.887C244.328 221.095 251.306 220.499 251.306 220.499Z" fill="#407BFF"/>
<path d="M144.439 482.118C144.439 481.079 144.13 480.065 143.553 479.202C142.976 478.339 142.155 477.667 141.195 477.27C140.235 476.873 139.179 476.77 138.161 476.974C137.142 477.178 136.207 477.679 135.473 478.414C134.74 479.149 134.241 480.085 134.04 481.103C133.84 482.122 133.946 483.177 134.345 484.135C134.745 485.093 135.42 485.912 136.285 486.486C137.15 487.061 138.166 487.366 139.205 487.363C139.894 487.363 140.575 487.227 141.211 486.963C141.847 486.7 142.425 486.313 142.911 485.826C143.397 485.338 143.782 484.76 144.045 484.124C144.307 483.487 144.441 482.806 144.439 482.118Z" fill="#263238"/>
<path opacity="0.2" d="M144.439 482.118C144.439 481.079 144.13 480.065 143.553 479.202C142.976 478.339 142.155 477.667 141.195 477.27C140.235 476.873 139.179 476.77 138.161 476.974C137.142 477.178 136.207 477.679 135.473 478.414C134.74 479.149 134.241 480.085 134.04 481.103C133.84 482.122 133.946 483.177 134.345 484.135C134.745 485.093 135.42 485.912 136.285 486.486C137.15 487.061 138.166 487.366 139.205 487.363C139.894 487.363 140.575 487.227 141.211 486.963C141.847 486.7 142.425 486.313 142.911 485.826C143.397 485.338 143.782 484.76 144.045 484.124C144.307 483.487 144.441 482.806 144.439 482.118Z" fill="white"/>
<path d="M270.599 482.118C270.599 481.08 270.291 480.066 269.714 479.203C269.138 478.341 268.318 477.668 267.359 477.271C266.4 476.874 265.344 476.77 264.326 476.973C263.308 477.175 262.373 477.675 261.639 478.408C260.905 479.142 260.405 480.077 260.202 481.094C260 482.112 260.104 483.166 260.501 484.125C260.898 485.083 261.571 485.903 262.434 486.479C263.297 487.055 264.312 487.363 265.35 487.363C266.04 487.365 266.723 487.231 267.361 486.968C267.999 486.705 268.578 486.319 269.066 485.831C269.554 485.344 269.94 484.765 270.203 484.127C270.466 483.49 270.601 482.807 270.599 482.118Z" fill="#263238"/>
<path opacity="0.2" d="M270.599 482.118C270.599 481.08 270.291 480.066 269.714 479.203C269.138 478.341 268.318 477.668 267.359 477.271C266.4 476.874 265.344 476.77 264.326 476.973C263.308 477.175 262.373 477.675 261.639 478.408C260.905 479.142 260.405 480.077 260.202 481.094C260 482.112 260.104 483.166 260.501 484.125C260.898 485.083 261.571 485.903 262.434 486.479C263.297 487.055 264.312 487.363 265.35 487.363C266.04 487.365 266.723 487.231 267.361 486.968C267.999 486.705 268.578 486.319 269.066 485.831C269.554 485.344 269.94 484.765 270.203 484.127C270.466 483.49 270.601 482.807 270.599 482.118Z" fill="white"/>
<path opacity="0.2" d="M141.814 482.117C141.814 481.598 141.66 481.09 141.371 480.659C141.082 480.227 140.671 479.891 140.191 479.693C139.711 479.495 139.182 479.444 138.673 479.546C138.164 479.649 137.696 479.9 137.33 480.268C136.963 480.636 136.715 481.105 136.615 481.615C136.515 482.124 136.57 482.652 136.77 483.131C136.971 483.61 137.31 484.019 137.743 484.305C138.177 484.591 138.686 484.743 139.205 484.74C139.549 484.74 139.89 484.672 140.207 484.54C140.525 484.408 140.813 484.214 141.055 483.971C141.298 483.727 141.49 483.438 141.62 483.12C141.75 482.802 141.816 482.461 141.814 482.117Z" fill="white"/>
<path opacity="0.2" d="M265.354 484.74C266.804 484.74 267.978 483.566 267.978 482.117C267.978 480.669 266.804 479.495 265.354 479.495C263.905 479.495 262.73 480.669 262.73 482.117C262.73 483.566 263.905 484.74 265.354 484.74Z" fill="white"/>
<path d="M206.619 459.139V402.794H197.941V459.139C164.182 460.003 143.665 471.805 139.55 474.383C139.315 474.534 139.122 474.741 138.989 474.986C138.856 475.231 138.788 475.506 138.789 475.784V480.463C138.789 480.902 138.963 481.323 139.274 481.633C139.584 481.943 140.005 482.118 140.444 482.118C140.745 482.127 141.043 482.055 141.306 481.907C141.569 481.76 141.786 481.545 141.935 481.283L143.933 477.766C161.424 472.193 179.631 469.182 197.986 468.825V478.094C197.989 478.661 198.217 479.203 198.62 479.602C199.022 480.001 199.566 480.225 200.133 480.225H204.517C205.083 480.225 205.627 480.001 206.03 479.602C206.432 479.203 206.66 478.661 206.664 478.094V468.825C225.019 469.182 243.225 472.193 260.716 477.766L262.714 481.283C262.863 481.545 263.081 481.76 263.343 481.907C263.606 482.055 263.904 482.127 264.205 482.118C264.644 482.118 265.065 481.943 265.375 481.633C265.686 481.323 265.86 480.902 265.86 480.463V475.784C265.862 475.506 265.793 475.231 265.66 474.986C265.527 474.741 265.334 474.534 265.1 474.383C260.939 471.805 240.377 460.003 206.619 459.139Z" fill="#263238"/>
<path opacity="0.2" d="M206.619 459.139V402.794H197.941V459.139C164.182 460.003 143.665 471.805 139.55 474.383C139.315 474.534 139.122 474.741 138.989 474.986C138.856 475.231 138.788 475.506 138.789 475.784V480.463C138.789 480.902 138.963 481.323 139.274 481.633C139.584 481.943 140.005 482.118 140.444 482.118C140.745 482.127 141.043 482.055 141.306 481.907C141.569 481.76 141.786 481.545 141.935 481.283L143.933 477.766C161.424 472.193 179.631 469.182 197.986 468.825V478.094C197.989 478.661 198.217 479.203 198.62 479.602C199.022 480.001 199.566 480.225 200.133 480.225H204.517C205.083 480.225 205.627 480.001 206.03 479.602C206.432 479.203 206.66 478.661 206.664 478.094V468.825C225.019 469.182 243.225 472.193 260.716 477.766L262.714 481.283C262.863 481.545 263.081 481.76 263.343 481.907C263.606 482.055 263.904 482.127 264.205 482.118C264.644 482.118 265.065 481.943 265.375 481.633C265.686 481.323 265.86 480.902 265.86 480.463V475.784C265.862 475.506 265.793 475.231 265.66 474.986C265.527 474.741 265.334 474.534 265.1 474.383C260.939 471.805 240.377 460.003 206.619 459.139Z" fill="black"/>
<path d="M203.978 476.887H200.578C199.944 476.887 199.43 477.401 199.43 478.034V486.216C199.43 486.849 199.944 487.363 200.578 487.363H203.978C204.612 487.363 205.126 486.849 205.126 486.216V478.034C205.126 477.401 204.612 476.887 203.978 476.887Z" fill="#263238"/>
<path opacity="0.2" d="M203.978 476.887H200.578C199.944 476.887 199.43 477.401 199.43 478.034V486.216C199.43 486.849 199.944 487.363 200.578 487.363H203.978C204.612 487.363 205.126 486.849 205.126 486.216V478.034C205.126 477.401 204.612 476.887 203.978 476.887Z" fill="white"/>
<path d="M145.454 347.329H259.12C262.248 347.329 265.248 348.571 267.46 350.782C269.672 352.992 270.915 355.99 270.915 359.117V366.24H133.645V359.087C133.652 355.963 134.901 352.97 137.115 350.766C139.329 348.561 142.328 347.325 145.454 347.329Z" fill="#F26D0C"/>
<path d="M182.598 300.507H258.166C259.092 300.478 260.013 300.664 260.854 301.052C261.696 301.44 262.435 302.018 263.014 302.741C263.593 303.464 263.995 304.312 264.189 305.218C264.383 306.123 264.363 307.062 264.131 307.958L250.502 366.255H247.386L258.897 315.111C259.097 314.222 259.094 313.299 258.886 312.411C258.679 311.524 258.273 310.695 257.699 309.986C257.125 309.278 256.398 308.709 255.573 308.321C254.747 307.934 253.844 307.738 252.933 307.75H184.148L182.598 300.507Z" fill="#263238"/>
<path d="M211.194 368.296V417.592C211.19 418.35 210.887 419.075 210.351 419.611C209.815 420.147 209.089 420.449 208.331 420.453H196.238C195.861 420.455 195.488 420.383 195.14 420.239C194.792 420.096 194.475 419.886 194.209 419.62C193.943 419.353 193.732 419.037 193.589 418.689C193.446 418.341 193.373 417.968 193.375 417.592V368.296H211.194Z" fill="#263238"/>
<path opacity="0.2" d="M211.212 368.296H193.379V388.772H211.212V368.296Z" fill="black"/>
<path d="M274.66 363.215V369.176C274.66 369.966 274.345 370.724 273.786 371.283C273.227 371.842 272.468 372.156 271.677 372.156H133.006C132.215 372.156 131.456 371.842 130.897 371.283C130.338 370.724 130.023 369.966 130.023 369.176V363.215C130.023 362.424 130.338 361.666 130.897 361.107C131.456 360.548 132.215 360.234 133.006 360.234H271.677C272.468 360.234 273.227 360.548 273.786 361.107C274.345 361.666 274.66 362.424 274.66 363.215Z" fill="#263238"/>
<path d="M210.838 366.255H129.902C129.902 366.255 104.195 323.516 104.195 252.895V226.951C104.195 221.813 106.238 216.886 109.873 213.253C113.508 209.62 118.439 207.578 123.58 207.578H157.875C162.918 207.553 167.771 209.503 171.394 213.009C175.017 216.516 177.123 221.301 177.259 226.34C178.139 262.79 183.507 341.592 210.838 366.255Z" fill="#263238"/>
<path opacity="0.2" d="M193.033 366.255H133.568C132.44 366.257 131.334 365.95 130.369 365.366C129.404 364.783 128.617 363.946 128.096 362.946C122.251 351.666 104.238 312.056 104.238 252.895V226.951C104.238 221.813 106.281 216.886 109.916 213.253C113.551 209.62 118.481 207.578 123.622 207.578H153.28C158.317 207.576 163.157 209.533 166.775 213.035C170.394 216.537 172.506 221.309 172.665 226.34C173.559 258.841 177.928 325.2 198.341 356.568C198.996 357.51 199.376 358.616 199.437 359.762C199.498 360.907 199.238 362.047 198.687 363.054C198.135 364.06 197.314 364.892 196.315 365.458C195.317 366.023 194.18 366.299 193.033 366.255Z" fill="white"/>
<path opacity="0.2" d="M274.657 363.215V369.175C274.657 369.966 274.343 370.724 273.784 371.283C273.225 371.842 272.466 372.156 271.675 372.156H209.496C208.418 372.152 207.385 371.722 206.622 370.96C205.86 370.198 205.43 369.165 205.426 368.088V364.317C205.426 363.238 205.855 362.204 206.618 361.441C207.381 360.678 208.417 360.249 209.496 360.249H271.66C272.052 360.247 272.44 360.322 272.803 360.47C273.165 360.618 273.495 360.836 273.773 361.111C274.052 361.387 274.273 361.714 274.425 362.075C274.576 362.436 274.655 362.823 274.657 363.215Z" fill="black"/>
</svg>
