<svg width="27" height="26" viewBox="0 0 27 26" fill="none" xmlns="http://www.w3.org/2000/svg">
<path fill-rule="evenodd" clip-rule="evenodd" d="M0.984375 13C0.984375 9.55219 2.35401 6.24558 4.79199 3.80761C7.22996 1.36964 10.5366 0 13.9844 0C17.4322 0 20.7388 1.36964 23.1768 3.80761C25.6147 6.24558 26.9844 9.55219 26.9844 13C26.9844 16.4478 25.6147 19.7544 23.1768 22.1924C20.7388 24.6304 17.4322 26 13.9844 26C10.5366 26 7.22996 24.6304 4.79199 22.1924C2.35401 19.7544 0.984375 16.4478 0.984375 13H0.984375ZM13.2425 18.564L20.727 9.20747L19.375 8.12587L12.9929 16.1009L8.47238 12.3344L7.36304 13.6656L13.2425 18.5657V18.564Z" fill="#F26D0C"/>
</svg>
