<svg width="635" height="522" viewBox="0 0 635 522" fill="none" xmlns="http://www.w3.org/2000/svg">
<path d="M516.544 52.4577C520.599 35.917 516.743 16.6267 503.641 5.74677C503.385 24.2652 496.587 42.0963 484.449 56.085C479.749 61.4629 473.961 66.955 473.733 74.0939C473.591 78.536 475.76 82.8025 478.748 86.0923C481.736 89.3822 485.505 91.8441 489.23 94.2686L489.777 95.2338C501.767 83.1393 512.488 68.9984 516.544 52.4577Z" fill="#F0F0F0"/>
<path d="M503.38 5.98816C508.405 19.1587 509.152 33.5776 505.515 47.197C504.784 50.1428 503.594 52.955 501.987 55.5301C500.341 57.988 498.067 59.9603 495.401 61.242C492.939 62.4871 490.277 63.4755 488.161 65.2973C487.091 66.2459 486.234 67.4099 485.646 68.7128C485.058 70.0158 484.752 71.4284 484.748 72.8579C484.646 76.4197 485.83 79.8057 487.102 83.0767C488.515 86.7086 490.041 90.4586 489.714 94.4349C489.674 94.9167 490.424 94.95 490.464 94.4689C491.032 87.5507 486.333 81.707 485.588 74.9968C485.24 71.8656 485.834 68.6107 488.149 66.3278C490.174 64.3315 492.918 63.3099 495.422 62.0708C498.041 60.8586 500.323 59.0235 502.07 56.7258C503.802 54.2408 505.099 51.4791 505.905 48.559C507.824 42.0138 508.702 35.2075 508.507 28.3895C508.328 20.607 506.818 12.9125 504.044 5.63901C503.872 5.18889 503.209 5.54097 503.38 5.98814V5.98816Z" fill="white"/>
<path d="M506.943 42.8807C509.311 43.1806 511.708 42.6291 513.707 41.3246C515.706 40.0202 517.176 38.0477 517.855 35.7594C517.99 35.2959 517.276 35.0632 517.14 35.5273C516.512 37.6593 515.143 39.4966 513.279 40.7075C511.416 41.9184 509.18 42.4233 506.977 42.1309C506.498 42.0679 506.467 42.8181 506.943 42.8807Z" fill="white"/>
<path d="M496.731 60.7752C493.707 56.9458 492.238 52.1176 492.616 47.2533C492.654 46.7714 491.904 46.738 491.866 47.2193C491.482 52.282 493.021 57.3034 496.176 61.2814C496.477 61.6603 497.03 61.152 496.731 60.7752Z" fill="white"/>
<path d="M507.42 21.0235C506.48 21.0984 505.535 20.9385 504.672 20.5583C503.809 20.178 503.053 19.5893 502.474 18.845C502.178 18.4624 501.626 18.9711 501.92 19.3512C502.564 20.1706 503.399 20.8197 504.352 21.242C505.305 21.6642 506.346 21.8466 507.386 21.7734C507.485 21.7747 507.58 21.7384 507.653 21.6719C507.726 21.6054 507.77 21.5137 507.778 21.4154C507.782 21.3161 507.747 21.2192 507.68 21.1459C507.613 21.0725 507.519 21.0285 507.42 21.0235Z" fill="white"/>
<path d="M446.984 16.4546C447.162 16.6987 447.341 16.9429 447.517 17.1931C449.893 20.4878 451.999 23.9702 453.812 27.6059C453.956 27.8848 454.098 28.1695 454.235 28.452C458.509 37.2577 461.111 46.7804 461.909 56.5361C462.223 60.4184 462.241 64.319 461.964 68.204C461.579 73.5694 460.736 79.3563 462.107 84.3871C462.244 84.9136 462.413 85.4311 462.615 85.9366L488.56 95.8261C488.63 95.819 488.698 95.8179 488.769 95.8109L489.787 96.2531C489.815 96.0537 489.84 95.8463 489.868 95.647C489.885 95.5314 489.896 95.4136 489.913 95.298C489.923 95.2203 489.932 95.1424 489.945 95.0727C489.948 95.0469 489.951 95.0209 489.952 95.0009C489.965 94.9313 489.97 94.8652 489.98 94.8016C490.124 93.6427 490.259 92.4809 490.387 91.316C490.389 91.31 490.389 91.31 490.386 91.3019C491.443 82.435 491.446 73.4739 490.392 64.6064C490.357 64.3422 490.325 64.0722 490.278 63.8035C489.732 59.8482 488.865 55.944 487.683 52.13C487.03 50.0437 486.271 47.9918 485.41 45.9821C483.175 40.7939 480.138 35.9895 476.41 31.7451C468.977 23.2849 458.921 17.2961 447.832 16.5066C447.549 16.4866 447.27 16.4686 446.984 16.4546Z" fill="#F0F0F0"/>
<path d="M446.915 16.806C458.856 24.2966 468.134 35.3595 473.43 48.4232C474.62 51.2153 475.363 54.1775 475.63 57.2008C475.796 60.1543 475.168 63.0983 473.811 65.7268C472.595 68.2031 471.064 70.5952 470.471 73.324C470.188 74.7253 470.205 76.1705 470.52 77.5649C470.835 78.9593 471.441 80.2714 472.299 81.4151C474.361 84.3205 477.345 86.3114 480.331 88.157C483.645 90.2061 487.121 92.282 489.254 95.6535C489.513 96.062 490.131 95.6371 489.873 95.2292C486.162 89.3633 478.892 87.5263 474.257 82.6172C472.094 80.3265 470.609 77.3702 471.082 74.1536C471.497 71.3409 473.073 68.8727 474.326 66.3761C475.688 63.8313 476.405 60.9918 476.416 58.1058C476.303 55.0786 475.676 52.0927 474.561 49.276C472.153 42.8945 468.756 36.9314 464.496 31.6051C459.667 25.4992 453.829 20.2644 447.235 16.1271C446.827 15.8712 446.509 16.5518 446.915 16.8061V16.806Z" fill="white"/>
<path d="M471.972 44.1167C474.043 42.9305 475.625 41.0468 476.436 38.8018C477.246 36.5569 477.233 34.0969 476.397 31.8613C476.226 31.4095 475.516 31.6535 475.687 32.1059C476.469 34.1863 476.482 36.4777 475.723 38.5667C474.964 40.6556 473.483 42.4044 471.548 43.4975C471.128 43.7355 471.554 44.3534 471.972 44.1167Z" fill="white"/>
<path d="M474.592 64.5525C469.872 63.3154 465.793 60.3448 463.166 56.2332C462.906 55.8256 462.287 56.2504 462.547 56.6575C465.288 60.9311 469.54 64.0138 474.454 65.2904C474.923 65.4117 475.058 64.6732 474.592 64.5525Z" fill="white"/>
<path d="M459.194 26.3761C458.488 27.0021 457.638 27.4429 456.72 27.6591C455.801 27.8753 454.844 27.86 453.933 27.6146C453.466 27.4874 453.332 28.2261 453.795 28.3525C454.803 28.6189 455.86 28.6345 456.875 28.3979C457.89 28.1613 458.832 27.6797 459.618 26.9953C459.698 26.937 459.752 26.8506 459.77 26.7537C459.788 26.6568 459.769 26.5566 459.715 26.4736C459.659 26.3919 459.572 26.3358 459.475 26.3176C459.377 26.2993 459.276 26.3204 459.194 26.3762V26.3761Z" fill="white"/>
<path d="M412.68 390.086C325.696 390.086 254.93 319.32 254.93 232.336C254.93 145.353 325.696 74.5862 412.68 74.5862C421.876 74.585 431.055 75.3804 440.113 76.9634C440.226 76.9829 440.334 77.0244 440.431 77.0857C440.528 77.1471 440.612 77.2269 440.678 77.3206C440.744 77.4144 440.791 77.5202 440.816 77.6321C440.841 77.7439 440.843 77.8596 440.823 77.9725C440.804 78.0855 440.762 78.1934 440.7 78.2901C440.639 78.3868 440.559 78.4704 440.465 78.5361C440.371 78.6018 440.265 78.6484 440.153 78.6731C440.041 78.6978 439.925 78.7002 439.812 78.6801C430.853 77.1148 421.775 76.3283 412.68 76.3293C326.657 76.3293 256.673 146.313 256.673 232.336C256.673 318.359 326.657 388.343 412.68 388.343C498.702 388.343 568.686 318.359 568.686 232.336C568.725 193.455 554.207 155.968 527.99 127.255C527.835 127.084 527.755 126.859 527.766 126.629C527.778 126.398 527.879 126.182 528.05 126.027C528.22 125.872 528.445 125.79 528.675 125.8C528.905 125.81 529.122 125.911 529.278 126.08C555.788 155.114 570.468 193.02 570.429 232.336C570.43 319.32 499.663 390.086 412.68 390.086Z" fill="#E4E4E4"/>
<path d="M482.234 128.689C499.472 128.689 513.445 114.715 513.445 97.4779C513.445 80.2406 499.472 66.267 482.234 66.267C464.997 66.267 451.023 80.2406 451.023 97.4779C451.023 114.715 464.997 128.689 482.234 128.689Z" fill="#F26D0C"/>
<path d="M477.975 113.722C477.436 113.722 476.904 113.596 476.422 113.355C475.94 113.114 475.521 112.764 475.197 112.333L466.683 100.979C466.409 100.615 466.21 100.2 466.097 99.758C465.984 99.3163 465.959 98.8567 466.023 98.4054C466.088 97.9541 466.24 97.5199 466.473 97.1276C466.705 96.7353 467.012 96.3926 467.377 96.1191C467.742 95.8455 468.157 95.6465 468.599 95.5334C469.04 95.4202 469.5 95.3952 469.951 95.4597C470.402 95.5242 470.837 95.6769 471.229 95.9092C471.621 96.1415 471.964 96.4488 472.237 96.8135L477.808 104.241L492.116 82.7795C492.628 82.0165 493.422 81.4876 494.323 81.3088C495.224 81.13 496.16 81.3158 496.924 81.8256C497.689 82.3353 498.22 83.1273 498.402 84.0281C498.583 84.9289 498.401 85.865 497.893 86.6311L480.864 112.176C480.555 112.638 480.141 113.019 479.655 113.288C479.169 113.557 478.626 113.705 478.071 113.721C478.039 113.721 478.007 113.722 477.975 113.722Z" fill="white"/>
<path d="M408.62 207.855L360.49 73.9589L361.71 73.5202L352.858 48.893L351.638 49.3322L336.86 8.22183C336.308 6.6864 335.459 5.2747 334.362 4.06735C333.264 2.86 331.94 1.88064 330.464 1.18518C328.988 0.489721 327.389 0.0917802 325.76 0.0140923C324.13 -0.0635956 322.501 0.180486 320.965 0.732398L233.957 32.0081C232.421 32.5599 231.009 33.4088 229.802 34.5063C228.595 35.6037 227.615 36.9282 226.92 38.4042C226.224 39.8802 225.826 41.4787 225.748 43.1084C225.671 44.7382 225.915 46.3673 226.467 47.9027L236.77 76.5673L234.842 77.31L241.419 94.3898L242.963 93.7952L244.329 97.5944L242.686 98.2271L249.263 115.307L250.521 114.822L298.226 247.536C298.776 249.074 299.623 250.487 300.72 251.696C301.817 252.905 303.142 253.886 304.619 254.582C306.095 255.278 307.695 255.675 309.326 255.751C310.956 255.828 312.586 255.581 314.121 255.026L401.13 223.751C404.228 222.633 406.757 220.331 408.161 217.352C409.565 214.372 409.73 210.957 408.62 207.855Z" fill="#3F3D56"/>
<path d="M309.545 250.613C308.319 250.61 307.125 250.23 306.123 249.525C305.121 248.82 304.361 247.823 303.946 246.67L231.429 44.9294C230.895 43.4435 230.973 41.8064 231.646 40.3781C232.319 38.9499 233.532 37.8474 235.018 37.3132L253.53 30.6587L253.503 31.3064C253.455 32.4308 253.685 33.5496 254.172 34.5642C254.658 35.5789 255.387 36.4582 256.294 37.1249C257.201 37.7915 258.257 38.2249 259.371 38.387C260.484 38.549 261.621 38.4347 262.68 38.0541L303.765 23.2859C304.757 22.8315 305.628 22.1501 306.307 21.2967C306.987 20.4433 307.456 19.442 307.676 18.3737C307.895 17.3232 307.862 16.2359 307.58 15.2007C307.298 14.1654 306.775 13.2114 306.055 12.4167L305.621 11.9345L324.744 5.06043C326.23 4.52854 327.866 4.60767 329.294 5.2805C330.722 5.95332 331.824 7.16491 332.36 8.64959L401.548 201.127C402.96 205.07 402.75 209.412 400.965 213.201C399.179 216.989 395.964 219.915 392.025 221.336L311.562 250.259C310.915 250.493 310.233 250.612 309.545 250.613Z" fill="white"/>
<path d="M302.454 107.523C315.45 107.523 325.985 96.9871 325.985 83.9909C325.985 70.9946 315.45 60.4591 302.454 60.4591C289.457 60.4591 278.922 70.9946 278.922 83.9909C278.922 96.9871 289.457 107.523 302.454 107.523Z" fill="#F26D0C"/>
<path d="M360.766 118.211L279.275 147.504C279.02 147.596 278.75 147.637 278.48 147.625C278.209 147.612 277.944 147.547 277.699 147.432C277.454 147.317 277.234 147.154 277.052 146.954C276.869 146.754 276.729 146.52 276.637 146.265C276.545 146.01 276.505 145.74 276.518 145.47C276.531 145.199 276.597 144.934 276.713 144.689C276.829 144.444 276.991 144.225 277.192 144.043C277.393 143.861 277.627 143.721 277.882 143.63L359.374 114.337C359.887 114.154 360.452 114.182 360.945 114.415C361.437 114.648 361.818 115.067 362.002 115.58C362.186 116.093 362.16 116.658 361.928 117.151C361.697 117.645 361.279 118.026 360.766 118.211Z" fill="#E6E6E6"/>
<path d="M336.567 136.784L309.762 146.42C309.508 146.512 309.238 146.553 308.967 146.54C308.697 146.528 308.432 146.462 308.187 146.347C307.942 146.232 307.722 146.069 307.54 145.869C307.358 145.669 307.217 145.435 307.125 145.18C307.034 144.925 306.993 144.655 307.006 144.385C307.019 144.114 307.086 143.849 307.201 143.605C307.317 143.36 307.479 143.14 307.68 142.959C307.881 142.777 308.115 142.636 308.37 142.545L335.175 132.91C335.688 132.725 336.255 132.752 336.748 132.985C337.242 133.218 337.623 133.637 337.808 134.151C337.993 134.665 337.966 135.231 337.733 135.725C337.5 136.219 337.081 136.6 336.567 136.784Z" fill="#E6E6E6"/>
<path d="M342.942 154.521L316.138 164.156C315.883 164.248 315.613 164.288 315.343 164.275C315.073 164.262 314.808 164.196 314.564 164.081C314.319 163.966 314.1 163.804 313.918 163.604C313.736 163.404 313.596 163.17 313.504 162.915C313.413 162.661 313.372 162.391 313.385 162.121C313.398 161.851 313.464 161.586 313.579 161.342C313.694 161.097 313.857 160.878 314.057 160.696C314.257 160.514 314.491 160.374 314.745 160.282L341.55 150.647C342.064 150.462 342.63 150.489 343.123 150.722C343.617 150.955 343.999 151.374 344.183 151.888C344.368 152.401 344.341 152.968 344.108 153.461C343.876 153.955 343.456 154.336 342.942 154.521V154.521Z" fill="#E6E6E6"/>
<path d="M346.205 163.606L319.4 173.241C319.146 173.333 318.875 173.374 318.605 173.362C318.334 173.349 318.069 173.284 317.824 173.169C317.579 173.054 317.359 172.891 317.177 172.691C316.994 172.491 316.854 172.257 316.762 172.002C316.67 171.747 316.63 171.477 316.643 171.206C316.656 170.936 316.722 170.671 316.838 170.426C316.954 170.181 317.117 169.962 317.317 169.78C317.518 169.598 317.753 169.458 318.008 169.367L344.813 159.732C345.067 159.639 345.337 159.598 345.608 159.611C345.878 159.623 346.143 159.689 346.388 159.804C346.634 159.919 346.853 160.081 347.036 160.282C347.218 160.482 347.359 160.716 347.45 160.971C347.542 161.225 347.582 161.496 347.569 161.766C347.556 162.037 347.49 162.302 347.374 162.546C347.259 162.791 347.096 163.011 346.895 163.193C346.695 163.374 346.46 163.515 346.205 163.606L346.205 163.606Z" fill="#E6E6E6"/>
<path d="M354.743 140.124L297.872 160.567C297.618 160.659 297.348 160.7 297.077 160.688C296.807 160.675 296.541 160.61 296.296 160.495C296.051 160.379 295.832 160.217 295.649 160.017C295.467 159.817 295.326 159.583 295.235 159.328C295.143 159.073 295.103 158.803 295.116 158.532C295.129 158.262 295.195 157.997 295.311 157.752C295.426 157.507 295.589 157.288 295.79 157.106C295.99 156.924 296.225 156.784 296.48 156.693L353.351 136.25C353.605 136.158 353.875 136.117 354.146 136.13C354.416 136.142 354.682 136.208 354.927 136.323C355.172 136.438 355.392 136.6 355.574 136.8C355.756 137.001 355.897 137.235 355.988 137.49C356.08 137.744 356.12 138.015 356.107 138.285C356.094 138.555 356.028 138.821 355.912 139.065C355.797 139.31 355.634 139.53 355.433 139.711C355.233 139.893 354.998 140.033 354.743 140.124Z" fill="#E6E6E6"/>
<path d="M343.29 185.658L333.557 189.157C332.683 189.47 331.721 189.424 330.882 189.028C330.043 188.632 329.395 187.919 329.081 187.046C328.767 186.173 328.813 185.211 329.208 184.371C329.604 183.532 330.316 182.884 331.189 182.569L340.922 179.071C341.795 178.757 342.757 178.804 343.596 179.2C344.436 179.595 345.083 180.308 345.397 181.181C345.711 182.055 345.665 183.017 345.27 183.856C344.875 184.696 344.163 185.344 343.29 185.658Z" fill="#6C63FF"/>
<path d="M266.592 31.311C267.339 31.311 267.945 30.705 267.945 29.9575C267.945 29.21 267.339 28.604 266.592 28.604C265.844 28.604 265.238 29.21 265.238 29.9575C265.238 30.705 265.844 31.311 266.592 31.311Z" fill="white"/>
<path d="M110.935 106.081C126.105 88.2248 150.718 76.9713 173.41 82.8057C152.973 98.0212 138.575 119.976 132.766 144.784C130.561 154.36 129.104 165.24 121.33 171.25C116.492 174.99 109.988 176.012 103.911 175.333C97.8345 174.654 92.0509 172.437 86.3452 170.239L84.8281 170.408C88.6442 147.29 95.7651 123.938 110.935 106.081Z" fill="#F0F0F0"/>
<path d="M173.354 83.2941C154.62 88.3108 137.944 99.1026 125.693 114.137C122.998 117.327 120.823 120.921 119.247 124.788C117.834 128.605 117.469 132.73 118.189 136.736C118.786 140.484 119.831 144.249 119.506 148.077C119.311 150.034 118.704 151.927 117.726 153.633C116.747 155.339 115.419 156.819 113.829 157.976C109.94 160.962 105.211 162.372 100.539 163.591C95.3509 164.943 89.9409 166.267 85.7713 169.836C85.2661 170.269 84.6245 169.46 85.1289 169.028C92.3832 162.817 102.686 163.344 110.767 158.764C114.538 156.628 117.688 153.341 118.367 148.92C118.96 145.054 117.886 141.171 117.249 137.381C116.489 133.484 116.694 129.459 117.848 125.66C119.221 121.725 121.254 118.053 123.86 114.8C129.609 107.384 136.489 100.918 144.247 95.6383C153.067 89.5639 162.862 85.0432 173.207 82.2717C173.848 82.1004 173.99 83.1239 173.354 83.2941H173.354Z" fill="white"/>
<path d="M129.352 109.064C127.108 106.666 125.79 103.549 125.633 100.269C125.476 96.9888 126.49 93.7598 128.493 91.1584C128.901 90.6334 129.736 91.2416 129.328 91.7673C127.457 94.1863 126.513 97.1942 126.666 100.248C126.819 103.302 128.058 106.201 130.16 108.421C130.616 108.904 129.805 109.544 129.352 109.064H129.352Z" fill="white"/>
<path d="M117.634 134.875C124.341 135.158 130.908 132.903 136.026 128.56C136.532 128.129 137.174 128.938 136.668 129.369C131.334 133.878 124.495 136.211 117.517 135.901C116.852 135.871 116.973 134.845 117.634 134.875Z" fill="white"/>
<path d="M153.328 90.9073C154.003 92.016 154.942 92.9397 156.062 93.5956C157.182 94.2514 158.447 94.6188 159.744 94.6648C160.409 94.6864 160.288 95.7122 159.627 95.6908C158.194 95.6333 156.797 95.2258 155.558 94.504C154.319 93.7821 153.276 92.7678 152.52 91.5497C152.439 91.4409 152.402 91.3053 152.418 91.1706C152.433 91.0358 152.499 90.912 152.603 90.8243C152.71 90.7398 152.847 90.7011 152.982 90.7166C153.118 90.7322 153.242 90.8007 153.328 90.9073Z" fill="white"/>
<path d="M207.151 154.602C206.735 154.601 206.319 154.599 205.898 154.604C200.309 154.611 194.73 155.072 189.215 155.982C188.788 156.045 188.355 156.116 187.931 156.192C174.668 158.527 161.954 163.303 150.435 170.279C145.854 173.059 141.491 176.183 137.384 179.625C131.713 184.379 125.941 189.985 119.228 192.513C118.53 192.784 117.817 193.012 117.091 193.196L85.1488 172.245C85.1001 172.161 85.0463 172.084 84.9972 172L83.6836 171.222C83.883 171.03 84.094 170.834 84.2934 170.642C84.4086 170.53 84.5309 170.423 84.6462 170.311C84.7252 170.237 84.8047 170.164 84.8718 170.094C84.8981 170.069 84.9246 170.045 84.9461 170.028C85.0133 169.957 85.0831 169.899 85.1455 169.836C86.3217 168.741 87.5077 167.654 88.7034 166.572C88.7082 166.565 88.7082 166.565 88.7201 166.562C97.8517 158.345 107.749 150.818 118.475 145.033C118.798 144.859 119.125 144.677 119.462 144.513C124.311 141.932 129.363 139.752 134.568 137.994C137.42 137.04 140.32 136.232 143.254 135.572C150.84 133.88 158.644 133.393 166.382 134.127C181.805 135.592 196.589 141.974 206.409 153.699C206.66 153.999 206.905 154.295 207.151 154.602Z" fill="#F0F0F0"/>
<path d="M206.814 154.961C188.836 147.687 169.023 146.263 150.19 150.892C146.118 151.816 142.217 153.376 138.631 155.515C135.205 157.712 132.43 160.786 130.593 164.418C128.813 167.77 127.381 171.405 124.817 174.266C123.482 175.711 121.858 176.858 120.049 177.631C118.241 178.404 116.29 178.786 114.323 178.752C109.421 178.795 104.796 177.074 100.332 175.233C95.375 173.19 90.2587 170.989 84.7803 171.329C84.1165 171.37 84.0913 170.338 84.7541 170.297C94.2857 169.705 102.195 176.329 111.404 177.538C115.702 178.102 120.195 177.375 123.399 174.253C126.2 171.523 127.681 167.776 129.454 164.367C131.193 160.797 133.78 157.708 136.989 155.369C140.454 153.054 144.289 151.346 148.327 150.318C157.383 147.858 166.769 146.837 176.142 147.292C186.842 147.753 197.384 150.04 207.313 154.056C207.927 154.305 207.425 155.208 206.814 154.961L206.814 154.961Z" fill="white"/>
<path d="M156.164 149.044C155.816 145.779 156.641 142.497 158.49 139.783C160.339 137.07 163.093 135.102 166.259 134.231C166.9 134.057 167.2 135.045 166.558 135.22C163.609 136.025 161.044 137.858 159.327 140.389C157.61 142.919 156.854 145.98 157.196 149.018C157.27 149.679 156.237 149.701 156.164 149.044V149.044Z" fill="white"/>
<path d="M131.271 162.6C136.456 166.864 143.056 169.017 149.758 168.63C150.422 168.591 150.447 169.624 149.784 169.663C142.81 170.052 135.945 167.797 130.56 163.348C130.047 162.924 130.761 162.177 131.271 162.6H131.271Z" fill="white"/>
<path d="M186.244 148.985C186.115 150.276 186.309 151.579 186.808 152.777C187.308 153.975 188.097 155.03 189.105 155.848C189.623 156.266 188.908 157.011 188.393 156.596C187.284 155.688 186.414 154.522 185.859 153.199C185.305 151.877 185.082 150.439 185.212 149.011C185.212 148.875 185.265 148.745 185.358 148.647C185.452 148.548 185.579 148.489 185.715 148.482C185.851 148.479 185.984 148.53 186.083 148.624C186.182 148.719 186.24 148.848 186.244 148.985Z" fill="white"/>
<path d="M566.202 449.288C582.743 453.343 602.033 449.487 612.913 436.385C594.394 436.129 576.563 429.331 562.575 417.194C557.197 412.493 551.705 406.705 544.566 406.477C540.124 406.335 535.857 408.504 532.567 411.492C529.277 414.48 526.815 418.249 524.391 421.974L523.426 422.521C535.52 434.511 549.661 445.232 566.202 449.288Z" fill="#F0F0F0"/>
<path d="M612.669 436.122C599.498 441.147 585.08 441.894 571.46 438.258C568.514 437.527 565.702 436.336 563.127 434.73C560.669 433.084 558.697 430.809 557.415 428.143C556.17 425.682 555.182 423.019 553.36 420.903C552.411 419.833 551.247 418.977 549.944 418.388C548.641 417.8 547.229 417.495 545.799 417.491C542.237 417.388 538.851 418.572 535.58 419.845C531.949 421.258 528.199 422.783 524.222 422.456C523.74 422.417 523.707 423.167 524.188 423.206C531.106 423.774 536.95 419.076 543.66 418.33C546.792 417.983 550.046 418.577 552.329 420.892C554.326 422.916 555.347 425.661 556.586 428.164C557.799 430.783 559.634 433.066 561.931 434.812C564.416 436.545 567.178 437.842 570.098 438.647C576.643 440.567 583.45 441.445 590.268 441.25C598.05 441.07 605.745 439.561 613.018 436.787C613.468 436.615 613.116 435.951 612.669 436.122H612.669Z" fill="white"/>
<path d="M575.775 439.687C575.475 442.055 576.027 444.452 577.331 446.451C578.636 448.449 580.608 449.919 582.896 450.598C583.36 450.734 583.593 450.02 583.129 449.884C580.997 449.256 579.159 447.887 577.948 446.023C576.737 444.159 576.233 441.924 576.525 439.721C576.588 439.242 575.838 439.211 575.775 439.687V439.687Z" fill="white"/>
<path d="M557.882 429.475C561.711 426.451 566.54 424.982 571.404 425.36C571.886 425.398 571.919 424.648 571.438 424.61C566.375 424.226 561.354 425.765 557.376 428.92C556.997 429.221 557.505 429.774 557.882 429.475H557.882Z" fill="white"/>
<path d="M597.633 440.166C597.558 439.226 597.718 438.282 598.098 437.418C598.478 436.555 599.067 435.8 599.811 435.22C600.194 434.924 599.685 434.372 599.305 434.666C598.486 435.31 597.837 436.145 597.414 437.098C596.992 438.051 596.81 439.093 596.883 440.132C596.882 440.231 596.918 440.326 596.984 440.399C597.051 440.472 597.143 440.517 597.241 440.524C597.34 440.528 597.437 440.493 597.51 440.426C597.584 440.359 597.628 440.266 597.633 440.166Z" fill="white"/>
<path d="M602.205 379.726C601.961 379.904 601.716 380.082 601.466 380.258C598.172 382.635 594.689 384.74 591.053 386.553C590.775 386.698 590.49 386.84 590.207 386.976C581.402 391.251 571.879 393.853 562.123 394.651C558.241 394.965 554.34 394.983 550.455 394.705C545.09 394.321 539.303 393.478 534.272 394.848C533.746 394.985 533.228 395.155 532.723 395.356L522.833 421.301C522.84 421.372 522.841 421.44 522.848 421.51L522.406 422.528C522.606 422.557 522.813 422.582 523.012 422.61C523.128 422.627 523.246 422.638 523.361 422.655C523.439 422.664 523.517 422.674 523.587 422.687C523.612 422.69 523.638 422.693 523.658 422.694C523.728 422.707 523.794 422.711 523.858 422.722C525.017 422.866 526.178 423.001 527.343 423.129C527.349 423.131 527.349 423.131 527.357 423.127C536.224 424.185 545.185 424.187 554.053 423.134C554.317 423.099 554.587 423.066 554.856 423.019C558.811 422.474 562.715 421.606 566.529 420.425C568.616 419.771 570.668 419.012 572.677 418.151C577.865 415.916 582.67 412.879 586.914 409.151C595.374 401.719 601.363 391.663 602.153 380.574C602.173 380.29 602.191 380.012 602.205 379.726Z" fill="#F0F0F0"/>
<path d="M601.849 379.659C594.359 391.601 583.296 400.878 570.232 406.175C567.44 407.365 564.478 408.107 561.455 408.375C558.501 408.54 555.557 407.912 552.929 406.555C550.452 405.339 548.06 403.808 545.331 403.215C543.93 402.933 542.485 402.949 541.09 403.264C539.696 403.579 538.384 404.185 537.24 405.043C534.335 407.106 532.344 410.09 530.498 413.075C528.449 416.39 526.373 419.865 523.002 421.999C522.593 422.257 523.018 422.876 523.426 422.618C529.292 418.906 531.129 411.636 536.038 407.001C538.329 404.838 541.285 403.353 544.502 403.827C547.314 404.241 549.783 405.818 552.279 407.071C554.824 408.432 557.664 409.149 560.55 409.161C563.577 409.048 566.563 408.421 569.379 407.306C575.761 404.898 581.724 401.501 587.05 397.24C593.156 392.411 598.391 386.574 602.528 379.979C602.784 379.571 602.104 379.253 601.849 379.659H601.849Z" fill="white"/>
<path d="M574.541 404.717C575.727 406.788 577.611 408.37 579.856 409.181C582.101 409.991 584.561 409.977 586.797 409.141C587.249 408.971 587.005 408.261 586.552 408.432C584.472 409.214 582.18 409.226 580.091 408.467C578.002 407.708 576.254 406.228 575.16 404.292C574.922 403.872 574.305 404.299 574.541 404.717Z" fill="white"/>
<path d="M554.103 407.337C555.34 402.617 558.311 398.538 562.422 395.911C562.83 395.651 562.405 395.032 561.998 395.292C557.724 398.033 554.642 402.285 553.365 407.199C553.244 407.668 553.982 407.803 554.103 407.337Z" fill="white"/>
<path d="M592.282 391.94C591.656 391.234 591.215 390.384 590.999 389.466C590.783 388.548 590.798 387.59 591.044 386.679C591.171 386.213 590.432 386.078 590.306 386.542C590.039 387.549 590.024 388.607 590.26 389.622C590.497 390.637 590.978 391.579 591.663 392.365C591.721 392.444 591.808 392.498 591.905 392.516C592.001 392.535 592.102 392.515 592.185 392.462C592.266 392.405 592.322 392.319 592.341 392.221C592.359 392.123 592.338 392.022 592.282 391.94Z" fill="white"/>
<path d="M632.479 290.307L607.256 332.751L608.215 333.257L599.674 349.45L597.896 348.509L592.283 357.948L593.677 358.749L584.526 374.594L582.94 373.679L500.64 512.185C498.481 515.81 494.973 518.43 490.885 519.471C486.797 520.512 482.463 519.888 478.834 517.737L325.834 426.826C322.209 424.668 319.588 421.16 318.547 417.071C317.506 412.983 318.13 408.649 320.282 405.02L452.121 183.141C454.279 179.517 457.787 176.896 461.876 175.856C465.964 174.815 470.298 175.438 473.927 177.59L626.927 268.501C630.55 270.66 633.17 274.168 634.21 278.256C635.251 282.344 634.628 286.678 632.479 290.307Z" fill="#3F3D56"/>
<path d="M484.288 509.172L330.749 417.942C329.632 417.276 328.824 416.195 328.503 414.935C328.183 413.675 328.375 412.339 329.038 411.22L461.751 187.866C462.417 186.749 463.498 185.941 464.758 185.62C466.019 185.299 467.355 185.492 468.473 186.155L622.012 277.385C623.129 278.051 623.937 279.132 624.258 280.392C624.578 281.652 624.386 282.988 623.723 284.107L491.01 507.461C490.344 508.578 489.263 509.386 488.002 509.707C486.742 510.027 485.406 509.835 484.288 509.172Z" fill="white"/>
<path d="M547.353 228.239C548.101 228.239 548.707 227.633 548.707 226.886C548.707 226.138 548.101 225.532 547.353 225.532C546.606 225.532 546 226.138 546 226.886C546 227.633 546.606 228.239 547.353 228.239Z" fill="white"/>
<path d="M538.979 388.237L410.812 312.082C410.41 311.846 410.059 311.532 409.778 311.159C409.498 310.786 409.294 310.362 409.178 309.91C409.062 309.458 409.036 308.987 409.102 308.526C409.169 308.064 409.325 307.62 409.564 307.219C409.802 306.818 410.117 306.468 410.491 306.189C410.865 305.91 411.29 305.707 411.743 305.593C412.195 305.479 412.665 305.455 413.127 305.523C413.588 305.591 414.032 305.749 414.432 305.989L542.599 382.144C543.001 382.381 543.352 382.695 543.633 383.067C543.913 383.44 544.117 383.865 544.233 384.317C544.349 384.769 544.374 385.239 544.308 385.701C544.242 386.162 544.085 386.607 543.847 387.008C543.609 387.409 543.293 387.759 542.92 388.038C542.546 388.317 542.12 388.519 541.668 388.633C541.216 388.748 540.745 388.771 540.284 388.703C539.822 388.635 539.379 388.477 538.978 388.237H538.979Z" fill="#E6E6E6"/>
<path d="M487.806 376.437L445.648 351.387C445.248 351.15 444.899 350.835 444.62 350.463C444.341 350.09 444.139 349.666 444.024 349.215C443.909 348.764 443.884 348.295 443.95 347.834C444.017 347.373 444.174 346.93 444.411 346.53C444.649 346.13 444.963 345.78 445.336 345.502C445.709 345.223 446.133 345.021 446.584 344.906C447.035 344.791 447.504 344.766 447.965 344.833C448.426 344.899 448.869 345.056 449.269 345.294L491.426 370.343C491.826 370.581 492.176 370.895 492.454 371.268C492.733 371.641 492.936 372.065 493.05 372.516C493.165 372.967 493.19 373.436 493.124 373.897C493.057 374.357 492.9 374.8 492.663 375.2C492.425 375.6 492.111 375.95 491.738 376.228C491.365 376.507 490.941 376.71 490.49 376.824C490.039 376.939 489.57 376.964 489.11 376.897C488.649 376.831 488.206 376.674 487.806 376.437Z" fill="#E6E6E6"/>
<path d="M471.227 404.332L429.069 379.283C428.261 378.803 427.677 378.021 427.445 377.11C427.214 376.2 427.353 375.234 427.833 374.426C428.313 373.618 429.095 373.034 430.005 372.802C430.916 372.57 431.881 372.71 432.689 373.19L474.847 398.239C475.247 398.477 475.596 398.791 475.875 399.164C476.154 399.536 476.356 399.96 476.471 400.411C476.586 400.862 476.611 401.331 476.544 401.792C476.478 402.253 476.321 402.696 476.083 403.096C475.846 403.496 475.531 403.845 475.159 404.124C474.786 404.403 474.362 404.605 473.911 404.72C473.46 404.835 472.991 404.859 472.53 404.793C472.07 404.726 471.627 404.57 471.227 404.332Z" fill="#E6E6E6"/>
<path d="M462.738 418.62L420.581 393.571C420.179 393.333 419.829 393.02 419.549 392.647C419.269 392.274 419.066 391.85 418.95 391.398C418.835 390.947 418.81 390.477 418.876 390.015C418.942 389.554 419.099 389.11 419.337 388.71C419.575 388.309 419.89 387.959 420.263 387.68C420.637 387.401 421.062 387.199 421.513 387.085C421.965 386.97 422.435 386.946 422.896 387.013C423.358 387.081 423.801 387.239 424.201 387.478L466.359 412.527C466.761 412.764 467.112 413.077 467.392 413.45C467.673 413.823 467.877 414.248 467.993 414.7C468.109 415.152 468.135 415.622 468.068 416.084C468.002 416.546 467.846 416.99 467.607 417.391C467.369 417.792 467.054 418.142 466.68 418.421C466.306 418.7 465.88 418.903 465.428 419.017C464.976 419.131 464.505 419.155 464.044 419.087C463.582 419.018 463.138 418.86 462.738 418.62V418.62Z" fill="#E6E6E6"/>
<path d="M503.275 404.237L413.831 351.091C413.027 350.609 412.447 349.828 412.217 348.919C411.988 348.01 412.128 347.047 412.607 346.241C413.085 345.436 413.864 344.852 414.772 344.619C415.68 344.386 416.643 344.522 417.451 344.998L506.895 398.144C507.297 398.381 507.649 398.695 507.929 399.068C508.21 399.44 508.414 399.865 508.53 400.317C508.646 400.769 508.671 401.239 508.605 401.701C508.539 402.163 508.382 402.607 508.144 403.008C507.906 403.409 507.59 403.759 507.216 404.038C506.842 404.317 506.417 404.52 505.965 404.634C505.512 404.748 505.042 404.772 504.58 404.704C504.119 404.636 503.675 404.477 503.275 404.237Z" fill="#E6E6E6"/>
<path d="M486.226 472.158L470.919 463.063C469.547 462.246 468.555 460.917 468.162 459.369C467.769 457.821 468.006 456.181 468.822 454.808C469.638 453.435 470.965 452.442 472.513 452.047C474.06 451.652 475.701 451.888 477.075 452.702L492.382 461.797C493.756 462.614 494.749 463.943 495.144 465.491C495.538 467.04 495.301 468.682 494.484 470.056C493.668 471.43 492.339 472.423 490.79 472.818C489.242 473.212 487.6 472.975 486.226 472.158Z" fill="#31569A"/>
<path d="M514.786 324.483C532.114 324.483 546.162 310.435 546.162 293.107C546.162 275.779 532.114 261.731 514.786 261.731C497.458 261.731 483.41 275.779 483.41 293.107C483.41 310.435 497.458 324.483 514.786 324.483Z" fill="#F26D0C"/>
<path d="M510 319C523.807 319 535 307.807 535 294C535 280.193 523.807 269 510 269C496.193 269 485 280.193 485 294C485 307.807 496.193 319 510 319Z" fill="#F7F7F7"/>
<path d="M301.5 94C307.851 94 313 88.8513 313 82.5C313 76.1487 307.851 71 301.5 71C295.149 71 290 76.1487 290 82.5C290 88.8513 295.149 94 301.5 94Z" fill="#F7F7F7"/>
<path d="M0.367188 420.607H424.968V174.788C424.966 172.947 424.233 171.181 422.931 169.879C421.629 168.576 419.863 167.844 418.021 167.842H7.31428C5.47247 167.844 3.70668 168.576 2.4043 169.879C1.10192 171.181 0.369314 172.947 0.367188 174.788V420.607Z" fill="#CACACA"/>
<path d="M411.852 177.45H13.4883V403.608H411.852V177.45Z" fill="white"/>
<path d="M5.71191e-10 413.955V444.289C-1.37339e-05 445.547 0.247664 446.792 0.728891 447.954C1.21012 449.116 1.91547 450.171 2.80468 451.061C3.69388 451.95 4.74954 452.655 5.91135 453.137C7.07316 453.618 8.31837 453.865 9.57591 453.865H166.293V513.731H164.211C164.048 513.731 163.886 513.763 163.735 513.826C163.584 513.888 163.447 513.98 163.331 514.095C163.216 514.211 163.124 514.348 163.062 514.499C162.999 514.65 162.967 514.811 162.967 514.975V519.139C162.967 519.302 162.999 519.464 163.062 519.615C163.124 519.766 163.216 519.903 163.331 520.018C163.447 520.134 163.584 520.225 163.735 520.288C163.886 520.35 164.048 520.383 164.211 520.383H261.499C261.662 520.383 261.824 520.35 261.975 520.288C262.126 520.225 262.263 520.134 262.378 520.018C262.494 519.903 262.585 519.766 262.648 519.615C262.71 519.464 262.743 519.302 262.743 519.139V514.975C262.743 514.811 262.71 514.65 262.648 514.499C262.585 514.348 262.494 514.211 262.378 514.095C262.263 513.98 262.126 513.888 261.975 513.826C261.824 513.763 261.662 513.731 261.499 513.731H259.417V453.865H416.134C417.391 453.865 418.636 453.618 419.798 453.137C420.96 452.655 422.016 451.95 422.905 451.061C423.794 450.172 424.499 449.116 424.981 447.954C425.462 446.792 425.71 445.547 425.71 444.289V413.955L5.71191e-10 413.955Z" fill="#3F3D56"/>
<path d="M354.208 253.086H165.558C164.369 253.086 163.229 252.613 162.388 251.773C161.547 250.932 161.074 249.791 161.074 248.602C161.074 247.413 161.547 246.272 162.388 245.431C163.229 244.59 164.369 244.118 165.558 244.118H354.208C355.397 244.118 356.538 244.59 357.379 245.431C358.22 246.272 358.692 247.413 358.692 248.602C358.692 249.791 358.22 250.932 357.379 251.773C356.538 252.613 355.397 253.086 354.208 253.086Z" fill="#E6E6E6"/>
<path d="M290.912 273.328H228.859C227.67 273.328 226.529 272.855 225.688 272.014C224.847 271.173 224.375 270.033 224.375 268.843C224.375 267.654 224.847 266.514 225.688 265.673C226.529 264.832 227.67 264.359 228.859 264.359H290.912C292.101 264.359 293.241 264.832 294.082 265.673C294.923 266.514 295.396 267.654 295.396 268.843C295.396 270.033 294.923 271.173 294.082 272.014C293.241 272.855 292.101 273.328 290.912 273.328Z" fill="#E6E6E6"/>
<path d="M290.912 314.387H228.859C227.67 314.387 226.529 313.915 225.688 313.074C224.847 312.233 224.375 311.092 224.375 309.903C224.375 308.714 224.847 307.573 225.688 306.732C226.529 305.891 227.67 305.419 228.859 305.419H290.912C292.101 305.419 293.241 305.891 294.082 306.732C294.923 307.573 295.396 308.714 295.396 309.903C295.396 311.092 294.923 312.233 294.082 313.074C293.241 313.915 292.101 314.387 290.912 314.387Z" fill="#E6E6E6"/>
<path d="M290.911 335.418H228.859C228.27 335.418 227.687 335.302 227.143 335.077C226.599 334.851 226.105 334.521 225.688 334.105C225.272 333.688 224.942 333.194 224.716 332.65C224.491 332.106 224.375 331.523 224.375 330.934C224.375 330.345 224.491 329.762 224.716 329.218C224.942 328.674 225.272 328.179 225.688 327.763C226.105 327.347 226.599 327.016 227.143 326.791C227.687 326.566 228.27 326.45 228.859 326.45H290.911C291.5 326.45 292.083 326.566 292.627 326.791C293.171 327.016 293.666 327.347 294.082 327.763C294.498 328.179 294.829 328.674 295.054 329.218C295.279 329.762 295.395 330.345 295.395 330.934C295.395 331.523 295.279 332.106 295.054 332.65C294.829 333.194 294.498 333.688 294.082 334.105C293.666 334.521 293.171 334.851 292.627 335.077C292.083 335.302 291.5 335.418 290.911 335.418Z" fill="#E6E6E6"/>
<path d="M325.712 293.57H194.058C192.869 293.57 191.729 293.097 190.888 292.256C190.047 291.415 189.574 290.275 189.574 289.085C189.574 287.896 190.047 286.756 190.888 285.915C191.729 285.074 192.869 284.601 194.058 284.601H325.712C326.901 284.601 328.042 285.074 328.883 285.915C329.724 286.756 330.196 287.896 330.196 289.085C330.196 290.275 329.724 291.415 328.883 292.256C328.042 293.097 326.901 293.57 325.712 293.57Z" fill="#E6E6E6"/>
<path d="M351.066 378.476H328.535C326.513 378.476 324.574 377.673 323.144 376.243C321.714 374.813 320.91 372.874 320.91 370.851C320.91 368.829 321.714 366.889 323.144 365.459C324.574 364.029 326.513 363.226 328.535 363.226H351.066C353.089 363.226 355.028 364.029 356.458 365.459C357.888 366.889 358.691 368.829 358.691 370.851C358.691 372.874 357.888 374.813 356.458 376.243C355.028 377.673 353.089 378.476 351.066 378.476Z" fill="#31569A"/>
<path d="M106.235 323.133C127.896 323.133 145.455 305.574 145.455 283.914C145.455 262.253 127.896 244.694 106.235 244.694C84.5748 244.694 67.0156 262.253 67.0156 283.914C67.0156 305.574 84.5748 323.133 106.235 323.133Z" fill="#F26D0C"/>
<path d="M102 312C115.807 312 127 300.807 127 287C127 273.193 115.807 262 102 262C88.1929 262 77 273.193 77 287C77 300.807 88.1929 312 102 312Z" fill="#F7F7F7"/>
<path d="M565.186 522H1.03864C0.763938 521.999 0.500763 521.89 0.306799 521.695C0.112834 521.501 0.00390625 521.237 0.00390625 520.962C0.00390625 520.688 0.112834 520.424 0.306799 520.23C0.500763 520.035 0.763938 519.925 1.03864 519.925H565.186C565.46 519.925 565.724 520.035 565.917 520.23C566.111 520.424 566.22 520.688 566.22 520.962C566.22 521.237 566.111 521.501 565.917 521.695C565.724 521.89 565.46 521.999 565.186 522Z" fill="#CACACA"/>
<path d="M212.486 172.646C213.302 172.646 213.964 171.984 213.964 171.168C213.964 170.351 213.302 169.689 212.486 169.689C211.67 169.689 211.008 170.351 211.008 171.168C211.008 171.984 211.67 172.646 212.486 172.646Z" fill="white"/>
</svg>
