<svg width="13" height="15" viewBox="0 0 13 15" fill="none" xmlns="http://www.w3.org/2000/svg">
<path d="M10.0218 14.0391H1.3473C0.604398 14.0391 0 13.428 0 12.6768V2.25659C0 1.50542 0.604398 0.894287 1.3473 0.894287H11.4279C12.1708 0.894287 12.7752 1.50542 12.7752 2.25659V11.5511C12.7752 11.7603 12.6075 11.9299 12.4006 11.9299C12.1937 11.9299 12.0259 11.7603 12.0259 11.5511V2.25659C12.0259 1.92317 11.7577 1.65193 11.4279 1.65193H1.3473C1.01755 1.65193 0.749303 1.92317 0.749303 2.25659V12.6768C0.749303 13.0102 1.01755 13.2814 1.34733 13.2814H10.0218C10.2287 13.2814 10.3964 13.4511 10.3964 13.6603C10.3964 13.8695 10.2287 14.0391 10.0218 14.0391Z" fill="#6D7C8D"/>
<path d="M6.88672 6.50322C6.88672 6.48584 6.89246 6.46266 6.89822 6.43942L7.96506 2.90168C8.02815 2.69871 8.28625 2.6001 8.55008 2.6001C8.81392 2.6001 9.07206 2.69871 9.13511 2.90168L10.2077 6.43942C10.2134 6.46261 10.2192 6.48584 10.2192 6.50322C10.2192 6.7178 9.89223 6.87441 9.64559 6.87441C9.50221 6.87441 9.38749 6.82799 9.35306 6.70625L9.15806 5.98128H7.94784L7.75284 6.70625C7.71841 6.82804 7.60372 6.87441 7.46032 6.87441C7.21367 6.87441 6.88672 6.7178 6.88672 6.50322ZM8.96878 5.28528L8.55008 3.73101L8.13137 5.28528H8.96878Z" fill="#6D7C8D"/>
<path d="M3.88152 6.07486C4.61215 6.07486 5.20445 5.47597 5.20445 4.7372C5.20445 3.99843 4.61215 3.39954 3.88152 3.39954C3.15089 3.39954 2.55859 3.99843 2.55859 4.7372C2.55859 5.47597 3.15089 6.07486 3.88152 6.07486Z" fill="#6D7C8D"/>
<path d="M3.88136 6.45381C2.94521 6.45381 2.18359 5.68371 2.18359 4.73713C2.18359 3.79058 2.94521 3.02051 3.88136 3.02051C4.81749 3.02051 5.57908 3.79061 5.57908 4.73713C5.57908 5.68374 4.81749 6.45381 3.88136 6.45381ZM3.88136 3.77813C3.35837 3.77813 2.93292 4.20834 2.93292 4.73711C2.93292 5.26593 3.35839 5.69611 3.88136 5.69611C4.40431 5.69611 4.82978 5.2659 4.82978 4.73711C4.82978 4.20834 4.40431 3.77813 3.88136 3.77813Z" fill="#6D7C8D"/>
<path d="M7.3125 8.37179C7.3125 8.18624 7.5075 8.09338 7.70253 8.09338H8.87837C9.45196 8.09338 10.0255 8.30219 10.0255 9.12574C10.0255 9.59548 9.84199 9.90287 9.53794 10.0362C9.88782 10.1696 10.1287 10.3842 10.1287 10.9642V11.0859C10.1287 12.0023 9.62399 12.3329 8.97586 12.3329H7.70255C7.46164 12.3329 7.31252 12.2053 7.31252 12.0603V8.37179H7.3125ZM8.20155 9.68829H8.80377C9.02175 9.68829 9.13072 9.48532 9.13072 9.28812C9.13072 9.08515 9.02177 8.88212 8.80377 8.88212H8.20155V9.68829ZM8.77513 11.5441C9.06189 11.5441 9.23396 11.3817 9.23396 11.0106V10.9178C9.23396 10.5234 9.06189 10.3842 8.77513 10.3842H8.20153V11.5441H8.77513Z" fill="#6D7C8D"/>
<path d="M3.97137 11.5512C4.702 11.5512 5.29429 10.9523 5.29429 10.2135C5.29429 9.47475 4.702 8.87585 3.97137 8.87585C3.24073 8.87585 2.64844 9.47475 2.64844 10.2135C2.64844 10.9523 3.24073 11.5512 3.97137 11.5512Z" fill="#6D7C8D"/>
<path d="M3.97121 11.9301C3.03505 11.9301 2.27344 11.16 2.27344 10.2135C2.27344 9.26692 3.03505 8.49683 3.97121 8.49683C4.90733 8.49683 5.66893 9.26692 5.66893 10.2135C5.66893 11.16 4.90731 11.9301 3.97121 11.9301ZM3.97121 9.25447C3.44821 9.25447 3.02277 9.68468 3.02277 10.2135C3.02277 10.7422 3.44824 11.1725 3.97121 11.1725C4.49415 11.1725 4.91962 10.7422 4.91962 10.2135C4.9196 9.68468 4.49415 9.25447 3.97121 9.25447Z" fill="#6D7C8D"/>
</svg>
