<svg width="19" height="17" viewBox="0 0 19 17" fill="none" xmlns="http://www.w3.org/2000/svg">
<path d="M6.5 12.3125H15.5781C15.7812 12.3125 15.9609 12.2422 16.1172 12.1016C16.2734 11.9609 16.3516 11.7734 16.3516 11.5391C16.3516 11.3151 16.2734 11.1328 16.1172 10.9922C15.9609 10.8516 15.7812 10.7812 15.5781 10.7812H6.70312C6.54167 10.7812 6.40885 10.7292 6.30469 10.625C6.20052 10.5156 6.13802 10.3698 6.11719 10.1875L4.88281 1.6875C4.83594 1.32292 4.71615 1.04948 4.52344 0.867188C4.33594 0.684896 4.01302 0.59375 3.55469 0.59375H0.921875C0.697917 0.59375 0.502604 0.677083 0.335938 0.84375C0.174479 1.01042 0.09375 1.20833 0.09375 1.4375C0.09375 1.66667 0.174479 1.86458 0.335938 2.03125C0.502604 2.19792 0.697917 2.28125 0.921875 2.28125H3.25L4.42969 10.3516C4.52344 10.9609 4.73698 11.4401 5.07031 11.7891C5.40365 12.138 5.88021 12.3125 6.5 12.3125ZM5.17969 9.39062H15.6641C16.2839 9.39062 16.7604 9.21615 17.0938 8.86719C17.4323 8.51823 17.6458 8.03385 17.7344 7.41406L18.2969 3.64062C18.3073 3.58333 18.3151 3.52604 18.3203 3.46875C18.3307 3.40625 18.3359 3.34896 18.3359 3.29688C18.3359 3.04688 18.2526 2.84375 18.0859 2.6875C17.9193 2.52604 17.6849 2.44531 17.3828 2.44531H4.46875L4.47656 3.98438H16.5234L16.0625 7.27344C16.0365 7.45573 15.974 7.59896 15.875 7.70312C15.7812 7.80208 15.651 7.85156 15.4844 7.85156L5.17188 7.85938L5.17969 9.39062ZM7.14844 16.2969C7.53906 16.2969 7.8724 16.1589 8.14844 15.8828C8.42969 15.612 8.57031 15.276 8.57031 14.875C8.57031 14.4844 8.42969 14.151 8.14844 13.875C7.8724 13.599 7.53906 13.4609 7.14844 13.4609C6.88281 13.4609 6.64323 13.5234 6.42969 13.6484C6.21615 13.7734 6.04427 13.9427 5.91406 14.1562C5.78385 14.375 5.71875 14.6146 5.71875 14.875C5.71875 15.1406 5.78385 15.3802 5.91406 15.5938C6.04427 15.8125 6.21615 15.9844 6.42969 16.1094C6.64323 16.2344 6.88281 16.2969 7.14844 16.2969ZM14.3125 16.2969C14.7083 16.2969 15.0443 16.1589 15.3203 15.8828C15.5964 15.612 15.7344 15.276 15.7344 14.875C15.7344 14.4844 15.5964 14.151 15.3203 13.875C15.0443 13.599 14.7083 13.4609 14.3125 13.4609C14.0521 13.4609 13.8125 13.5234 13.5938 13.6484C13.3802 13.7734 13.2083 13.9427 13.0781 14.1562C12.9531 14.375 12.8906 14.6146 12.8906 14.875C12.8906 15.276 13.0286 15.612 13.3047 15.8828C13.5859 16.1589 13.9219 16.2969 14.3125 16.2969Z" fill="#0A1F44"/>
</svg>
