<svg width="17" height="18" viewBox="0 0 17 18" fill="none" xmlns="http://www.w3.org/2000/svg">
<path d="M16.2144 0.5H0.56496C0.252989 0.5 0 0.752989 0 1.06496V3.86327C0 4.17524 0.252989 4.42823 0.56496 4.42823H1.26393L6.42643 10.4957V16.935C6.42643 17.1434 6.54111 17.3348 6.72478 17.4331C6.80834 17.4779 6.89998 17.5 6.99133 17.5C7.10093 17.5 7.21025 17.4681 7.30477 17.4051L10.1013 15.5407C10.2585 15.436 10.3529 15.2595 10.3529 15.0707V10.4957L15.5154 4.42823H16.2144C16.5263 4.42823 16.7793 4.17524 16.7793 3.86327V1.06496C16.7793 0.752989 16.5264 0.5 16.2144 0.5ZM9.35767 9.92185C9.27072 10.024 9.22298 10.1538 9.22298 10.2879V14.7684L7.55635 15.8794V10.2879C7.55635 10.1538 7.50861 10.024 7.42166 9.92185L2.74752 4.42823H14.0318L9.35767 9.92185ZM15.6494 3.29831H1.12992V1.62992H15.6494V3.29831Z" fill="#31569A"/>
</svg>
