<svg width="82" height="15" viewBox="0 0 82 15" fill="none" xmlns="http://www.w3.org/2000/svg">
<path d="M3.72363 14.8457H10.9082C11.5508 14.8457 12.043 14.6794 12.3848 14.3467C12.7311 14.014 12.9043 13.5241 12.9043 12.877V8.67969H12.9521C13.2529 8.61589 13.4831 8.46777 13.6426 8.23535C13.8066 8.00293 13.8887 7.71354 13.8887 7.36719V5.56934C13.8887 5.15462 13.777 4.82422 13.5537 4.57812C13.3304 4.33203 13.0091 4.20898 12.5898 4.20898H11.209C11.3913 4.03125 11.5326 3.82161 11.6328 3.58008C11.7331 3.33398 11.7832 3.06966 11.7832 2.78711C11.7832 2.34505 11.6761 1.95312 11.4619 1.61133C11.2523 1.26953 10.9674 1.00293 10.6074 0.811523C10.252 0.61556 9.85319 0.517578 9.41113 0.517578C8.93262 0.517578 8.50651 0.642904 8.13281 0.893555C7.75911 1.14421 7.48568 1.49967 7.3125 1.95996C7.13932 1.49967 6.86589 1.14421 6.49219 0.893555C6.12305 0.642904 5.69694 0.517578 5.21387 0.517578C4.77181 0.517578 4.37077 0.61556 4.01074 0.811523C3.65527 1.00293 3.37044 1.26953 3.15625 1.61133C2.94661 1.95312 2.8418 2.34505 2.8418 2.78711C2.8418 3.06966 2.89193 3.33398 2.99219 3.58008C3.09701 3.82161 3.24056 4.03125 3.42285 4.20898H2.04199C1.64095 4.20898 1.32422 4.33203 1.0918 4.57812C0.859375 4.82422 0.743164 5.15462 0.743164 5.56934V7.36719C0.743164 7.71354 0.822917 8.00293 0.982422 8.23535C1.14193 8.46777 1.37207 8.61589 1.67285 8.67969H1.7207V12.877C1.7207 13.5241 1.8916 14.014 2.2334 14.3467C2.57975 14.6794 3.0765 14.8457 3.72363 14.8457ZM6.7041 13.8203H3.70996C3.42741 13.8203 3.20866 13.7428 3.05371 13.5879C2.89876 13.4329 2.82129 13.2142 2.82129 12.9316V8.72754H6.7041V13.8203ZM7.9209 13.8203V8.72754H11.8037V12.9316C11.8037 13.2142 11.7262 13.4329 11.5713 13.5879C11.4209 13.7428 11.2021 13.8203 10.915 13.8203H7.9209ZM6.7041 7.69531H2.32227C2.14909 7.69531 2.02604 7.65885 1.95312 7.58594C1.88021 7.50846 1.84375 7.38314 1.84375 7.20996V5.71973C1.84375 5.54655 1.88021 5.4235 1.95312 5.35059C2.02604 5.27767 2.14909 5.24121 2.32227 5.24121H6.7041V7.69531ZM7.9209 7.69531V5.24121H12.3164C12.485 5.24121 12.6058 5.27767 12.6787 5.35059C12.7516 5.4235 12.7881 5.54655 12.7881 5.71973V7.20996C12.7881 7.38314 12.7516 7.50846 12.6787 7.58594C12.6058 7.65885 12.485 7.69531 12.3164 7.69531H7.9209ZM6.75195 4.20898H5.68555C5.14779 4.20898 4.72852 4.07682 4.42773 3.8125C4.13151 3.54818 3.9834 3.22689 3.9834 2.84863C3.9834 2.47038 4.10645 2.17871 4.35254 1.97363C4.59863 1.764 4.90853 1.65918 5.28223 1.65918C5.69238 1.65918 6.03874 1.80501 6.32129 2.09668C6.6084 2.38379 6.75195 2.78027 6.75195 3.28613V4.20898ZM7.87305 4.20898V3.28613C7.87305 2.78027 8.0166 2.38379 8.30371 2.09668C8.59082 1.80501 8.93717 1.65918 9.34277 1.65918C9.72103 1.65918 10.0309 1.764 10.2725 1.97363C10.5186 2.17871 10.6416 2.47038 10.6416 2.84863C10.6416 3.22689 10.4912 3.54818 10.1904 3.8125C9.89421 4.07682 9.47721 4.20898 8.93945 4.20898H7.87305Z" fill="#F26D0C"/>
<path d="M26.1702 3.242V4.278H21.9282V7.568H25.3722V8.604H21.9282V13H20.6542V3.242H26.1702ZM28.9829 6.574C29.2069 6.13533 29.5242 5.79467 29.9349 5.552C30.3549 5.30933 30.8635 5.188 31.4609 5.188V6.504H31.1249C29.6969 6.504 28.9829 7.27867 28.9829 8.828V13H27.7089V5.328H28.9829V6.574ZM39.9315 8.87C39.9315 9.11267 39.9175 9.36933 39.8895 9.64H33.7575C33.8042 10.396 34.0608 10.9887 34.5275 11.418C35.0035 11.838 35.5775 12.048 36.2495 12.048C36.8002 12.048 37.2575 11.922 37.6215 11.67C37.9948 11.4087 38.2562 11.0633 38.4055 10.634H39.7775C39.5722 11.3713 39.1615 11.9733 38.5455 12.44C37.9295 12.8973 37.1642 13.126 36.2495 13.126C35.5215 13.126 34.8682 12.9627 34.2895 12.636C33.7202 12.3093 33.2722 11.8473 32.9455 11.25C32.6188 10.6433 32.4555 9.94333 32.4555 9.15C32.4555 8.35667 32.6142 7.66133 32.9315 7.064C33.2488 6.46667 33.6922 6.00933 34.2615 5.692C34.8402 5.36533 35.5028 5.202 36.2495 5.202C36.9775 5.202 37.6215 5.36067 38.1815 5.678C38.7415 5.99533 39.1708 6.434 39.4695 6.994C39.7775 7.54467 39.9315 8.17 39.9315 8.87ZM38.6155 8.604C38.6155 8.11867 38.5082 7.70333 38.2935 7.358C38.0788 7.00333 37.7848 6.73733 37.4115 6.56C37.0475 6.37333 36.6415 6.28 36.1935 6.28C35.5495 6.28 34.9988 6.48533 34.5415 6.896C34.0935 7.30667 33.8368 7.876 33.7715 8.604H38.6155ZM48.6132 8.87C48.6132 9.11267 48.5992 9.36933 48.5712 9.64H42.4392C42.4858 10.396 42.7425 10.9887 43.2092 11.418C43.6852 11.838 44.2592 12.048 44.9312 12.048C45.4818 12.048 45.9392 11.922 46.3032 11.67C46.6765 11.4087 46.9378 11.0633 47.0872 10.634H48.4592C48.2538 11.3713 47.8432 11.9733 47.2272 12.44C46.6112 12.8973 45.8458 13.126 44.9312 13.126C44.2032 13.126 43.5498 12.9627 42.9712 12.636C42.4018 12.3093 41.9538 11.8473 41.6272 11.25C41.3005 10.6433 41.1372 9.94333 41.1372 9.15C41.1372 8.35667 41.2958 7.66133 41.6132 7.064C41.9305 6.46667 42.3738 6.00933 42.9432 5.692C43.5218 5.36533 44.1845 5.202 44.9312 5.202C45.6592 5.202 46.3032 5.36067 46.8632 5.678C47.4232 5.99533 47.8525 6.434 48.1512 6.994C48.4592 7.54467 48.6132 8.17 48.6132 8.87ZM47.2972 8.604C47.2972 8.11867 47.1898 7.70333 46.9752 7.358C46.7605 7.00333 46.4665 6.73733 46.0932 6.56C45.7292 6.37333 45.3232 6.28 44.8752 6.28C44.2312 6.28 43.6805 6.48533 43.2232 6.896C42.7752 7.30667 42.5185 7.876 42.4532 8.604H47.2972ZM60.0332 3.242V4.278H57.3732V13H56.0992V4.278H53.4252V3.242H60.0332ZM62.8754 6.574C63.0994 6.13533 63.4168 5.79467 63.8274 5.552C64.2474 5.30933 64.7561 5.188 65.3534 5.188V6.504H65.0174C63.5894 6.504 62.8754 7.27867 62.8754 8.828V13H61.6014V5.328H62.8754V6.574ZM67.4821 4.082C67.2394 4.082 67.0341 3.998 66.8661 3.83C66.6981 3.662 66.6141 3.45667 66.6141 3.214C66.6141 2.97133 66.6981 2.766 66.8661 2.598C67.0341 2.43 67.2394 2.346 67.4821 2.346C67.7154 2.346 67.9114 2.43 68.0701 2.598C68.2381 2.766 68.3221 2.97133 68.3221 3.214C68.3221 3.45667 68.2381 3.662 68.0701 3.83C67.9114 3.998 67.7154 4.082 67.4821 4.082ZM68.0981 5.328V13H66.8241V5.328H68.0981ZM69.7934 9.136C69.7934 8.352 69.9521 7.666 70.2694 7.078C70.5867 6.48067 71.0207 6.01867 71.5714 5.692C72.1314 5.36533 72.7521 5.202 73.4334 5.202C74.1054 5.202 74.6887 5.34667 75.1834 5.636C75.6781 5.92533 76.0467 6.28933 76.2894 6.728V5.328H77.5774V13H76.2894V11.572C76.0374 12.02 75.6594 12.3933 75.1554 12.692C74.6607 12.9813 74.0821 13.126 73.4194 13.126C72.7381 13.126 72.1221 12.958 71.5714 12.622C71.0207 12.286 70.5867 11.8147 70.2694 11.208C69.9521 10.6013 69.7934 9.91067 69.7934 9.136ZM76.2894 9.15C76.2894 8.57133 76.1727 8.06733 75.9394 7.638C75.7061 7.20867 75.3887 6.882 74.9874 6.658C74.5954 6.42467 74.1614 6.308 73.6854 6.308C73.2094 6.308 72.7754 6.42 72.3834 6.644C71.9914 6.868 71.6787 7.19467 71.4454 7.624C71.2121 8.05333 71.0954 8.55733 71.0954 9.136C71.0954 9.724 71.2121 10.2373 71.4454 10.676C71.6787 11.1053 71.9914 11.4367 72.3834 11.67C72.7754 11.894 73.2094 12.006 73.6854 12.006C74.1614 12.006 74.5954 11.894 74.9874 11.67C75.3887 11.4367 75.7061 11.1053 75.9394 10.676C76.1727 10.2373 76.2894 9.72867 76.2894 9.15ZM81.0043 2.64V13H79.7303V2.64H81.0043Z" fill="#3A3A3A"/>
<path d="M19.5762 14.4H82.0963V15.1H19.5762V14.4Z" fill="#3A3A3A"/>
</svg>
