<svg width="4" height="20" viewBox="0 0 4 20" fill="none" xmlns="http://www.w3.org/2000/svg">
<path d="M3.22818 0H0.771822C0.346228 0 0 0.372529 0 0.830454V3.47341C0 3.93134 0.346228 4.30386 0.771822 4.30386H3.22818C3.65377 4.30386 4 3.93134 4 3.47341V0.830454C4 0.372529 3.65377 0 3.22818 0Z" fill="#6D7C8D"/>
<path d="M3.22818 7.84668H0.771822C0.346228 7.84668 0 8.21921 0 8.67713V11.3201C0 11.778 0.346228 12.1505 0.771822 12.1505H3.22818C3.65377 12.1505 4 11.778 4 11.3201V8.67713C4 8.21921 3.65377 7.84668 3.22818 7.84668Z" fill="#6D7C8D"/>
<path d="M3.22818 15.6962H0.771822C0.346228 15.6962 0 16.0687 0 16.5266V19.1696C0 19.6275 0.346228 20 0.771822 20H3.22818C3.65377 20 4 19.6275 4 19.1696V16.5266C4 16.0686 3.65377 15.6962 3.22818 15.6962Z" fill="#6D7C8D"/>
</svg>
