<svg width="16" height="20" viewBox="0 0 16 20" fill="none" xmlns="http://www.w3.org/2000/svg">
<path d="M12.7599 13.7162C12.14 13.7162 11.5625 13.8964 11.0757 14.2063L6.16174 10.7756C6.24062 10.5002 6.28375 10.2098 6.28375 9.90908C6.28375 9.60835 6.24062 9.31787 6.16174 9.04253L10.943 5.70441C11.456 6.06881 12.0826 6.2838 12.7598 6.2838C14.495 6.2838 15.9017 4.87711 15.9017 3.14192C15.9017 1.40673 14.4951 0 12.7599 0C11.0247 0 9.61799 1.40669 9.61799 3.14188C9.61799 3.37104 9.64319 3.59423 9.68977 3.80944L4.7871 7.23233C4.30854 6.93758 3.7452 6.7672 3.14188 6.7672C1.40669 6.7672 0 8.17389 0 9.90908C0 11.6443 1.40664 13.051 3.14188 13.051C3.74516 13.051 4.30854 12.8806 4.7871 12.5858L9.72762 16.0351C9.65658 16.2975 9.61799 16.5733 9.61799 16.8581C9.61799 18.5933 11.0247 20 12.7599 20C14.4951 20 15.9017 18.5933 15.9017 16.8581C15.9017 15.1229 14.4951 13.7162 12.7599 13.7162Z" fill="#31569A"/>
</svg>
